<?xml version="1.0" standalone="no"?>
<!DOCTYPE svg PUBLIC "-//W3C//DTD SVG 1.1//EN" "http://www.w3.org/Graphics/SVG/1.1/DTD/svg11.dtd" >
<svg xmlns="http://www.w3.org/2000/svg" xmlns:xlink="http://www.w3.org/1999/xlink" version="1.1">
<metadata>
Created by FontForge 20200314 at Wed May 27 19:58:07 2015
 By Unknown
Copyright (c) ParaType, Inc., 2005. All rights reserved.
</metadata>
<defs>
<font id="ReformaGroteskBoldW08-Rg" horiz-adv-x="340" >
  <font-face 
    font-family="ReformaGroteskBoldW08-Rg"
    font-weight="400"
    font-stretch="normal"
    units-per-em="1000"
    panose-1="4 5 7 4 3 11 2 2 2 2"
    ascent="800"
    descent="-200"
    x-height="512"
    cap-height="700"
    bbox="-318 -226 1000 928"
    underline-thickness="50"
    underline-position="-125"
    unicode-range="U+0020-F6E2"
  />
<missing-glyph horiz-adv-x="233" 
 />
    <glyph glyph-name="uniF001" unicode="fi" horiz-adv-x="409" 
d="M46 0v422h-40v90h40v86q0 15 2.5 37.5t16.5 39.5q16 18 38 21.5t34 3.5h78v-94h-12q-5 0 -12.5 -2.5t-10.5 -6.5q-6 -7 -6 -35v-50h205v-512h-128v422h-77v-422h-128zM251 572v128h128v-128h-128z" />
    <glyph glyph-name="uniF002" unicode="fl" horiz-adv-x="409" 
d="M46 0v422h-40v90h40v86q0 15 2.5 37.5t16.5 39.5q16 18 38 21.5t34 3.5h78v-94h-12q-5 0 -12.5 -2.5t-10.5 -6.5q-6 -7 -6 -35v-50h77v188h128v-700h-128v422h-77v-422h-128z" />
    <glyph glyph-name="uniF460" unicode="&#x410;`" horiz-adv-x="384" 
d="M231 0l-8 89h-62l-8 -89h-143l67 700h232l65 -700h-143zM219 187l-24 406h-4l-26 -406h54zM51 778l244 109l37 -98l-263 -59z" />
    <glyph glyph-name="uniF461" unicode="&#x415;`" horiz-adv-x="369" 
d="M35 700h313v-98h-175v-168h132v-98h-132v-238h191v-98h-329v700zM43 778l244 109l37 -98l-263 -59z" />
    <glyph glyph-name="uniF462" unicode="&#x418;`" horiz-adv-x="418" 
d="M245 0v328l4 51l-76 -272v-107h-138v700h138v-322l-4 -57l76 270v109h138v-700h-138zM68 778l244 109l37 -98l-263 -59z" />
    <glyph glyph-name="uniF463" unicode="&#x41e;`" horiz-adv-x="412" 
d="M380 154q0 -33 -7.5 -64t-38.5 -59q-29 -26 -64 -33.5t-64 -7.5q-51 0 -81 13t-47 28q-29 27 -37.5 59t-8.5 64v392q0 32 8.5 64t37.5 59q17 15 47 28t81 13q29 0 64 -7.5t64 -33.5q31 -28 38.5 -59t7.5 -64v-392zM242 549q0 7 -1 17.5t-3 17.5q-5 14 -14 17.5t-18 3.5
t-18 -3.5t-14 -17.5q-2 -7 -3 -17.5t-1 -17.5v-398q0 -6 1 -17t3 -18q5 -14 15 -17.5t17 -3.5t17 3.5t15 17.5q2 7 3 18t1 17v398zM65 778l244 109l37 -98l-263 -59z" />
    <glyph glyph-name="uniF464" unicode="&#x423;`" horiz-adv-x="395" 
d="M29 98h23q14 0 28.5 3t24.5 11t17.5 22.5t10.5 29.5l13 67l-141 469h133l65 -224l55 224h132l-139 -569q-8 -33 -16.5 -60.5t-38.5 -48.5q-24 -17 -49.5 -19.5t-55.5 -2.5h-62v98zM56 778l244 109l37 -98l-263 -59z" />
    <glyph glyph-name="uniF465" unicode="&#x42b;`" horiz-adv-x="597" 
d="M173 409h72q10 0 25 -0.5t32 -5.5t33.5 -16t30.5 -32q12 -19 14.5 -39.5t2.5 -41.5v-146q0 -21 -3.5 -42t-17.5 -41q-11 -16 -33 -30.5t-51 -14.5h-243v700h138v-291zM208 98q8 0 18 3.5t15 17.5q3 8 3.5 22.5t0.5 22.5v81q0 30 -8 45q-3 5 -11.5 13t-25.5 8h-27v-213h35
zM424 700h138v-700h-138v700zM157 778l244 109l37 -98l-263 -59z" />
    <glyph glyph-name="uniF466" unicode="&#x42d;`" horiz-adv-x="405" 
d="M25 546q0 16 1.5 32.5t6 32t13.5 30t25 28.5q29 26 64 33.5t64 7.5q51 0 81 -13t47 -28q29 -27 37.5 -59t8.5 -64v-392q0 -32 -8.5 -64t-37.5 -59q-17 -15 -47 -28t-81 -13q-29 0 -64 7.5t-64 33.5q-16 14 -25 28.5t-13.5 30t-6 31.5t-1.5 33v95h138v-98q0 -6 1 -17
t3 -18q5 -14 15 -17.5t17 -3.5t17 3.5t15 17.5q2 7 3 18t1 17v173h-136v98h136v127q0 7 -1 17.5t-3 17.5q-5 14 -14 17.5t-18 3.5t-18 -3.5t-14 -17.5q-2 -7 -3 -17.5t-1 -17.5v-51h-138v48zM61 778l244 109l37 -98l-263 -59z" />
    <glyph glyph-name="uniF467" unicode="&#x42e;`" horiz-adv-x="614" 
d="M582 154q0 -33 -7.5 -64t-38.5 -59q-29 -26 -64 -33.5t-64 -7.5q-51 0 -81 13t-47 28q-29 27 -37.5 59t-8.5 64v179h-61v-333h-138v700h138v-269h61v115q0 32 8.5 64t37.5 59q17 15 47 28t81 13q29 0 64 -7.5t64 -33.5q31 -28 38.5 -59t7.5 -64v-392zM444 549
q0 7 -1 17.5t-3 17.5q-5 14 -14 17.5t-18 3.5t-18 -3.5t-14 -17.5q-2 -7 -3 -17.5t-1 -17.5v-398q0 -6 1 -17t3 -18q5 -14 15 -17.5t17 -3.5t17 3.5t15 17.5q2 7 3 18t1 17v398zM166 778l244 109l37 -98l-263 -59z" />
    <glyph glyph-name="uniF468" unicode="&#x42f;`" horiz-adv-x="416" 
d="M5 7q11 3 18 8.5t10.5 16t5 27t1.5 40.5v150q0 23 5 47.5t30 41.5q11 7 27 13t21 8v6q-11 2 -29 8t-28 11q-23 13 -28.5 30t-5.5 34v139q0 17 3 35t16 35q20 27 47 35t51 8h232v-700h-138v306h-19q-8 0 -18 -2t-18 -10q-9 -10 -9.5 -23t-0.5 -24v-164q0 -27 -4 -46.5
t-15 -36.5h-154v7zM243 602h-37q-13 0 -20.5 -5.5t-10.5 -10.5q-4 -7 -4.5 -19.5t-0.5 -15.5v-90q0 -9 4 -21.5t9 -18.5q7 -7 15 -8.5t16 -1.5h29v191zM67 778l244 109l37 -98l-263 -59z" />
    <glyph glyph-name="uniF46A" unicode="&#x430;`" horiz-adv-x="356" 
d="M223 0l-14 38q-5 -8 -13.5 -17.5t-17.5 -15.5q-14 -10 -29.5 -12.5t-28.5 -2.5q-20 0 -43 6.5t-40 30.5q-15 20 -18.5 44.5t-3.5 42.5v24q0 26 10 60t48 64q13 10 42 25t88 35v69q0 4 -0.5 13t-3.5 15q-4 8 -10.5 10.5t-12.5 2.5t-12.5 -2.5t-10.5 -10.5q-3 -6 -3.5 -15
t-0.5 -13v-46h-124v50q0 20 4 42t24 44q26 27 59 34t64 7q29 0 62.5 -6.5t60.5 -34.5q20 -21 26 -43.5t6 -48.5v-389h-108zM203 248q-14 -5 -27.5 -15.5t-21.5 -24.5q-8 -13 -9.5 -27.5t-1.5 -27.5v-30q0 -18 1.5 -25.5t3.5 -11.5q4 -7 10.5 -11.5t14.5 -4.5q6 0 13 3t12 12
q2 3 3.5 11.5t1.5 30.5v121zM70 593l148 148l68 -80l-181 -115z" />
    <glyph glyph-name="uniF46B" unicode="&#x435;`" horiz-adv-x="360" 
d="M335 117q0 -31 -10.5 -52t-21.5 -33q-26 -28 -58.5 -35t-64.5 -7q-31 0 -59.5 7t-54.5 33q-26 27 -33.5 58t-7.5 60v210q0 27 5 59.5t30 59.5q20 21 51.5 33t67.5 12q38 0 68.5 -12t50.5 -33q15 -15 22.5 -30t10.5 -30t3.5 -30t0.5 -29v-130h-182v-114q0 -8 2.5 -13.5
t4.5 -7.5q5 -7 11 -8t11 -1q8 0 13 1t10 8q5 6 5.5 12t0.5 12v43h124v-43zM207 391q0 11 -1.5 17t-3.5 9q-5 8 -11.5 9.5t-11.5 1.5q-3 0 -9.5 -1.5t-11.5 -9.5q-2 -4 -3.5 -10t-1.5 -17v-82h54v83zM72 593l148 148l68 -80l-181 -115z" />
    <glyph glyph-name="uniF46C" unicode="&#x438;`" horiz-adv-x="370" 
d="M212 0v163l3 57l-57 -101v-119h-128v512h128v-152l-3 -48l57 94v106h128v-512h-128zM77 593l148 148l68 -80l-181 -115z" />
    <glyph glyph-name="uniF46D" unicode="&#x43e;`" horiz-adv-x="360" 
d="M153 122v-13t5 -14q7 -11 22 -11t22 11q5 7 5 14v13v268v13t-5 14q-7 11 -22 11t-22 -11q-5 -7 -5 -14v-13v-268zM335 137q0 -24 -5.5 -52.5t-28.5 -52.5q-15 -16 -44 -29t-77 -13t-77 13t-44 29q-23 24 -28.5 52.5t-5.5 52.5v238q0 24 5.5 52.5t28.5 52.5q15 16 44 29
t77 13t77 -13t44 -29q23 -24 28.5 -52.5t5.5 -52.5v-238zM72 593l148 148l68 -80l-181 -115z" />
    <glyph glyph-name="uniF46E" unicode="&#x443;`" horiz-adv-x="348" 
d="M19 -58h52q12 0 26 3.5t23 20.5q7 13 6 28t-4 27l-118 491h128l44 -270h4l36 270h128l-103 -538q-5 -26 -13.5 -46.5t-29.5 -40.5q-26 -26 -51 -30.5t-56 -4.5h-72v90zM66 593l148 148l68 -80l-181 -115z" />
    <glyph glyph-name="uniF46F" unicode="&#x44b;`" horiz-adv-x="534" 
d="M376 0v512h128v-512h-128zM30 512h128v-163h71q17 0 42 -4.5t46 -24.5q23 -21 26 -47t3 -55v-109q0 -20 -2.5 -34t-7.5 -24t-12 -16.5t-15 -12.5q-27 -19 -48.5 -20.5t-42.5 -1.5h-188v512zM182 90q12 0 19 4t10 9q2 3 4.5 11t2.5 29v62q0 20 -1.5 28t-3.5 10
q-5 10 -13 13t-16 3h-26v-169h24zM159 593l148 148l68 -80l-181 -115z" />
    <glyph glyph-name="uniF470" unicode="&#x44d;`" horiz-adv-x="355" 
d="M330 131q0 -15 -1 -31t-6 -31.5t-15.5 -29.5t-28.5 -26q-5 -3 -30 -13t-74 -10q-4 0 -16 0.5t-27 3t-31.5 8t-29.5 14.5q-20 14 -35.5 39t-15.5 68v62h124v-59q0 -15 2 -21.5t3 -8.5q5 -9 12 -10.5t12 -1.5q6 0 12 1.5t11 9.5q2 4 4 11t2 21v108h-119v84h119v71
q0 13 -1.5 19t-3.5 8q-8 11 -24 11q-17 0 -24 -11q-4 -5 -4.5 -13t-0.5 -14v-23h-120v28q0 10 2 23.5t7.5 27t16 27t28.5 24.5q20 13 46 19t52 6q28 0 55 -6t47 -20q33 -22 42.5 -50t9.5 -63v-252zM69 593l148 148l68 -80l-181 -115z" />
    <glyph glyph-name="uniF471" unicode="&#x44e;`" horiz-adv-x="540" 
d="M515 127q0 -23 -4.5 -47.5t-29.5 -49.5q-15 -14 -43 -27t-75 -13t-75 13t-43 27q-13 12 -20 24.5t-10 24.5t-3.5 24t-0.5 24v104h-65v-231h-116v500h116v-179h65v64q0 12 0.5 24t3.5 24t10 24.5t20 24.5q15 14 43 27t75 13t75 -13t43 -27q25 -25 29.5 -49.5t4.5 -47.5
v-258zM327 129q0 -19 5 -29q6 -11 15 -13.5t16 -2.5t16 2.5t15 13.5q5 10 5 29v254q0 19 -5 29q-6 11 -15 13.5t-16 2.5t-16 -2.5t-15 -13.5q-5 -10 -5 -29v-254zM162 593l148 148l68 -80l-181 -115z" />
    <glyph glyph-name="uniF472" unicode="&#x44f;`" horiz-adv-x="366" 
d="M208 0v201h-17q-12 0 -18 -5t-8.5 -12t-3 -15t-0.5 -14v-99q0 -26 -7.5 -38.5t-14.5 -17.5h-131v2q2 3 8.5 12t9.5 15q5 11 6 24t1 27v85q0 16 2.5 30.5t16.5 30.5q16 17 39 25q-13 5 -26 12t-21 15q-16 16 -19 34t-3 33v60q0 31 12.5 51t27.5 31q22 17 45.5 21t40.5 4
h188v-512h-128zM208 422h-19q-5 0 -14 -1.5t-15 -6.5q-5 -5 -7.5 -14t-2.5 -18v-31q0 -8 1 -17.5t4 -17.5q4 -10 11.5 -17.5t18.5 -7.5h23v131zM75 593l148 148l68 -80l-181 -115z" />
    <glyph glyph-name=".notdef" horiz-adv-x="233" 
 />
    <glyph glyph-name=".null" horiz-adv-x="0" 
 />
    <glyph glyph-name="nonmarkingreturn" horiz-adv-x="333" 
 />
    <glyph glyph-name="space" unicode=" " horiz-adv-x="233" 
 />
    <glyph glyph-name="space" unicode="&#xa0;" horiz-adv-x="233" 
 />
    <glyph glyph-name="exclam" unicode="!" horiz-adv-x="232" 
d="M82 193l-52 507h172l-52 -507h-68zM47 148h138v-148h-138v148z" />
    <glyph glyph-name="quotedbl" unicode="&#x22;" horiz-adv-x="358" 
d="M56 462l-26 126v112h119v-112l-26 -126h-67zM235 462l-26 126v112h119v-112l-26 -126h-67z" />
    <glyph glyph-name="numbersign" unicode="#" horiz-adv-x="612" 
d="M249 0l66 222h-104l-67 -222h-97l65 223h-107l28 89h105l36 120h-106l28 92h106l54 176h97l-53 -176h104l54 176h99l-55 -176h105l-28 -92h-105l-36 -120h107l-25 -89h-108l-65 -223h-98zM377 432h-105l-37 -120h105z" />
    <glyph glyph-name="dollar" unicode="$" horiz-adv-x="398" 
d="M163 222v-52q0 -29 2 -41.5t4 -17.5q5 -13 13 -18t19 -5q14 0 20.5 4t9.5 18q2 10 3 24t1 22v27q0 37 -10.5 56.5t-30.5 39.5l-95 91q-16 15 -29 34t-21 36q-14 29 -17 52.5t-3 50.5v27q0 31 12.5 57t28.5 42q14 14 33 24t43 14v67h110v-67q18 -5 37.5 -14t35.5 -24
t24.5 -31t13 -32t5.5 -31t1 -27v-58h-134v42q0 28 -1 43t-6 23q-2 4 -9 9t-19 5q-17 0 -27 -13q-8 -10 -9 -19t-1 -21v-16q0 -31 14 -51.5t28 -34.5l80 -77q16 -16 31.5 -30.5t27 -34.5t18.5 -48t7 -70v-40q0 -14 -0.5 -29.5t-4.5 -32t-13 -33t-25 -32.5
q-19 -18 -38.5 -24.5t-35.5 -8.5v-73h-110v73q-29 6 -57 25q-24 17 -37 36.5t-19 38.5t-7 37.5t-1 33.5v54h138z" />
    <glyph glyph-name="percent" unicode="%" horiz-adv-x="703" 
d="M281 496q0 -24 -2.5 -50t-23.5 -49q-18 -20 -46.5 -29.5t-57.5 -9.5t-57.5 9.5t-46.5 29.5q-22 24 -24.5 49t-2.5 50v66q0 25 2.5 50t24.5 49q18 20 46.5 29.5t57.5 9.5t57.5 -9.5t46.5 -29.5q21 -23 23.5 -49t2.5 -50v-66zM121 471q0 -7 0.5 -14.5t4.5 -13.5
q7 -12 25 -12q15 0 24 12q5 8 5.5 14.5t0.5 13.5v116q0 7 -0.5 13.5t-5.5 14.5q-9 12 -24 12q-18 0 -25 -12q-4 -6 -4.5 -13.5t-0.5 -14.5v-116zM156 0l300 700h90l-301 -700h-89zM683 139q0 -25 -2.5 -50t-24.5 -49q-18 -20 -46.5 -29.5t-57.5 -9.5t-57.5 9.5t-46.5 29.5
q-21 23 -23.5 49t-2.5 50v66q0 24 2.5 50t23.5 49q18 20 46.5 29.5t57.5 9.5t57.5 -9.5t46.5 -29.5q22 -24 24.5 -49t2.5 -50v-66zM522 114q0 -7 0.5 -13.5t5.5 -14.5q9 -12 24 -12q18 0 25 12q4 6 4.5 13.5t0.5 14.5v116q0 7 -0.5 14.5t-4.5 13.5q-7 12 -25 12
q-15 0 -24 -12q-5 -8 -5.5 -14.5t-0.5 -13.5v-116z" />
    <glyph glyph-name="ampersand" unicode="&#x26;" horiz-adv-x="512" 
d="M362 0l-17 28q-14 -17 -33.5 -22.5t-50.5 -5.5h-78q-14 0 -30 0.5t-32.5 4t-32.5 11.5t-30 24q-22 24 -27.5 52t-5.5 56v60q0 16 1.5 30.5t6 28.5t13 29t22.5 32l43 51l-36 58q-17 27 -28 62t-11 61v24q0 24 8.5 49t36.5 45q31 23 68.5 27.5t63.5 4.5q28 0 63.5 -5
t64.5 -30q28 -23 35 -49.5t7 -43.5v-32q0 -27 -4 -47.5t-10 -35.5t-13.5 -26t-13.5 -19l-52 -66l52 -89v84h129v-120q0 -25 -4 -45t-9 -34.5t-10 -23.5t-7 -12l66 -116h-145zM189 266l-15 -19q-7 -8 -9 -20.5t-2 -35.5v-33q0 -26 13 -43t38 -17h20q31 0 43 31zM225 482
q11 16 15.5 28.5t4.5 32.5v28q0 8 -1.5 16.5t-7.5 15.5q-5 6 -11.5 7.5t-11.5 1.5q-7 0 -14.5 -1t-14.5 -8q-8 -7 -9 -14.5t-1 -15.5v-23q0 -15 6.5 -28.5t8.5 -18.5l23 -41z" />
    <glyph glyph-name="quotesingle" unicode="'" horiz-adv-x="179" 
d="M56 462l-26 126v112h119v-112l-26 -126h-67z" />
    <glyph glyph-name="parenleft" unicode="(" horiz-adv-x="247" 
d="M237 -160q-41 -3 -84.5 10t-74.5 49q-30 35 -38 74t-8 70v463q0 32 8 70.5t38 73.5l15.5 15.5t31 22t47.5 18t65 4.5v-75q-25 -1 -42 -11.5t-25 -21.5t-11.5 -34t-3.5 -70v-436q0 -51 3 -75.5t12 -38.5q8 -11 25 -21.5t42 -11.5v-75z" />
    <glyph glyph-name="parenright" unicode=")" horiz-adv-x="247" 
d="M10 -85q25 1 42 11.5t25 21.5q9 14 12 38.5t3 75.5v436q0 47 -4 70t-11 34q-8 11 -25 21.5t-42 11.5v75q37 3 65 -4.5t47.5 -18t31 -22l15.5 -15.5q30 -35 38 -73.5t8 -70.5v-463q0 -31 -8 -70t-38 -74q-31 -36 -74.5 -49t-84.5 -10v75z" />
    <glyph glyph-name="asterisk" unicode="*" horiz-adv-x="336" 
d="M188 602l94 48l24 -72l-105 -12l77 -69l-65 -43l-45 89l-46 -89l-64 44l77 68l-105 13l25 71l93 -48l-20 98h77z" />
    <glyph glyph-name="plus" unicode="+" horiz-adv-x="572" 
d="M248 314h-208v76h208v208h76v-208h208v-76h-208v-208h-76v208z" />
    <glyph glyph-name="comma" unicode="," horiz-adv-x="216" 
d="M16 -132l88 132h-66v148h148v-148l-87 -132h-83z" />
    <glyph glyph-name="hyphen" unicode="-" horiz-adv-x="248" 
d="M10 298h228v-83h-228v83z" />
    <glyph glyph-name="period" unicode="." horiz-adv-x="198" 
d="M30 148h138v-148h-138v148z" />
    <glyph glyph-name="slash" unicode="/" horiz-adv-x="470" 
d="M5 -160l353 860h107l-353 -860h-107z" />
    <glyph glyph-name="zero" unicode="0" horiz-adv-x="420" 
d="M388 158q0 -31 -6.5 -54.5t-15.5 -40t-19.5 -27t-18.5 -16.5q-26 -20 -57.5 -25t-60.5 -5t-60.5 5t-57.5 25q-8 6 -18.5 16.5t-19.5 27t-15.5 40t-6.5 54.5v369q0 18 1.5 36.5t6.5 36.5t14.5 34.5t25.5 31.5q23 22 57.5 33t72.5 11t72.5 -11t57.5 -33q31 -29 39.5 -66
t8.5 -73v-369zM170 150q0 -11 1.5 -23t7.5 -23q6 -10 13 -13t18 -3t18 3t13 13q6 11 7.5 23t1.5 23v397q0 22 -2 31.5t-4 13.5q-3 7 -11 13.5t-23 6.5t-23 -6.5t-11 -13.5q-2 -4 -4 -13.5t-2 -31.5v-397z" />
    <glyph glyph-name="one" unicode="1" horiz-adv-x="295" 
d="M122 0v446q-7 -9 -24 -24.5t-48 -27.5l-47 70q23 20 49 49.5t44 60.5q17 29 29.5 63t19.5 63h115v-700h-138z" />
    <glyph glyph-name="two" unicode="2" horiz-adv-x="406" 
d="M20 0q-5 67 9.5 114t33.5 79q17 29 34.5 52t40.5 46q17 18 31.5 33t26.5 31q3 4 10.5 15.5t16 27.5t14.5 36t6 41v48q0 30 -2 41.5t-4 16.5q-3 7 -11 14t-24 7q-12 0 -19 -5.5t-12 -15.5q-6 -12 -7 -27t-1 -33v-72h-138v63q0 9 0.5 22.5t2.5 28.5t5.5 30t9.5 27
q7 14 20 28t32.5 25.5t46 19t60.5 7.5q37 0 63.5 -7.5t45 -19t29.5 -24.5t17 -23q12 -20 18 -49t6 -54v-34q0 -28 -2 -57.5t-12 -57.5q-10 -29 -27.5 -54.5t-36.5 -45.5q-14 -14 -28 -27t-29 -26q-11 -10 -21.5 -19t-20.5 -20q-20 -20 -28.5 -39t-8.5 -45h205v-98h-352z" />
    <glyph glyph-name="three" unicode="3" horiz-adv-x="408" 
d="M158 230v-58q0 -27 2 -40t5 -21q9 -23 35 -23q12 0 21 4.5t14 17.5q2 5 3.5 16t1.5 38v95q0 12 -0.5 26.5t-9.5 25.5q-15 18 -51 18h-30v98h33q20 0 31 7.5t16 17t5.5 18.5t0.5 13v68q0 11 -1.5 25t-4.5 20t-11 11t-19 5q-10 0 -17.5 -4.5t-11.5 -10.5q-4 -7 -5.5 -20.5
t-1.5 -22.5v-49h-138v45q0 23 4.5 49t22.5 51q14 19 34 31t40.5 18.5t40 8.5t33.5 2q13 0 32 -1.5t39.5 -7t40 -16.5t34.5 -30q19 -24 23 -48.5t4 -41.5v-55q0 -37 -3.5 -61t-20.5 -46q-14 -18 -34 -28q27 -11 37.5 -31.5t15.5 -37.5q7 -26 8.5 -48t1.5 -42v-57
q0 -22 -2.5 -48.5t-19.5 -54.5q-23 -38 -64 -52t-93 -14q-48 0 -88.5 13.5t-63.5 48.5q-14 22 -20.5 49t-6.5 50v79h138z" />
    <glyph glyph-name="four" unicode="4" horiz-adv-x="407" 
d="M199 0v128h-189v93l204 479h123v-478h55v-94h-55v-128h-138zM199 460l-92 -238h92v238z" />
    <glyph glyph-name="five" unicode="5" horiz-adv-x="406" 
d="M163 203v-53q0 -11 1.5 -22t6.5 -21q10 -19 32 -19q8 0 17.5 2.5t15.5 13.5q5 8 6 21t1 24v155q0 12 -1.5 24t-6.5 22q-10 17 -32 17q-8 0 -16.5 -3.5t-14.5 -14.5q-2 -3 -4.5 -11.5t-2.5 -23.5v-20h-119v406h311v-94h-192v-191q8 11 15.5 17.5t17.5 12.5q16 9 30.5 12.5
t33.5 3.5q33 0 53 -11t31 -23q23 -26 29 -64t6 -79v-122q0 -26 -3 -51.5t-16 -48.5q-17 -30 -53 -51t-102 -21q-37 0 -63 6.5t-44.5 17t-30 24t-19.5 27.5q-14 23 -19.5 48t-5.5 59v31h138z" />
    <glyph glyph-name="six" unicode="6" horiz-adv-x="418" 
d="M388 162q0 -26 -3 -51.5t-16 -48.5q-16 -29 -52.5 -50.5t-105.5 -21.5q-39 0 -65.5 8t-44 19t-27.5 24t-16 24q-20 34 -23 68.5t-3 85.5v290q0 38 5 77.5t31 69.5q16 18 37 29t41 16.5t37.5 7t26.5 1.5q42 0 79 -13t59 -38q13 -14 20 -30t10 -31.5t3.5 -29.5t0.5 -26v-47
h-138v51q0 22 -1.5 32.5t-4.5 16.5q-6 12 -14.5 14.5t-16.5 2.5t-16 -2.5t-14 -14.5q-5 -11 -6 -23t-1 -26v-166q6 7 14 13.5t16 11.5q14 8 32 12t34 4q35 0 55.5 -11.5t31.5 -22.5q25 -27 30 -63.5t5 -72.5v-89zM170 150q0 -8 1.5 -21.5t4.5 -21.5q5 -12 14 -15.5t20 -3.5
q8 0 17 2.5t15 13.5q5 8 6.5 22t1.5 24v99q0 23 -3 33t-5 13q-6 11 -14.5 14t-17.5 3t-17.5 -3.5t-14.5 -12.5q-7 -11 -7.5 -24t-0.5 -27v-95z" />
    <glyph glyph-name="seven" unicode="7" horiz-adv-x="329" 
d="M61 0q-2 86 5 144.5t14 93.5q14 73 35 140.5t41 115.5q11 26 26.5 55.5t28.5 52.5h-196v98h304v-102q-12 -23 -23.5 -49t-19.5 -50q-11 -32 -21.5 -70.5t-19 -79.5t-15 -82t-10.5 -76q-6 -47 -9 -93.5t-2 -97.5h-138z" />
    <glyph glyph-name="eight" unicode="8" horiz-adv-x="406" 
d="M381 153q0 -31 -8.5 -57.5t-22.5 -46.5q-25 -36 -61 -47.5t-84 -11.5q-52 0 -88 11.5t-61 47.5q-14 20 -22.5 46.5t-8.5 57.5v99q0 20 3.5 40t11.5 36q6 13 17.5 27t28.5 25q-14 12 -27 27q-20 25 -23.5 47t-3.5 35v66q0 31 8 63t42 58q29 22 62 28t59 6t59 -6t62 -28
q34 -26 42 -58t8 -63v-66q0 -13 -3.5 -35t-23.5 -47q-14 -15 -27 -27q17 -11 28.5 -25t17.5 -27q8 -16 11.5 -36t3.5 -40v-99zM163 151q0 -11 2 -24.5t7 -21.5q10 -17 31 -17t31 17q5 8 7 21.5t2 24.5v93q0 29 -3 42t-5 19q-10 22 -32 27q-22 -5 -32 -27q-2 -6 -5 -19
t-3 -42v-93zM167 482q0 -20 7 -35q5 -9 11 -13t18 -4t18 4t11 13q7 15 7 35v81q0 8 -1.5 18t-4.5 16t-10.5 10.5t-19.5 4.5q-19 0 -29 -15q-5 -8 -6 -17t-1 -17v-81z" />
    <glyph glyph-name="nine" unicode="9" horiz-adv-x="413" 
d="M381 177q0 -29 -3.5 -60t-17.5 -56t-34 -39t-41 -21t-41.5 -9t-35.5 -2t-35.5 1.5t-42 7.5t-41.5 18.5t-35 35.5q-18 28 -21.5 53t-3.5 46v47h138v-63q0 -8 1 -17.5t7 -17.5t14 -10.5t16 -2.5q14 0 21 4t10 9q5 7 6 16.5t1 18.5v162q-23 -26 -49.5 -32t-51.5 -6
q-19 0 -39 5.5t-39 22.5q-26 23 -32.5 53t-6.5 73v133q0 12 1 27.5t5.5 32t13.5 33t25 30.5t33.5 22t35 12t34 5t29.5 1q31 0 65.5 -6t64.5 -31q17 -15 27 -31.5t15 -35.5t6 -39t1 -42v-348zM243 564q0 9 -0.5 17.5t-6.5 16.5q-7 10 -16 12t-17 2t-16.5 -2.5t-15.5 -11.5
q-5 -8 -6.5 -17t-1.5 -17v-142q0 -8 1.5 -17.5t6.5 -16.5q3 -5 10.5 -10t21.5 -5q23 0 33 17q5 8 6 17.5t1 14.5v142z" />
    <glyph glyph-name="colon" unicode=":" horiz-adv-x="198" 
d="M30 148h138v-148h-138v148zM30 512h138v-148h-138v148z" />
    <glyph glyph-name="semicolon" unicode=";" horiz-adv-x="206" 
d="M38 512h138v-148h-138v148zM16 -132l88 132h-66v148h138v-148l-87 -132h-73z" />
    <glyph glyph-name="semicolon" unicode="&#x37e;" horiz-adv-x="206" 
d="M38 512h138v-148h-138v148zM16 -132l88 132h-66v148h138v-148l-87 -132h-73z" />
    <glyph glyph-name="less" unicode="&#x3c;" horiz-adv-x="420" 
d="M380 136l-340 179v60l340 179v-76l-257 -133l257 -133v-76z" />
    <glyph glyph-name="equal" unicode="=" horiz-adv-x="572" 
d="M40 457h492v-76h-492v76zM40 310h492v-76h-492v76z" />
    <glyph glyph-name="greater" unicode="&#x3e;" horiz-adv-x="420" 
d="M40 212l257 133l-257 133v76l340 -179v-60l-340 -179v76z" />
    <glyph glyph-name="question" unicode="?" horiz-adv-x="380" 
d="M114 193v68q0 21 4 38t11 31t15.5 26t16.5 24l50 72q12 18 14 35t2 35v49q0 6 -1 15.5t-4 15.5q-5 11 -14.5 13.5t-16.5 2.5q-8 0 -16 -2.5t-15 -13.5q-5 -9 -6 -21t-1 -23v-71h-138v66q0 39 11 67t27 45q13 14 45.5 29.5t94.5 15.5q12 0 30 -1t38 -6t39.5 -15.5
t34.5 -28.5q19 -23 24.5 -51t5.5 -51v-45q0 -24 -4 -45.5t-18 -43.5q-6 -9 -11.5 -16t-11.5 -14t-14 -16t-18 -22q-33 -45 -42 -72.5t-9 -45.5v-44h-123zM107 148h137v-148h-137v148z" />
    <glyph glyph-name="at" unicode="@" horiz-adv-x="625" 
d="M190 0q-20 0 -50.5 6.5t-55.5 23.5q-18 12 -28.5 25.5t-15.5 26.5t-6.5 25.5t-1.5 22.5v423q0 30 9 58t38 51q24 19 58 28.5t63 9.5h255q43 0 67.5 -15t34.5 -25t23 -32t13 -65v-311q0 -22 -7 -45t-18 -39q-13 -17 -33 -27.5t-53 -10.5h-69q-7 0 -15.5 0.5t-16.5 4.5
t-15 12t-11 23q-4 -12 -10 -19.5t-13 -12.5q-13 -11 -25 -14.5t-32 -3.5q-23 0 -41.5 7t-31.5 29q-11 18 -12 36t-1 31v259q0 16 4 33.5t12 29.5q11 17 30 25.5t42 8.5q21 0 47 -18q10 -7 16.5 -14.5t11.5 -16.5v41h94v-357q0 -11 8.5 -16.5t19.5 -5.5q9 0 21 8t12 31v318
q0 32 -10 48t-18 22q-12 9 -34.5 12.5t-37.5 3.5h-188q-42 0 -61.5 -14.5t-25.5 -24.5q-11 -17 -12.5 -39t-1.5 -38v-362q0 -19 4.5 -37t26.5 -34q15 -11 36.5 -16t39.5 -5h368v-65h-403zM282 244q0 -6 1 -15.5t3 -15.5q2 -7 8.5 -12.5t17.5 -5.5q8 0 17 4.5t14 15.5
q7 15 7 42v186q0 32 -6 42q-3 5 -9.5 10.5t-19.5 5.5q-5 0 -11 -1t-12 -6q-7 -6 -8.5 -13t-1.5 -14v-223z" />
    <glyph glyph-name="A" unicode="A" horiz-adv-x="384" 
d="M231 0l-8 89h-62l-8 -89h-143l67 700h232l65 -700h-143zM219 187l-24 406h-4l-26 -406h54z" />
    <glyph glyph-name="B" unicode="B" horiz-adv-x="406" 
d="M30 700h246q19 0 41 -6t42 -31q16 -21 19.5 -43t3.5 -42v-87q0 -14 -2.5 -35t-12.5 -37q-8 -12 -20.5 -20.5t-24.5 -12.5q19 -5 30 -14t17 -17q14 -20 15.5 -39t1.5 -37v-156q0 -17 -3.5 -37t-17.5 -40q-22 -30 -51.5 -38t-53.5 -8h-230v700zM211 98q8 0 18 3.5t15 17.5
q1 2 2.5 12t1.5 41v93q0 30 -8 45q-3 5 -11.5 13t-25.5 8h-35v-233h43zM205 429q11 0 19 6t12 12q6 11 7 23t1 20v66q0 7 -1.5 16.5t-7.5 17.5q-5 6 -14 9t-17 3h-36v-173h37z" />
    <glyph glyph-name="C" unicode="C" horiz-adv-x="405" 
d="M242 479v70q0 7 -1 17.5t-3 17.5q-5 14 -14 17.5t-18 3.5t-18 -3.5t-14 -17.5q-2 -7 -3 -17.5t-1 -17.5v-398q0 -6 1 -17t3 -18q5 -14 15 -17.5t17 -3.5t17 3.5t15 17.5q2 7 3 18t1 17v110h138v-107q0 -33 -7.5 -64t-38.5 -59q-29 -26 -64 -33.5t-64 -7.5q-51 0 -81 13
t-47 28q-29 27 -37.5 59t-8.5 64v392q0 32 8.5 64t37.5 59q17 15 47 28t81 13q29 0 64 -7.5t64 -33.5q31 -28 38.5 -59t7.5 -64v-67h-138z" />
    <glyph glyph-name="D" unicode="D" horiz-adv-x="415" 
d="M35 700h218q29 0 52.5 -10t38.5 -24q26 -26 32.5 -60.5t6.5 -63.5v-374q0 -27 -7.5 -60.5t-34.5 -63.5q-27 -29 -56 -36.5t-59 -7.5h-191v700zM201 95q9 0 16 3.5t11.5 8t7 9t2.5 5.5q5 11 6 22.5t1 23.5v372q0 12 -0.5 24t-6.5 22q-7 12 -15.5 14.5t-16.5 2.5h-33v-507
h28z" />
    <glyph glyph-name="E" unicode="E" horiz-adv-x="369" 
d="M35 700h313v-98h-175v-168h132v-98h-132v-238h191v-98h-329v700z" />
    <glyph glyph-name="F" unicode="F" horiz-adv-x="339" 
d="M35 0v700h301v-98h-163v-178h129v-98h-129v-326h-138z" />
    <glyph glyph-name="G" unicode="G" horiz-adv-x="412" 
d="M242 479v70q0 7 -1 17.5t-3 17.5q-5 14 -14 17.5t-18 3.5t-18 -3.5t-14 -17.5q-2 -7 -3 -17.5t-1 -17.5v-398q0 -6 1 -17t3 -18q5 -14 15 -17.5t17 -3.5t17 3.5t15 17.5q2 7 3 18t1 17v94h-40v94h178v-185q0 -33 -7.5 -64t-38.5 -59q-29 -26 -64 -33.5t-64 -7.5
q-51 0 -81 13t-47 28q-29 27 -37.5 59t-8.5 64v392q0 32 8.5 64t37.5 59q17 15 47 28t81 13q29 0 64 -7.5t64 -33.5q31 -28 38.5 -59t7.5 -64v-67h-138z" />
    <glyph glyph-name="H" unicode="H" horiz-adv-x="418" 
d="M173 336v-336h-138v700h138v-269h72v269h138v-700h-138v336h-72z" />
    <glyph glyph-name="I" unicode="I" horiz-adv-x="208" 
d="M35 700h138v-700h-138v700z" />
    <glyph glyph-name="J" unicode="J" horiz-adv-x="285" 
d="M5 98h56q10 0 24 0.5t21 10.5q2 2 4 9t2 24v558h138v-567q0 -20 -3.5 -42t-17.5 -42q-12 -16 -27 -25.5t-31 -15t-31.5 -7t-27.5 -1.5h-107v98z" />
    <glyph glyph-name="K" unicode="K" horiz-adv-x="403" 
d="M35 0v700h138v-297h5l75 297h136l-92 -331l96 -369h-140l-75 338h-5v-338h-138z" />
    <glyph glyph-name="L" unicode="L" horiz-adv-x="364" 
d="M35 0v700h138v-602h186v-98h-324z" />
    <glyph glyph-name="M" unicode="M" horiz-adv-x="564" 
d="M243 0l-72 347h-4l6 -93v-254h-138v700h170l75 -401h4l75 401h170v-700h-138v254l6 93h-4l-72 -347h-78z" />
    <glyph glyph-name="N" unicode="N" horiz-adv-x="414" 
d="M257 0l-98 363h-3l7 -80v-283h-128v700h122l98 -375h4l-8 74v301h128v-700h-122z" />
    <glyph glyph-name="O" unicode="O" horiz-adv-x="412" 
d="M380 154q0 -33 -7.5 -64t-38.5 -59q-29 -26 -64 -33.5t-64 -7.5q-51 0 -81 13t-47 28q-29 27 -37.5 59t-8.5 64v392q0 32 8.5 64t37.5 59q17 15 47 28t81 13q29 0 64 -7.5t64 -33.5q31 -28 38.5 -59t7.5 -64v-392zM242 549q0 7 -1 17.5t-3 17.5q-5 14 -14 17.5t-18 3.5
t-18 -3.5t-14 -17.5q-2 -7 -3 -17.5t-1 -17.5v-398q0 -6 1 -17t3 -18q5 -14 15 -17.5t17 -3.5t17 3.5t15 17.5q2 7 3 18t1 17v398z" />
    <glyph glyph-name="P" unicode="P" horiz-adv-x="398" 
d="M35 0v700h209q38 0 67 -12t45 -30q10 -12 16 -26.5t8 -29.5t2.5 -29t0.5 -26v-105q0 -12 -0.5 -27t-3 -30.5t-8 -31t-16.5 -27.5q-12 -13 -26.5 -20t-30 -11t-31.5 -5t-29 -1q-19 -1 -33 -0.5t-32 5.5v-294h-138zM207 392q11 0 19.5 4t13.5 16q2 4 3.5 14t1.5 35v79
q0 20 -2 30.5t-6 16.5t-11 10.5t-17 4.5h-36v-210h34z" />
    <glyph glyph-name="Q" unicode="Q" horiz-adv-x="412" 
d="M260 -15q0 -4 1 -12t3 -12q4 -5 12 -6t12 -1h75v-94h-116q-11 0 -21.5 -0.5t-20 1.5t-19 7.5t-16.5 16.5q-10 14 -10.5 31t-0.5 34v44q-18 3 -40 11.5t-41 25.5q-29 27 -37.5 59t-8.5 64v392q0 32 8.5 64t37.5 59q17 15 47 28t81 13q29 0 64 -7.5t64 -33.5
q31 -28 38.5 -59t7.5 -64v-392q0 -32 -7.5 -63.5t-38.5 -59.5q-20 -17 -41 -25t-33 -11v-10zM242 549q0 7 -1 17.5t-3 17.5q-5 14 -14 17.5t-18 3.5t-18 -3.5t-14 -17.5q-2 -7 -3 -17.5t-1 -17.5v-398q0 -6 1 -17t3 -18q5 -14 15 -17.5t17 -3.5t17 3.5t15 17.5q2 7 3 18
t1 17v398z" />
    <glyph glyph-name="R" unicode="R" horiz-adv-x="422" 
d="M258 0q-7 11 -13 29.5t-6 53.5v167q0 9 -1 23t-9 22q-5 5 -15.5 8t-20.5 3h-19v-306h-139l1 700h232q9 0 21 -1.5t25.5 -6t27 -13t24.5 -23.5q13 -17 16 -34t3 -35v-142q0 -14 -5.5 -31t-28.5 -30q-10 -5 -28 -11t-29 -8v-6q5 -2 21 -8t27 -13q14 -10 21.5 -22t10.5 -24
t3 -23v-20v-150q0 -24 1 -40.5t5 -27t11 -16t18 -8.5v-7h-154zM203 411q9 0 16.5 1.5t14.5 8.5q11 11 12 23t1 22v81q0 17 -2 25t-4 12q-7 14 -15.5 16t-18.5 2h-33v-191h29z" />
    <glyph glyph-name="S" unicode="S" horiz-adv-x="388" 
d="M158 222v-52q0 -29 2 -41.5t4 -17.5q4 -9 11.5 -16t21.5 -7q12 0 19 6t10 15q1 4 2 11t1.5 14.5t0.5 13.5v8v27q0 37 -10.5 56.5t-30.5 39.5l-95 91q-14 14 -27 30t-21 32q-15 29 -18.5 57.5t-3.5 53.5v27q0 31 12.5 57t28.5 42q15 15 32.5 23t35.5 12t34.5 5t28.5 1
q31 0 65.5 -7.5t62.5 -33.5q33 -31 38.5 -65.5t5.5 -70.5v-43h-134v42q0 28 -1 43t-6 23q-2 4 -9 9t-19 5q-17 0 -27 -13q-8 -10 -9 -19t-1 -21v-16q0 -31 14 -51.5t28 -34.5l80 -77q16 -16 31.5 -30.5t27 -34.5t18.5 -48t7 -70v-40q0 -15 -0.5 -30.5t-4.5 -31.5t-13 -32.5
t-25 -32.5q-25 -24 -54.5 -32t-65.5 -8q-26 0 -57.5 6t-61.5 26q-22 15 -35 32t-20 36t-9 38.5t-2 39.5v54h138z" />
    <glyph glyph-name="T" unicode="T" horiz-adv-x="320" 
d="M91 0v602h-86v98h310v-98h-86v-602h-138z" />
    <glyph glyph-name="U" unicode="U" horiz-adv-x="414" 
d="M381 154q0 -33 -9 -68t-46 -63q-16 -12 -34.5 -18.5t-35.5 -10t-30.5 -4t-18.5 -0.5q-6 0 -19.5 0.5t-30 4t-34.5 10t-34 18.5q-36 27 -46 62.5t-10 69.5v545h138v-550q0 -20 2 -29.5t4 -14.5q5 -11 12 -14.5t18 -3.5t18 3.5t12 14.5q2 5 4 14.5t2 29.5v550h138v-546z
" />
    <glyph glyph-name="V" unicode="V" horiz-adv-x="400" 
d="M111 0l-107 700h142l54 -454l54 454h142l-106 -700h-179z" />
    <glyph glyph-name="W" unicode="W" horiz-adv-x="562" 
d="M319 0l-38 345l-38 -345h-167l-66 700h138l30 -412v-40h7l5 55l60 397h62l60 -397l5 -55h7v40l30 412h138l-66 -700h-167z" />
    <glyph glyph-name="X" unicode="X" horiz-adv-x="416" 
d="M261 0l-44 158l-7 41h-4l-7 -41l-44 -158h-145l128 377l-106 323h134l40 -145h4l40 145h134l-106 -322l128 -378h-145z" />
    <glyph glyph-name="Y" unicode="Y" horiz-adv-x="396" 
d="M129 0v308l-119 392h138l50 -218l5 28l45 190h138l-119 -392v-308h-138z" />
    <glyph glyph-name="Z" unicode="Z" horiz-adv-x="367" 
d="M15 0v110l200 492h-165v98h297v-103l-200 -499h200v-98h-332z" />
    <glyph glyph-name="bracketleft" unicode="[" horiz-adv-x="285" 
d="M35 -150v850h240v-94h-117v-662h117v-94h-240z" />
    <glyph glyph-name="backslash" unicode="\" horiz-adv-x="470" 
d="M5 700h107l353 -860h-107z" />
    <glyph glyph-name="bracketright" unicode="]" horiz-adv-x="285" 
d="M10 -56h117v662h-117v94h240v-850h-240v94z" />
    <glyph glyph-name="asciicircum" unicode="^" horiz-adv-x="474" 
d="M10 475l227 225l227 -225v-84l-227 184l-227 -184v84z" />
    <glyph glyph-name="underscore" unicode="_" horiz-adv-x="492" 
d="M0 391h492v-76h-492v76z" />
    <glyph glyph-name="grave" unicode="`" 
d="M62 661l68 80l148 -148l-35 -47z" />
    <glyph glyph-name="a" unicode="a" horiz-adv-x="356" 
d="M223 0l-14 38q-5 -8 -13.5 -17.5t-17.5 -15.5q-14 -10 -29.5 -12.5t-28.5 -2.5q-20 0 -43 6.5t-40 30.5q-15 20 -18.5 44.5t-3.5 42.5v24q0 26 10 60t48 64q13 10 42 25t88 35v69q0 4 -0.5 13t-3.5 15q-4 8 -10.5 10.5t-12.5 2.5t-12.5 -2.5t-10.5 -10.5q-3 -6 -3.5 -15
t-0.5 -13v-46h-124v50q0 20 4 42t24 44q26 27 59 34t64 7q29 0 62.5 -6.5t60.5 -34.5q20 -21 26 -43.5t6 -48.5v-389h-108zM203 248q-14 -5 -27.5 -15.5t-21.5 -24.5q-8 -13 -9.5 -27.5t-1.5 -27.5v-30q0 -18 1.5 -25.5t3.5 -11.5q4 -7 10.5 -11.5t14.5 -4.5q6 0 13 3t12 12
q2 3 3.5 11.5t1.5 30.5v121z" />
    <glyph glyph-name="b" unicode="b" horiz-adv-x="365" 
d="M158 456q5 9 13 20t16 19q13 12 29.5 19.5t37.5 7.5q26 0 41.5 -10.5t23.5 -20.5q14 -18 17.5 -38t3.5 -41v-306q0 -22 -4.5 -48t-26.5 -46q-12 -11 -29 -16.5t-34 -5.5q-27 0 -50 18q-6 5 -12 12t-11 13l-22 -33h-121v700h128v-244zM158 138q0 -12 0.5 -25.5t8.5 -24.5
t19 -11q15 0 21 13q2 5 3.5 14t1.5 32v239q0 7 -0.5 21t-2.5 22q-1 5 -5.5 12t-15.5 7q-13 0 -18 -11t-7 -16q-2 -10 -3.5 -21.5t-1.5 -28.5v-222z" />
    <glyph glyph-name="c" unicode="c" horiz-adv-x="351" 
d="M331 154q0 -43 -3.5 -65t-9.5 -34q-11 -22 -28 -35t-36.5 -19.5t-38.5 -8.5t-33 -2q-18 0 -37 2t-37 8.5t-34.5 19.5t-28.5 34q-15 26 -17.5 52t-2.5 54v207q0 26 3.5 51t21.5 50q12 17 27.5 27.5t32.5 16.5t34.5 8t33.5 2q54 0 84 -17t44 -37q17 -23 21 -54.5t4 -63.5
v-35h-124v61q0 18 -1.5 27t-4.5 14q-5 8 -10 9.5t-11 1.5t-11 -1.5t-10 -9.5q-3 -5 -4.5 -14t-1.5 -27v-234q0 -18 1 -28t5 -17q5 -8 10 -10.5t13 -2.5q16 0 23 12q3 5 4.5 15.5t1.5 30.5v54h120v-42z" />
    <glyph glyph-name="d" unicode="d" horiz-adv-x="365" 
d="M335 700v-700h-128v55q-8 -22 -24 -38q-13 -13 -28.5 -20t-35.5 -7t-37 7t-28 18q-23 22 -26 47.5t-3 52.5v287q0 23 3.5 46.5t17.5 42.5q5 6 20.5 18.5t44.5 12.5q20 0 36.5 -6t31.5 -22q8 -8 15.5 -19t12.5 -19v244h128zM207 364q0 10 -1.5 23t-3.5 23q-4 16 -11 21.5
t-14 5.5q-9 0 -13 -5t-6 -10q-4 -10 -4.5 -19t-0.5 -20v-245q0 -23 1.5 -33t4.5 -15q7 -13 20 -13t19 11t7.5 22t1.5 23v231z" />
    <glyph glyph-name="e" unicode="e" horiz-adv-x="360" 
d="M335 117q0 -31 -10.5 -52t-21.5 -33q-26 -28 -58.5 -35t-64.5 -7q-31 0 -59.5 7t-54.5 33q-26 27 -33.5 58t-7.5 60v210q0 27 5 59.5t30 59.5q20 21 51.5 33t67.5 12q38 0 68.5 -12t50.5 -33q15 -15 22.5 -30t10.5 -30t3.5 -30t0.5 -29v-130h-182v-114q0 -8 2.5 -13.5
t4.5 -7.5q5 -7 11 -8t11 -1q8 0 13 1t10 8q5 6 5.5 12t0.5 12v43h124v-43zM207 391q0 11 -1.5 17t-3.5 9q-5 8 -11.5 9.5t-11.5 1.5q-3 0 -9.5 -1.5t-11.5 -9.5q-2 -4 -3.5 -10t-1.5 -17v-82h54v83z" />
    <glyph glyph-name="f" unicode="f" horiz-adv-x="221" 
d="M46 0v422h-40v90h40v86q0 15 2.5 37.5t16.5 39.5q16 18 38 21.5t34 3.5h78v-94h-12q-5 0 -12.5 -2.5t-10.5 -6.5q-6 -7 -6 -35v-50h40v-90h-40v-422h-128z" />
    <glyph glyph-name="g" unicode="g" horiz-adv-x="365" 
d="M153 13v-13q0 -5 1 -12.5t4 -12.5q2 -3 7 -7t15 -4q15 0 22 11q3 5 4 12.5t1 12.5v114h-3q-9 -27 -27 -44q-13 -12 -28 -17t-35 -5q-17 0 -36 6t-34 28q-13 18 -16 38.5t-3 41.5v252q0 23 7 49.5t35 43.5q13 8 27 11.5t27 3.5q16 0 33 -7t28 -19q11 -11 18.5 -27
t11.5 -30h3v70h120v-476q0 -21 -3 -51t-25 -55q-15 -17 -43.5 -30t-76.5 -13q-52 0 -82.5 13t-46.5 30t-23.5 38.5t-9.5 47.5h128zM153 194q0 -21 1.5 -29t2.5 -10q7 -15 23 -15q5 0 12 5t11 19q2 8 3 23t1 23v157q0 10 -1 21t-6 22q-2 5 -7.5 12t-16.5 7q-14 0 -19 -15
q-3 -8 -3.5 -20t-0.5 -18v-182z" />
    <glyph glyph-name="h" unicode="h" horiz-adv-x="365" 
d="M212 0v385q0 20 -1.5 28t-3.5 10q-4 7 -8.5 9t-9.5 2t-12 -3.5t-12 -14.5q-5 -9 -6 -18.5t-1 -20.5v-377h-128v700h128v-246q6 10 16 22.5t26 24.5q12 9 27 15t35 6q21 0 34.5 -7.5t20.5 -15.5q17 -17 20 -42t3 -56v-401h-128z" />
    <glyph glyph-name="i" unicode="i" horiz-adv-x="188" 
d="M30 0v512h128v-512h-128zM30 572v128h128v-128h-128z" />
    <glyph glyph-name="j" unicode="j" horiz-adv-x="188" 
d="M-63 -58h61q11 0 21.5 7.5t10.5 29.5v533h128v-552q0 -20 -2.5 -41t-16.5 -38q-17 -21 -41 -25t-42 -4h-119v90zM30 572v128h128v-128h-128z" />
    <glyph glyph-name="k" unicode="k" horiz-adv-x="364" 
d="M231 0l-71 234h-2v-234h-128v700h128v-382h3l68 194h128l-88 -244l90 -268h-128z" />
    <glyph glyph-name="l" unicode="l" horiz-adv-x="188" 
d="M30 0v700h128v-700h-128z" />
    <glyph glyph-name="m" unicode="m" horiz-adv-x="547" 
d="M394 0v382q0 5 -0.5 17.5t-2.5 18.5q-4 16 -19 16q-8 0 -14 -3t-11 -12q-6 -11 -6.5 -21.5t-0.5 -20.5v-377h-128v380q0 7 -0.5 19t-1.5 16q-3 19 -20 19q-10 0 -15 -4.5t-8 -10.5q-6 -11 -7.5 -19.5t-1.5 -22.5v-377h-128v512h121v-54h3q7 23 26 39q15 14 30 19.5
t34 5.5q40 0 66 -25q11 -10 16 -19.5t8 -19.5q6 11 14 21t16 18q17 14 34.5 19.5t34.5 5.5q23 0 39.5 -7t27.5 -18q17 -17 19.5 -36.5t2.5 -39.5v-421h-128z" />
    <glyph glyph-name="n" unicode="n" horiz-adv-x="365" 
d="M212 0v385q0 19 -1.5 27t-3.5 12t-7 7t-14 3t-14 -5t-9 -13q-5 -13 -5 -31v-385h-128v512h121l3 -48q7 11 16.5 22t23.5 20t28 12.5t31 3.5q23 0 38 -7.5t23 -15.5q20 -20 23 -46.5t3 -55.5v-397h-128z" />
    <glyph glyph-name="o" unicode="o" horiz-adv-x="360" 
d="M153 122v-13t5 -14q7 -11 22 -11t22 11q5 7 5 14v13v268v13t-5 14q-7 11 -22 11t-22 -11q-5 -7 -5 -14v-13v-268zM335 137q0 -24 -5.5 -52.5t-28.5 -52.5q-15 -16 -44 -29t-77 -13t-77 13t-44 29q-23 24 -28.5 52.5t-5.5 52.5v238q0 24 5.5 52.5t28.5 52.5q15 16 44 29
t77 13t77 -13t44 -29q23 -24 28.5 -52.5t5.5 -52.5v-238z" />
    <glyph glyph-name="p" unicode="p" horiz-adv-x="365" 
d="M30 -150v662h128v-55q5 8 13 19t14 18q13 14 31 21t38 7q14 0 29 -6t29 -21q20 -20 24 -40.5t4 -41.5v-299q0 -23 -3 -48t-18 -45q-8 -10 -23.5 -20.5t-41.5 -10.5q-23 0 -39 7t-29 21q-10 10 -17 20.5t-11 17.5v-206h-128zM158 152q0 -12 0.5 -24t4.5 -26q2 -6 6 -16.5
t15 -10.5q5 0 11 0.5t11 11.5q4 8 5 17t1 22v253q0 5 -0.5 19.5t-2.5 20.5q-4 16 -20 16q-13 0 -22 -11q-6 -8 -7.5 -19t-1.5 -21v-232z" />
    <glyph glyph-name="q" unicode="q" horiz-adv-x="365" 
d="M207 56q-3 -5 -10 -16t-18 -22q-13 -14 -29 -21t-39 -7q-26 0 -41.5 10.5t-23.5 20.5q-14 19 -17.5 43t-3.5 48v311q0 24 9 45t22 32q11 11 28.5 16.5t34.5 5.5q24 0 36.5 -8t24.5 -19q10 -9 16 -16.5t11 -21.5v55h128v-662h-128v206zM207 384q0 17 -3 25.5t-5 12.5
q-5 8 -11 10.5t-11 2.5q-13 0 -19 -13q-2 -6 -3.5 -15.5t-1.5 -27.5v-250q0 -20 1.5 -28.5t2.5 -10.5q3 -9 8.5 -12t11.5 -3q13 0 18 10.5t7 16.5q2 7 3.5 19t1.5 34v229z" />
    <glyph glyph-name="r" unicode="r" horiz-adv-x="273" 
d="M30 0v512h124v-52h3q6 11 14 21.5t19 18.5q14 12 28.5 17t31.5 5h15l-4 -175q-11 11 -22.5 14.5t-20.5 3.5q-8 0 -22 -2.5t-25 -17.5q-9 -12 -11 -28t-2 -31v-286h-128z" />
    <glyph glyph-name="s" unicode="s" 
d="M141 138l-2 -18q-1 -19 8 -30q9 -10 23 -10q5 0 12 1.5t12 9.5q2 4 3.5 11t1.5 11q0 22 -5 38.5t-11.5 27.5t-14 17.5t-11.5 9.5l-39 26q-12 8 -21.5 14.5t-22.5 18.5q-12 11 -21 23t-17 29q-10 20 -13 37t-3 40q0 14 2.5 30t10.5 31q6 12 15.5 22.5t19.5 17.5
q19 13 47.5 20t57.5 7q25 0 50 -5.5t50 -25.5q31 -24 37 -49.5t6 -48.5v-14h-114v18q0 5 -2 13.5t-4 12.5q-3 5 -9 8t-12 3q-5 0 -10.5 -2t-8.5 -5q-5 -5 -6.5 -13.5t-1.5 -13.5q0 -12 2 -21.5t10 -20.5q9 -11 21 -19.5t26 -18.5l51 -35q15 -11 29.5 -26t23.5 -33
q11 -23 12.5 -50t1.5 -49q0 -17 -5 -36.5t-19 -41.5q-11 -16 -24 -28t-31 -19q-15 -6 -38 -9t-39 -3q-20 0 -37.5 3.5t-31.5 8.5q-17 6 -28.5 13t-25.5 23q-2 3 -7.5 10t-10.5 17.5t-9 24.5t-4 31v17h126z" />
    <glyph glyph-name="t" unicode="t" horiz-adv-x="217" 
d="M207 0q-16 -1 -22 -1.5t-14 -1.5q-14 -2 -33 -1.5t-29 1.5q-10 2 -22 5t-20 8q-10 7 -15 16t-7 17q-3 11 -4.5 27.5t-1.5 24.5v327h-35v90h35v188h128v-188h35v-90h-35v-297q0 -2 0.5 -7.5t2.5 -11.5t7 -11t14 -5h16v-90z" />
    <glyph glyph-name="u" unicode="u" horiz-adv-x="365" 
d="M153 512v-385q0 -6 0.5 -17.5t2.5 -16.5q4 -15 19 -15q9 0 15.5 6.5t10.5 15.5q2 7 4 20t2 20v372h128v-512h-124v48l-6 3q-6 -13 -15 -25t-19 -20q-21 -16 -59 -16q-20 0 -35.5 6.5t-25.5 16.5q-20 20 -23 47.5t-3 50.5v401h128z" />
    <glyph glyph-name="v" unicode="v" horiz-adv-x="333" 
d="M98 0l-94 512h128l30 -237l4 -46h3l3 46l29 237h128l-94 -512h-137z" />
    <glyph glyph-name="w" unicode="w" horiz-adv-x="492" 
d="M287 0l-41 257l-41 -257h-130l-71 512h128l26 -239l2 -45l3 -1l45 285h76l45 -285l3 1l2 45l26 239h128l-71 -512h-130z" />
    <glyph glyph-name="x" unicode="x" horiz-adv-x="354" 
d="M214 512h128l-93 -236l101 -276h-128l-45 144l-45 -144h-128l100 276l-92 236h128l37 -117z" />
    <glyph glyph-name="y" unicode="y" horiz-adv-x="348" 
d="M19 -58h52q12 0 26 3.5t23 20.5q7 13 6 28t-4 27l-118 491h128l44 -270h4l36 270h128l-103 -538q-5 -26 -13.5 -46.5t-29.5 -40.5q-26 -26 -51 -30.5t-56 -4.5h-72v90z" />
    <glyph glyph-name="z" unicode="z" horiz-adv-x="320" 
d="M12 0v100l157 322h-143v90h279v-100l-157 -322h157v-90h-293z" />
    <glyph glyph-name="braceleft" unicode="{" horiz-adv-x="320" 
d="M300 -160q-42 -3 -84.5 10.5t-74.5 48.5q-30 34 -38 71t-8 73v113q0 13 -2.5 27t-14.5 26q-9 9 -21.5 13t-24.5 4h-12v92h12q12 0 24.5 4t21.5 13q12 12 14.5 26t2.5 27v118q0 38 8 73.5t38 70.5q32 37 74.5 50t84.5 10v-75q-25 -1 -42 -11.5t-25 -21.5t-11.5 -34
t-3.5 -70v-88q0 -23 -4 -50t-24 -51q-4 -5 -19 -17.5t-43 -19.5q28 -7 43 -19.5t19 -17.5q20 -24 24 -51t4 -50v-72q0 -51 3 -75.5t12 -38.5q8 -11 25 -21.5t42 -11.5v-75z" />
    <glyph glyph-name="bar" unicode="|" horiz-adv-x="160" 
d="M35 700h90v-700h-90v700z" />
    <glyph glyph-name="braceright" unicode="}" horiz-adv-x="320" 
d="M20 710q42 3 84.5 -10.5t74.5 -48.5q30 -34 38 -71t8 -73v-113q0 -13 2.5 -27t14.5 -26q9 -9 21.5 -13t24.5 -4h12v-92h-12q-12 0 -24.5 -4t-21.5 -13q-12 -12 -14.5 -26t-2.5 -27v-118q0 -38 -8 -73.5t-38 -70.5q-32 -37 -74.5 -50t-84.5 -10v75q25 1 42 11.5t25 21.5
q7 11 11 34t4 70v88q0 23 4 50t24 51q4 5 19 17.5t43 19.5q-28 7 -43 19.5t-19 17.5q-20 24 -24 51t-4 50v72q0 51 -3 75.5t-12 38.5q-8 11 -25 21.5t-42 11.5v75z" />
    <glyph glyph-name="asciitilde" unicode="~" horiz-adv-x="496" 
d="M10 418q8 8 27.5 24t49.5 28q17 7 37 11t37 4q20 0 33.5 -5.5t27.5 -12.5l92 -45q11 -5 28.5 -7t30.5 0q16 2 32.5 11.5t29.5 20.5l24 22l27 -85q-15 -17 -30 -28t-34 -22q-11 -6 -25 -12.5t-33 -6.5q-14 0 -25.5 1t-24.5 5q-15 5 -25.5 9.5t-20.5 9.5l-79 37
q-23 10 -52 10q-14 0 -28.5 -2.5t-27.5 -10.5q-12 -7 -29 -23t-28 -30z" />
    <glyph glyph-name="exclamdown" unicode="&#xa1;" horiz-adv-x="232" 
d="M202 0h-172l52 507h68zM185 700v-148h-138v148h138z" />
    <glyph glyph-name="cent" unicode="&#xa2;" horiz-adv-x="351" 
d="M331 154q0 -43 -3.5 -65t-9.5 -34q-10 -21 -33.5 -39t-57.5 -23v-99h-90v99q-20 3 -35.5 10t-26.5 16t-18.5 18.5t-11.5 16.5q-15 26 -17.5 52.5t-2.5 53.5v207q0 25 3.5 50.5t21.5 50.5q12 17 33 31t50 19v73h90v-73q27 -5 49 -19t34 -31q17 -23 21 -54.5t4 -63.5v-35
h-124v61q0 18 -1.5 27t-4.5 14q-5 8 -10 9.5t-11 1.5t-11 -1.5t-10 -9.5q-3 -5 -4.5 -14t-1.5 -27v-234q0 -18 1 -28t5 -17q5 -8 10 -10.5t13 -2.5q16 0 23 12q3 5 4.5 15.5t1.5 30.5v54h120v-42z" />
    <glyph glyph-name="sterling" unicode="&#xa3;" horiz-adv-x="429" 
d="M37 0v98h63q1 2 4.5 11.5t7.5 24.5t7.5 33.5t4.5 37.5q3 55 -5.5 88t-12.5 41h-91v91h72q-11 29 -16.5 66.5t-5.5 71.5q0 42 15 72t38 50q29 25 58 31t57 6q29 0 63.5 -6t66.5 -33q29 -25 36 -50.5t7 -57.5v-24h-128v16q0 12 -0.5 22.5t-5.5 18.5q-9 16 -27 16
q-23 0 -34 -19q-2 -4 -6 -17.5t-2 -45.5q1 -8 4.5 -40t17.5 -77h147v-91h-128q14 -38 16.5 -69t1.5 -50q-2 -30 -8.5 -60.5t-15.5 -56.5h181v-98h-382z" />
    <glyph glyph-name="currency" unicode="&#xa4;" horiz-adv-x="486" 
d="M152 276q0 -16 5.5 -32t16.5 -29t28.5 -21t40.5 -8q42 0 67 25.5t25 64.5q0 24 -8 41t-21.5 28.5t-30 17t-32.5 5.5q-38 0 -64.5 -26t-26.5 -66zM349 124q-13 -10 -38.5 -20.5t-67.5 -10.5t-67 10.5t-39 21.5l-55 -52l-57 54l59 55q-9 18 -17 42.5t-8 51.5q0 28 7.5 52.5
t17.5 43.5l-59 55l57 54l55 -51q13 9 39 20t67 11q42 0 67.5 -11t38.5 -20l55 51l57 -54l-57 -54q8 -14 16 -39.5t8 -57.5t-8.5 -56.5t-15.5 -38.5l57 -54l-57 -54z" />
    <glyph glyph-name="yen" unicode="&#xa5;" horiz-adv-x="386" 
d="M124 0v75h-109v90h109v51h-109v90h109v2l-119 392h138l50 -218l5 28l45 190h138l-119 -392v-2h109v-90h-109v-51h109v-90h-109v-75h-138z" />
    <glyph glyph-name="brokenbar" unicode="&#xa6;" horiz-adv-x="160" 
d="M125 700v-270h-90v270h90zM35 0v270h90v-270h-90z" />
    <glyph glyph-name="section" unicode="&#xa7;" horiz-adv-x="411" 
d="M325 168q8 -8 16 -19.5t13 -22.5q5 -14 7.5 -32.5t2.5 -32.5q0 -21 -6.5 -42.5t-19.5 -39.5q-12 -17 -25.5 -25.5t-27.5 -14.5q-23 -9 -44.5 -12t-44.5 -3q-15 0 -36 2t-43 9q-15 5 -29.5 13.5t-28.5 26.5q-19 25 -23 51.5t-4 51.5v27h128v-53q0 -5 1.5 -12.5t7.5 -15.5
q10 -12 29 -12q12 0 19 4t11 9q1 1 4 9.5t3 28.5q0 7 -3.5 23.5t-19.5 29.5l-133 105q-14 11 -23.5 21.5t-17.5 25.5q-9 17 -11 32t-2 30q0 17 2.5 30.5t10.5 28.5t15.5 22.5t16.5 14.5t18.5 13.5t24.5 12.5l-18 18q-17 17 -26 30.5t-14 22.5q-9 18 -10.5 35.5t-1.5 33.5
q0 21 6 35.5t14 25t17 16.5t14 10q19 13 43 22t71 9q46 0 72 -11t43 -26q26 -23 34 -48t8 -65v-16h-124v41q0 2 -1 11.5t-7 16.5q-3 3 -9 6t-17 3q-16 0 -25 -9q-5 -5 -7 -12.5t-2 -15.5q0 -10 4.5 -22t15.5 -21l143 -111q19 -15 29.5 -31t15 -31.5t5 -29.5t0.5 -25
q0 -22 -4.5 -41.5t-21.5 -43.5q-12 -17 -25 -28.5t-24 -19.5zM219 248q8 8 13.5 15t10.5 15q5 9 9 17.5t4 19.5q0 15 -2.5 25t-13.5 20l-37 34q-8 -4 -18 -11t-17 -15t-10.5 -16.5t-3.5 -22.5q0 -17 9 -28t20 -20z" />
    <glyph glyph-name="dieresis" unicode="&#xa8;" 
d="M200 580v120h107v-120h-107zM33 580v120h107v-120h-107z" />
    <glyph glyph-name="copyright" unicode="&#xa9;" horiz-adv-x="614" 
d="M198 0q-15 0 -33 2t-36 8.5t-35.5 18t-31.5 30.5q-22 29 -26 59t-4 53v358q0 23 4 53t26 59q14 19 31.5 30.5t35.5 18t36 8.5t33 2h218q15 0 33 -2t36 -8.5t35.5 -18t31.5 -30.5q22 -29 26 -59t4 -53v-358q0 -23 -4 -53t-26 -59q-14 -19 -31.5 -30.5t-35.5 -18t-36 -8.5
t-33 -2h-218zM112 166q0 -15 2 -32.5t13 -32.5q5 -8 20.5 -19.5t46.5 -11.5h226q31 0 46.5 11.5t20.5 19.5q11 15 13 33.5t2 31.5v368q0 15 -2 32.5t-13 32.5q-5 8 -20.5 19.5t-46.5 11.5h-226q-31 0 -46.5 -11.5t-20.5 -19.5q-11 -15 -13 -32.5t-2 -32.5v-368zM434 210
q0 -20 -6 -39t-26 -37q-17 -15 -40.5 -23.5t-52.5 -8.5t-52.5 9t-40.5 24q-24 21 -29.5 42t-5.5 47v264q0 24 6.5 42.5t28.5 36.5t45 24.5t47 6.5q22 0 46.5 -7.5t41.5 -21.5q25 -20 31 -45t6 -43v-53h-84v60q0 8 -1 15.5t-9 15.5q-6 6 -14.5 8.5t-16.5 2.5q-7 0 -16.5 -2.5
t-14.5 -6.5q-9 -8 -10.5 -19.5t-1.5 -16.5v-270q0 -8 1 -16.5t9 -16.5q12 -12 35 -12q8 0 16.5 2t15.5 10q6 8 7.5 16t1.5 14v79h83v-81z" />
    <glyph glyph-name="ordfeminine" unicode="&#xaa;" horiz-adv-x="215" 
d="M134 440l-1 17l-8 -8t-9 -7q-8 -5 -17.5 -6.5t-17.5 -1.5q-12 0 -20.5 3t-16.5 13q-10 12 -12 25.5t-2 24.5q0 24 8 38.5t24 28.5q7 6 22 16.5t43 24.5v18v11.5t-3 9.5q-3 5 -7.5 5.5t-8.5 0.5q-3 0 -7.5 -1t-7.5 -5q-4 -5 -4 -10v-10v-15h-56v19q0 13 1.5 25t14.5 24
q14 13 30.5 16.5t29.5 3.5q21 0 37.5 -5t24.5 -15q10 -11 12 -26.5t2 -26.5v-187h-51zM127 569q-8 -5 -17 -12t-14 -15q-6 -10 -7 -19.5t-1 -17.5q0 -5 0.5 -9.5t5.5 -9.5q5 -6 14 -6q4 0 8.5 1.5t7.5 7.5q2 4 2.5 11.5t0.5 11.5v57z" />
    <glyph glyph-name="guillemotleft" unicode="&#xab;" horiz-adv-x="522" 
d="M165 0l-155 256l155 256h113l-130 -256l130 -256h-113zM399 0l-155 256l155 256h113l-130 -256l130 -256h-113z" />
    <glyph glyph-name="logicalnot" unicode="&#xac;" horiz-adv-x="492" 
d="M0 314v76h492v-284h-76v208h-416z" />
    <glyph glyph-name="registered" unicode="&#xae;" horiz-adv-x="614" 
d="M198 0q-15 0 -33 2t-36 8.5t-35.5 18t-31.5 30.5q-22 29 -26 59t-4 53v358q0 23 4 53t26 59q14 19 31.5 30.5t35.5 18t36 8.5t33 2h218q15 0 33 -2t36 -8.5t35.5 -18t31.5 -30.5q22 -29 26 -59t4 -56v-355q0 -23 -4 -53t-26 -59q-14 -19 -31.5 -30.5t-35.5 -18t-36 -8.5
t-33 -2h-218zM112 166q0 -15 2 -32.5t13 -32.5q5 -8 20.5 -19.5t46.5 -11.5h226q26 0 42.5 10t24.5 21q9 13 12 33t3 36v364q0 15 -2 32.5t-13 32.5q-5 8 -20.5 19.5t-46.5 11.5h-226q-31 0 -46.5 -11.5t-20.5 -19.5q-11 -15 -13 -32.5t-2 -32.5v-368zM354 109
q-7 11 -10 23.5t-3 33.5v115q0 8 -2 16t-10 15q-7 5 -16 6.5t-15 1.5h-33v-211h-83v482h154q32 0 49 -11t25 -20q10 -11 15.5 -28t5.5 -33v-62q0 -11 -3 -27t-20 -31q-16 -15 -40 -19v-4q5 -2 14.5 -5.5t16.5 -8.5q14 -9 20.5 -26.5t6.5 -34.5v-104q0 -30 3 -44t20 -19v-5
h-95zM304 392q7 0 15.5 1t14.5 6t9.5 15.5t3.5 19.5v46q0 9 -1 16.5t-6 15.5q-6 8 -13 9.5t-14 1.5h-48v-131h39z" />
    <glyph glyph-name="macron" unicode="&#xaf;" 
d="M42 680h256v-78h-256v78z" />
    <glyph glyph-name="macron" unicode="&#x2c9;" 
d="M42 680h256v-78h-256v78z" />
    <glyph glyph-name="degree" unicode="&#xb0;" horiz-adv-x="274" 
d="M84 593q0 -23 15 -38t38 -15t38 15t15 38t-15 38t-38 15t-38 -15t-15 -38zM30 593q0 22 8.5 42t22.5 34t33.5 22.5t42.5 8.5q22 0 42 -8.5t34 -22.5t22.5 -34t8.5 -42q0 -23 -8.5 -42.5t-22.5 -33.5t-34 -22.5t-42 -8.5q-23 0 -42.5 8.5t-33.5 22.5t-22.5 33.5t-8.5 42.5
z" />
    <glyph glyph-name="plusminus" unicode="&#xb1;" horiz-adv-x="572" 
d="M248 412h-208v76h208v208h76v-208h208v-76h-208v-208h-76v208zM40 136h492v-76h-492v76z" />
    <glyph glyph-name="uni00B2" unicode="&#xb2;" horiz-adv-x="250" 
d="M20 350q-5 38 5.5 61t19.5 36q12 16 23.5 27.5t22.5 20.5t18 15.5t18 17.5q16 17 20 27t4 28v31q0 5 -1 12.5t-3 12.5q-4 8 -11 10t-13 2q-5 0 -11.5 -1.5t-10.5 -9.5q-2 -5 -3 -14.5t-1 -14.5v-46h-72v41q0 12 1.5 26t9.5 28q8 15 28.5 27.5t58.5 12.5q32 0 51.5 -8.5
t32.5 -24.5q14 -18 16 -35t2 -34q0 -15 -0.5 -29t-8.5 -32q-7 -16 -16 -27.5t-22 -22.5q-9 -8 -18 -15t-17 -15q-5 -4 -8.5 -8t-8.5 -8q-11 -10 -18 -17.5t-12 -24.5h129v-49h-205z" />
    <glyph glyph-name="uni00B3" unicode="&#xb3;" horiz-adv-x="257" 
d="M93 465v-29q0 -3 0.5 -13.5t4.5 -16.5q2 -4 8.5 -8t17.5 -4q7 0 13.5 2t11.5 9q5 6 5.5 14t0.5 13v33q0 13 -1 22.5t-6 14.5q-6 7 -19.5 10t-26.5 3h-23v49h39q23 0 27.5 11t4.5 17v33q0 5 -1 11.5t-4 11.5q-5 6 -10.5 7t-10.5 1q-6 0 -11.5 -1t-10.5 -6t-5.5 -11
t-0.5 -11v-24h-74v26q0 16 5.5 27.5t11.5 18.5q8 10 27 20t58 10q23 0 46.5 -5.5t37.5 -21.5q11 -12 13.5 -24.5t2.5 -20.5v-28q0 -14 -2 -27.5t-16 -25.5q-5 -5 -13 -8.5t-19 -5.5q18 -4 30 -14t17 -21q2 -5 4 -15t2 -30v-28q0 -12 -1.5 -24.5t-12.5 -27.5q-12 -17 -32 -25
t-57 -8q-8 0 -19.5 1t-23.5 4t-24 9t-21 17q-11 13 -13.5 28t-2.5 31v30h73z" />
    <glyph glyph-name="acute" unicode="&#xb4;" 
d="M62 593l148 148l68 -80l-181 -115z" />
    <glyph glyph-name="uni00B5" unicode="&#xb5;" horiz-adv-x="374" 
d="M30 -150v662h128v-366q0 -21 1.5 -33.5t3.5 -20.5q3 -10 7.5 -14t14.5 -4q21 0 27 23q3 10 3.5 25t0.5 22v368h128v-512h-95l-12 42q-5 -13 -14.5 -27.5t-20.5 -19.5q-7 -3 -21 -3.5t-23 19.5v-161h-128z" />
    <glyph glyph-name="paragraph" unicode="&#xb6;" horiz-adv-x="538" 
d="M347 -150v754h-65v-754h-111v422h-33q-21 0 -42 8t-36 21q-24 20 -29.5 41.5t-5.5 49.5v174q0 20 2 39t14 39q11 18 25.5 29t30.5 17t32.5 8t31.5 2h372v-96h-75v-754h-111zM171 604q-18 3 -28 -2.5t-14.5 -14t-5.5 -17t-1 -12.5v-149q0 -29 15 -39t34 -6v240z" />
    <glyph glyph-name="periodcentered" unicode="&#xb7;" horiz-adv-x="198" 
d="M30 329h138v-148h-138v148z" />
    <glyph glyph-name="periodcentered" unicode="&#x22c5;" horiz-adv-x="198" 
d="M30 329h138v-148h-138v148z" />
    <glyph glyph-name="periodcentered" unicode="&#x2219;" horiz-adv-x="198" 
d="M30 329h138v-148h-138v148z" />
    <glyph glyph-name="cedilla" unicode="&#xb8;" 
d="M82 -134q9 -2 18 -3.5t18 -3.5q8 -1 18 -2t18 -1t13 2t10 10q5 9 5 19q0 7 -1 12.5t-6 11.5q-8 10 -15.5 11.5t-16.5 1.5h-39v76h64v-32q23 2 42.5 -7t30.5 -21q2 -2 10 -16t8 -40q0 -20 -7 -34t-15 -23q-17 -17 -35.5 -22t-37.5 -5q-15 0 -27 1t-23 2q-9 1 -15.5 2
t-16.5 3v58z" />
    <glyph glyph-name="uni00B9" unicode="&#xb9;" horiz-adv-x="172" 
d="M65 350v272q-20 -7 -31.5 -9.5t-23.5 -4.5v43q9 2 20 6t18 8q14 8 19.5 17.5t7.5 17.5h62v-350h-72z" />
    <glyph glyph-name="ordmasculine" unicode="&#xba;" horiz-adv-x="214" 
d="M88 507q0 -5 0.5 -10t3.5 -9q5 -7 15 -7t15 7q3 4 3.5 9t0.5 10v120q0 5 -0.5 10t-3.5 9q-5 7 -15 7t-15 -7q-3 -4 -3.5 -9t-0.5 -10v-120zM184 503q0 -11 -2 -23.5t-15 -25.5q-13 -14 -29 -17t-31 -3t-31 3t-29 17q-12 12 -14.5 24.5t-2.5 24.5v129q0 11 2.5 23.5
t14.5 24.5q14 14 30.5 17t29.5 3q15 0 30.5 -3t29.5 -17q14 -13 15.5 -24.5t1.5 -23.5v-129z" />
    <glyph glyph-name="guillemotright" unicode="&#xbb;" horiz-adv-x="522" 
d="M140 256l-130 256h113l155 -256l-155 -256h-113zM374 256l-130 256h113l155 -256l-155 -256h-113z" />
    <glyph glyph-name="onequarter" unicode="&#xbc;" horiz-adv-x="501" 
d="M65 350v271q-19 -8 -32 -10.5t-21 -3.5v43q15 3 25 8l12 6q13 8 19 16.5t9 19.5h62v-350h-74zM370 0v64h-122v47l122 239h73v-239h33v-47h-33v-64h-73zM370 230l-55 -119h55v119zM10 0l360 700h92l-361 -700h-91z" />
    <glyph glyph-name="onehalf" unicode="&#xbd;" horiz-adv-x="525" 
d="M67 351v271q-20 -7 -31.5 -9.5t-23.5 -4.5v43q9 2 20 6t18 8q14 8 19.5 17.5t7.5 18.5h62v-350h-72zM295 0q-5 38 5.5 61t19.5 36q12 16 23.5 27.5t22.5 20.5t18 15.5t18 17.5q16 17 20 27t4 28v31q0 5 -1 12.5t-3 12.5q-4 8 -11 10t-13 2q-5 0 -11.5 -1.5t-10.5 -9.5
q-2 -5 -3 -14.5t-1 -14.5v-46h-72v41q0 12 1.5 26t9.5 28q8 15 28.5 27.5t58.5 12.5q32 0 51.5 -8.5t32.5 -24.5q14 -18 16 -35t2 -34q0 -15 -0.5 -29t-8.5 -32q-7 -16 -16 -27.5t-22 -22.5q-9 -8 -18 -15t-17 -15q-5 -4 -8.5 -8t-8.5 -8q-11 -10 -18 -17.5t-12 -24.5h129
v-49h-205zM10 0l361 700h92l-362 -700h-91z" />
    <glyph glyph-name="threequarters" unicode="&#xbe;" horiz-adv-x="577" 
d="M98 465v-29q0 -3 0.5 -13.5t4.5 -16.5q2 -4 8.5 -8t17.5 -4q7 0 13.5 2t11.5 9q5 6 5.5 14t0.5 13v33q0 13 -1 22.5t-6 14.5q-6 7 -19.5 10t-26.5 3h-23v49h39q23 0 27.5 11t4.5 17v33q0 5 -1 11.5t-4 11.5q-5 6 -10.5 7t-10.5 1q-6 0 -11.5 -1t-10.5 -6t-5.5 -11
t-0.5 -11v-24h-74v26q0 16 5.5 27.5t11.5 18.5q8 10 27 20t58 10q23 0 46.5 -5.5t37.5 -21.5q11 -12 13.5 -24.5t2.5 -20.5v-28q0 -14 -2 -27.5t-16 -25.5q-5 -5 -13 -8.5t-19 -5.5q18 -4 30 -14t17 -21q2 -5 4 -15t2 -30v-28q0 -12 -1.5 -24.5t-12.5 -27.5q-12 -17 -32 -25
t-57 -8q-8 0 -19.5 1t-23.5 4t-24 9t-21 17q-11 13 -13.5 28t-2.5 31v30h73zM446 0v64h-124v47l124 239h73v-239h33v-47h-33v-64h-73zM446 230l-55 -119h55v119zM77 0l361 700h93l-363 -700h-91z" />
    <glyph glyph-name="questiondown" unicode="&#xbf;" horiz-adv-x="380" 
d="M237 473q0 -18 9 -45.5t42 -72.5q10 -14 18 -22.5t14 -15.5t11.5 -14t11.5 -16q14 -22 18 -43.5t4 -45.5v-45q0 -23 -5.5 -51t-24.5 -51q-15 -18 -34.5 -28.5t-39.5 -15.5t-38 -6t-30 -1q-62 0 -94.5 15.5t-45.5 29.5q-16 17 -27 45t-11 67v66h138v-71q0 -11 1 -23t6 -21
q7 -11 15 -13.5t16 -2.5q7 0 16.5 2.5t14.5 13.5q3 6 4 15.5t1 15.5v49q0 18 -2 35t-14 35l-50 72q-8 12 -16.5 24t-15.5 26t-11 31t-4 38v68h123v-44zM244 710v-148h-137v148h137z" />
    <glyph glyph-name="Agrave" unicode="&#xc0;" horiz-adv-x="384" 
d="M231 0l-8 89h-62l-8 -89h-143l67 700h232l65 -700h-143zM219 187l-24 406h-4l-26 -406h54zM50 789l37 98l244 -109l-18 -48z" />
    <glyph glyph-name="Aacute" unicode="&#xc1;" horiz-adv-x="384" 
d="M231 0l-8 89h-62l-8 -89h-143l67 700h232l65 -700h-143zM219 187l-24 406h-4l-26 -406h54zM50 778l244 109l37 -98l-263 -59z" />
    <glyph glyph-name="Acircumflex" unicode="&#xc2;" horiz-adv-x="384" 
d="M231 0l-8 89h-62l-8 -89h-143l67 700h232l65 -700h-143zM219 187l-24 406h-4l-26 -406h54zM48 790l142 89l141 -89v-60l-141 58l-142 -58v60z" />
    <glyph glyph-name="Atilde" unicode="&#xc3;" horiz-adv-x="384" 
d="M231 0l-8 89h-62l-8 -89h-143l67 700h232l65 -700h-143zM219 187l-24 406h-4l-26 -406h54zM26 811q8 8 22 18.5t26 15.5q11 5 24.5 7t24.5 2q14 0 22.5 -3t17.5 -8l58 -29q19 -10 39 -7q11 2 22.5 9.5t17.5 13.5l15 14l17 -70q-8 -10 -19 -19t-23 -15q-9 -5 -15.5 -7.5
t-21.5 -2.5t-34 6t-27 10l-52 23q-8 3 -16.5 5t-19.5 2q-15 0 -33 -9q-22 -13 -36 -34z" />
    <glyph glyph-name="Adieresis" unicode="&#xc4;" horiz-adv-x="384" 
d="M231 0l-8 89h-62l-8 -89h-143l67 700h232l65 -700h-143zM219 187l-24 406h-4l-26 -406h54zM55 853h107v-115h-107v115zM225 853h107v-115h-107v115z" />
    <glyph glyph-name="Aring" unicode="&#xc5;" horiz-adv-x="384" 
d="M231 0l-8 89h-62l-8 -89h-143l67 700h232l65 -700h-143zM219 187l-24 406h-4l-26 -406h54zM142 808q0 -23 15 -38t38 -15t38 15t15 38t-15 38t-38 15t-38 -15t-15 -38zM88 808q0 22 8.5 42t22.5 34t33.5 22.5t42.5 8.5q22 0 42 -8.5t34 -22.5t22.5 -34t8.5 -42
q0 -23 -8.5 -42.5t-22.5 -33.5t-34 -22.5t-42 -8.5q-23 0 -42.5 8.5t-33.5 22.5t-22.5 33.5t-8.5 42.5z" />
    <glyph glyph-name="AE" unicode="&#xc6;" horiz-adv-x="596" 
d="M262 0v89h-80l-14 -89h-138l114 700h431v-98h-175v-168h132v-98h-132v-238h191v-98h-329zM262 187v406h-4l-60 -406h64z" />
    <glyph glyph-name="Ccedilla" unicode="&#xc7;" horiz-adv-x="405" 
d="M242 479v70q0 7 -1 17.5t-3 17.5q-5 14 -14 17.5t-18 3.5t-18 -3.5t-14 -17.5q-2 -7 -3 -17.5t-1 -17.5v-398q0 -6 1 -17t3 -18q5 -14 15 -17.5t17 -3.5t17 3.5t15 17.5q2 7 3 18t1 17v110h138v-107q0 -32 -7.5 -63.5t-38.5 -59.5q-15 -13 -31 -20.5t-30.5 -12t-25 -6
t-13.5 -1.5v-23q23 2 42.5 -7t30.5 -21q2 -2 10 -16t8 -40q0 -20 -7 -34t-15 -23q-17 -17 -35.5 -22t-37.5 -5q-15 0 -27 1t-23 2q-9 1 -15.5 2t-16.5 3v58q9 -2 18 -3.5t18 -3.5q8 -1 18 -2t18 -1t13 2t10 10q5 9 5 19q0 7 -1 12.5t-6 11.5q-8 10 -15.5 11.5t-16.5 1.5h-39
v68q-23 3 -48 12.5t-44 26.5q-29 27 -37.5 59t-8.5 64v392q0 32 8.5 64t37.5 59q17 15 47 28t81 13q29 0 64 -7.5t64 -33.5q31 -28 38.5 -59t7.5 -64v-67h-138z" />
    <glyph glyph-name="Egrave" unicode="&#xc8;" horiz-adv-x="369" 
d="M35 700h313v-98h-175v-168h132v-98h-132v-238h191v-98h-329v700zM43 789l37 98l244 -109l-18 -48z" />
    <glyph glyph-name="Eacute" unicode="&#xc9;" horiz-adv-x="369" 
d="M35 700h313v-98h-175v-168h132v-98h-132v-238h191v-98h-329v700zM61 777l244 109l37 -98l-263 -59z" />
    <glyph glyph-name="Ecircumflex" unicode="&#xca;" horiz-adv-x="369" 
d="M35 700h313v-98h-175v-168h132v-98h-132v-238h191v-98h-329v700zM51 792l142 89l141 -89v-60l-141 58l-142 -58v60z" />
    <glyph glyph-name="Edieresis" unicode="&#xcb;" horiz-adv-x="369" 
d="M35 700h313v-98h-175v-168h132v-98h-132v-238h191v-98h-329v700zM53 860h107v-115h-107v115zM223 860h107v-115h-107v115z" />
    <glyph glyph-name="Igrave" unicode="&#xcc;" horiz-adv-x="208" 
d="M35 700h138v-700h-138v700zM-37 789l37 98l244 -109l-18 -48z" />
    <glyph glyph-name="Iacute" unicode="&#xcd;" horiz-adv-x="208" 
d="M35 700h138v-700h-138v700zM-37 778l244 109l37 -98l-263 -59z" />
    <glyph glyph-name="Icircumflex" unicode="&#xce;" horiz-adv-x="208" 
d="M35 700h138v-700h-138v700zM-39 790l142 89l141 -89v-60l-141 58l-142 -58v60z" />
    <glyph glyph-name="Idieresis" unicode="&#xcf;" horiz-adv-x="208" 
d="M35 700h138v-700h-138v700zM-34 859h107v-115h-107v115zM136 859h107v-115h-107v115z" />
    <glyph glyph-name="Eth" unicode="&#xd0;" horiz-adv-x="428" 
d="M48 335h-58v84h58v281h218q29 0 52.5 -10t38.5 -24q26 -26 32.5 -60.5t6.5 -63.5v-374q0 -27 -7.5 -60.5t-34.5 -63.5q-27 -29 -56 -36.5t-59 -7.5h-191v335zM214 95q9 0 16 3.5t11.5 8t7 9t2.5 5.5q5 11 6 22.5t1 23.5v372v22t-8 24q-6 11 -13 14t-18 3h-33v-183h47v-83
h-47v-241h28z" />
    <glyph glyph-name="Ntilde" unicode="&#xd1;" horiz-adv-x="414" 
d="M257 0l-98 363h-3l7 -80v-283h-128v700h122l98 -375h4l-8 74v301h128v-700h-122zM55 814q8 8 22 18.5t26 15.5q11 5 24.5 7t24.5 2q14 0 22.5 -3t17.5 -8l58 -29q19 -10 39 -7q11 2 22.5 9.5t17.5 13.5l15 14l17 -70q-8 -10 -19 -19t-23 -15q-9 -5 -15.5 -7.5t-21.5 -2.5
t-34 6t-27 10l-52 23q-8 3 -16.5 5t-19.5 2q-15 0 -33 -9q-22 -13 -36 -34z" />
    <glyph glyph-name="Ograve" unicode="&#xd2;" horiz-adv-x="412" 
d="M380 154q0 -33 -7.5 -64t-38.5 -59q-29 -26 -64 -33.5t-64 -7.5q-51 0 -81 13t-47 28q-29 27 -37.5 59t-8.5 64v392q0 32 8.5 64t37.5 59q17 15 47 28t81 13q29 0 64 -7.5t64 -33.5q31 -28 38.5 -59t7.5 -64v-392zM242 549q0 7 -1 17.5t-3 17.5q-5 14 -14 17.5t-18 3.5
t-18 -3.5t-14 -17.5q-2 -7 -3 -17.5t-1 -17.5v-398q0 -6 1 -17t3 -18q5 -14 15 -17.5t17 -3.5t17 3.5t15 17.5q2 7 3 18t1 17v398zM64 789l37 98l244 -109l-18 -48z" />
    <glyph glyph-name="Oacute" unicode="&#xd3;" horiz-adv-x="412" 
d="M380 154q0 -33 -7.5 -64t-38.5 -59q-29 -26 -64 -33.5t-64 -7.5q-51 0 -81 13t-47 28q-29 27 -37.5 59t-8.5 64v392q0 32 8.5 64t37.5 59q17 15 47 28t81 13q29 0 64 -7.5t64 -33.5q31 -28 38.5 -59t7.5 -64v-392zM242 549q0 7 -1 17.5t-3 17.5q-5 14 -14 17.5t-18 3.5
t-18 -3.5t-14 -17.5q-2 -7 -3 -17.5t-1 -17.5v-398q0 -6 1 -17t3 -18q5 -14 15 -17.5t17 -3.5t17 3.5t15 17.5q2 7 3 18t1 17v398zM72 778l244 109l37 -98l-263 -59z" />
    <glyph glyph-name="Ocircumflex" unicode="&#xd4;" horiz-adv-x="412" 
d="M380 154q0 -33 -7.5 -64t-38.5 -59q-29 -26 -64 -33.5t-64 -7.5q-51 0 -81 13t-47 28q-29 27 -37.5 59t-8.5 64v392q0 32 8.5 64t37.5 59q17 15 47 28t81 13q29 0 64 -7.5t64 -33.5q31 -28 38.5 -59t7.5 -64v-392zM242 549q0 7 -1 17.5t-3 17.5q-5 14 -14 17.5t-18 3.5
t-18 -3.5t-14 -17.5q-2 -7 -3 -17.5t-1 -17.5v-398q0 -6 1 -17t3 -18q5 -14 15 -17.5t17 -3.5t17 3.5t15 17.5q2 7 3 18t1 17v398zM62 790l142 89l141 -89v-60l-141 58l-142 -58v60z" />
    <glyph glyph-name="Otilde" unicode="&#xd5;" horiz-adv-x="412" 
d="M380 154q0 -33 -7.5 -64t-38.5 -59q-29 -26 -64 -33.5t-64 -7.5q-51 0 -81 13t-47 28q-29 27 -37.5 59t-8.5 64v392q0 32 8.5 64t37.5 59q17 15 47 28t81 13q29 0 64 -7.5t64 -33.5q31 -28 38.5 -59t7.5 -64v-392zM242 549q0 7 -1 17.5t-3 17.5q-5 14 -14 17.5t-18 3.5
t-18 -3.5t-14 -17.5q-2 -7 -3 -17.5t-1 -17.5v-398q0 -6 1 -17t3 -18q5 -14 15 -17.5t17 -3.5t17 3.5t15 17.5q2 7 3 18t1 17v398zM55 814q8 8 22 18.5t26 15.5q11 5 24.5 7t24.5 2q14 0 22.5 -3t17.5 -8l58 -29q19 -10 39 -7q11 2 22.5 9.5t17.5 13.5l15 14l17 -70
q-8 -10 -19 -19t-23 -15q-9 -5 -15.5 -7.5t-21.5 -2.5t-34 6t-27 10l-52 23q-8 3 -16.5 5t-19.5 2q-15 0 -33 -9q-22 -13 -36 -34z" />
    <glyph glyph-name="Odieresis" unicode="&#xd6;" horiz-adv-x="412" 
d="M380 154q0 -33 -7.5 -64t-38.5 -59q-29 -26 -64 -33.5t-64 -7.5q-51 0 -81 13t-47 28q-29 27 -37.5 59t-8.5 64v392q0 32 8.5 64t37.5 59q17 15 47 28t81 13q29 0 64 -7.5t64 -33.5q31 -28 38.5 -59t7.5 -64v-392zM242 549q0 7 -1 17.5t-3 17.5q-5 14 -14 17.5t-18 3.5
t-18 -3.5t-14 -17.5q-2 -7 -3 -17.5t-1 -17.5v-398q0 -6 1 -17t3 -18q5 -14 15 -17.5t17 -3.5t17 3.5t15 17.5q2 7 3 18t1 17v398zM69 865h107v-115h-107v115zM239 865h107v-115h-107v115z" />
    <glyph glyph-name="multiply" unicode="&#xd7;" horiz-adv-x="572" 
d="M286 299l-161 -150l-57 54l160 150l-160 150l57 54l161 -150l161 150l57 -54l-160 -150l160 -150l-57 -54z" />
    <glyph glyph-name="Oslash" unicode="&#xd8;" horiz-adv-x="416" 
d="M387 154q0 -33 -7.5 -64t-38.5 -59q-29 -26 -64 -33.5t-64 -7.5q-37 0 -62.5 7t-49.5 23l-24 -55h-72l52 103q-10 17 -14 36.5t-4 49.5v392q0 32 8.5 64t37.5 59q29 26 64 33.5t64 7.5q31 0 52 -4.5t42 -16.5l26 55h63l-42 -90q22 -26 27.5 -49.5t5.5 -58.5v-392z
M177 151q0 -6 1 -17t3 -18q5 -14 15 -17.5t17 -3.5t17 3.5t15 17.5q2 7 3 18t1 17v268l-72 -192v-76zM249 551q0 8 -1 17.5t-3 15.5q-5 14 -14 17.5t-18 3.5t-18 -3.5t-14 -17.5q-2 -7 -3 -17.5t-1 -17.5v-184z" />
    <glyph glyph-name="Ugrave" unicode="&#xd9;" horiz-adv-x="414" 
d="M381 154q0 -33 -9 -68t-46 -63q-16 -12 -34.5 -18.5t-35.5 -10t-30.5 -4t-18.5 -0.5q-6 0 -19.5 0.5t-30 4t-34.5 10t-34 18.5q-36 27 -46 62.5t-10 69.5v545h138v-550q0 -20 2 -29.5t4 -14.5q5 -11 12 -14.5t18 -3.5t18 3.5t12 14.5q2 5 4 14.5t2 29.5v550h138v-546z
M65 789l37 98l244 -109l-18 -48z" />
    <glyph glyph-name="Uacute" unicode="&#xda;" horiz-adv-x="414" 
d="M381 154q0 -33 -9 -68t-46 -63q-16 -12 -34.5 -18.5t-35.5 -10t-30.5 -4t-18.5 -0.5q-6 0 -19.5 0.5t-30 4t-34.5 10t-34 18.5q-36 27 -46 62.5t-10 69.5v545h138v-550q0 -20 2 -29.5t4 -14.5q5 -11 12 -14.5t18 -3.5t18 3.5t12 14.5q2 5 4 14.5t2 29.5v550h138v-546z
M65 778l244 109l37 -98l-263 -59z" />
    <glyph glyph-name="Ucircumflex" unicode="&#xdb;" horiz-adv-x="414" 
d="M381 154q0 -33 -9 -68t-46 -63q-16 -12 -34.5 -18.5t-35.5 -10t-30.5 -4t-18.5 -0.5q-6 0 -19.5 0.5t-30 4t-34.5 10t-34 18.5q-36 27 -46 62.5t-10 69.5v545h138v-550q0 -20 2 -29.5t4 -14.5q5 -11 12 -14.5t18 -3.5t18 3.5t12 14.5q2 5 4 14.5t2 29.5v550h138v-546z
M63 790l142 89l141 -89v-60l-141 58l-142 -58v60z" />
    <glyph glyph-name="Udieresis" unicode="&#xdc;" horiz-adv-x="414" 
d="M381 154q0 -33 -9 -68t-46 -63q-16 -12 -34.5 -18.5t-35.5 -10t-30.5 -4t-18.5 -0.5q-6 0 -19.5 0.5t-30 4t-34.5 10t-34 18.5q-36 27 -46 62.5t-10 69.5v545h138v-550q0 -20 2 -29.5t4 -14.5q5 -11 12 -14.5t18 -3.5t18 3.5t12 14.5q2 5 4 14.5t2 29.5v550h138v-546z
M70 862h107v-115h-107v115zM240 862h107v-115h-107v115z" />
    <glyph glyph-name="Yacute" unicode="&#xdd;" horiz-adv-x="396" 
d="M129 0v308l-119 392h138l50 -218l5 28l45 190h138l-119 -392v-308h-138zM69 780l244 109l37 -98l-263 -59z" />
    <glyph glyph-name="Thorn" unicode="&#xde;" horiz-adv-x="408" 
d="M30 0v700h138v-103h92q23 0 46 -5t44 -28q22 -25 25 -50.5t3 -48.5v-226q0 -23 -3 -48.5t-25 -50.5q-21 -23 -44 -28t-46 -5h-92v-107h-138zM193 205q9 0 19.5 4t16.5 10q10 11 10.5 25.5t0.5 25.5v164q0 11 -0.5 25.5t-10.5 25.5q-6 6 -16.5 10t-19.5 4h-25v-294h25z
" />
    <glyph glyph-name="germandbls" unicode="&#xdf;" horiz-adv-x="382" 
d="M184 93q3 -6 9 -9t12 -3q7 0 12 3q4 3 6.5 10t3.5 15t1.5 16t0.5 14v183q0 11 -1 21.5t-5 21.5q-3 7 -12 18.5t-33 17.5v84q13 -2 20.5 3t10.5 9q6 8 7.5 23t1.5 24v33q0 19 -1.5 27t-3.5 11q-2 5 -8 9t-15 4q-14 0 -23 -12q-6 -8 -7.5 -19t-1.5 -21v-576h-128v596
q0 29 11 54.5t46 42.5q25 12 52 14.5t50 2.5q28 0 52 -3.5t51 -20.5q8 -5 17.5 -13.5t17.5 -21t13.5 -29.5t5.5 -39v-38q0 -17 -4 -34t-21 -34q-11 -11 -25 -18t-27 -11q32 -9 48.5 -22.5t25.5 -29.5q9 -17 11.5 -33t2.5 -36v-211q0 -25 -5 -52.5t-33 -49.5q-17 -14 -33 -19
t-30 -5q-10 0 -18 2l-16 4q-9 2 -17.5 7t-20.5 22v68z" />
    <glyph glyph-name="agrave" unicode="&#xe0;" horiz-adv-x="356" 
d="M223 0l-14 38q-5 -8 -13.5 -17.5t-17.5 -15.5q-14 -10 -29.5 -12.5t-28.5 -2.5q-20 0 -43 6.5t-40 30.5q-15 20 -18.5 44.5t-3.5 42.5v24q0 26 10 60t48 64q13 10 42 25t88 35v69q0 4 -0.5 13t-3.5 15q-4 8 -10.5 10.5t-12.5 2.5t-12.5 -2.5t-10.5 -10.5q-3 -6 -3.5 -15
t-0.5 -13v-46h-124v50q0 20 4 42t24 44q26 27 59 34t64 7q29 0 62.5 -6.5t60.5 -34.5q20 -21 26 -43.5t6 -48.5v-389h-108zM203 248q-14 -5 -27.5 -15.5t-21.5 -24.5q-8 -13 -9.5 -27.5t-1.5 -27.5v-30q0 -18 1.5 -25.5t3.5 -11.5q4 -7 10.5 -11.5t14.5 -4.5q6 0 13 3t12 12
q2 3 3.5 11.5t1.5 30.5v121zM70 661l68 80l148 -148l-35 -47z" />
    <glyph glyph-name="aacute" unicode="&#xe1;" horiz-adv-x="356" 
d="M223 0l-14 38q-5 -8 -13.5 -17.5t-17.5 -15.5q-14 -10 -29.5 -12.5t-28.5 -2.5q-20 0 -43 6.5t-40 30.5q-15 20 -18.5 44.5t-3.5 42.5v24q0 26 10 60t48 64q13 10 42 25t88 35v69q0 4 -0.5 13t-3.5 15q-4 8 -10.5 10.5t-12.5 2.5t-12.5 -2.5t-10.5 -10.5q-3 -6 -3.5 -15
t-0.5 -13v-46h-124v50q0 20 4 42t24 44q26 27 59 34t64 7q29 0 62.5 -6.5t60.5 -34.5q20 -21 26 -43.5t6 -48.5v-389h-108zM203 248q-14 -5 -27.5 -15.5t-21.5 -24.5q-8 -13 -9.5 -27.5t-1.5 -27.5v-30q0 -18 1.5 -25.5t3.5 -11.5q4 -7 10.5 -11.5t14.5 -4.5q6 0 13 3t12 12
q2 3 3.5 11.5t1.5 30.5v121zM70 593l148 148l68 -80l-181 -115z" />
    <glyph glyph-name="acircumflex" unicode="&#xe2;" horiz-adv-x="356" 
d="M223 0l-14 38q-5 -8 -13.5 -17.5t-17.5 -15.5q-14 -10 -29.5 -12.5t-28.5 -2.5q-20 0 -43 6.5t-40 30.5q-15 20 -18.5 44.5t-3.5 42.5v24q0 26 10 60t48 64q13 10 42 25t88 35v69q0 4 -0.5 13t-3.5 15q-4 8 -10.5 10.5t-12.5 2.5t-12.5 -2.5t-10.5 -10.5q-3 -6 -3.5 -15
t-0.5 -13v-46h-124v50q0 20 4 42t24 44q26 27 59 34t64 7q29 0 62.5 -6.5t60.5 -34.5q20 -21 26 -43.5t6 -48.5v-389h-108zM203 248q-14 -5 -27.5 -15.5t-21.5 -24.5q-8 -13 -9.5 -27.5t-1.5 -27.5v-30q0 -18 1.5 -25.5t3.5 -11.5q4 -7 10.5 -11.5t14.5 -4.5q6 0 13 3t12 12
q2 3 3.5 11.5t1.5 30.5v121zM34 611l142 89l141 -89v-60l-141 58l-142 -58v60z" />
    <glyph glyph-name="atilde" unicode="&#xe3;" horiz-adv-x="356" 
d="M223 0l-14 38q-5 -8 -13.5 -17.5t-17.5 -15.5q-14 -10 -29.5 -12.5t-28.5 -2.5q-20 0 -43 6.5t-40 30.5q-15 20 -18.5 44.5t-3.5 42.5v24q0 26 10 60t48 64q13 10 42 25t88 35v69q0 4 -0.5 13t-3.5 15q-4 8 -10.5 10.5t-12.5 2.5t-12.5 -2.5t-10.5 -10.5q-3 -6 -3.5 -15
t-0.5 -13v-46h-124v50q0 20 4 42t24 44q26 27 59 34t64 7q29 0 62.5 -6.5t60.5 -34.5q20 -21 26 -43.5t6 -48.5v-389h-108zM203 248q-14 -5 -27.5 -15.5t-21.5 -24.5q-8 -13 -9.5 -27.5t-1.5 -27.5v-30q0 -18 1.5 -25.5t3.5 -11.5q4 -7 10.5 -11.5t14.5 -4.5q6 0 13 3t12 12
q2 3 3.5 11.5t1.5 30.5v121zM25 657q11 11 24 20t25 14q10 5 21.5 7t22.5 2q14 0 23.5 -3t20.5 -8l46 -22q18 -8 27.5 -11t15.5 -3q14 0 26.5 8t21.5 16l15 13l17 -70q-7 -7 -17.5 -15.5t-24.5 -16.5q-8 -5 -18.5 -8.5t-23.5 -3.5q-6 0 -13.5 1t-13.5 3q-5 2 -12.5 4.5
t-18.5 7.5l-40 18q-9 5 -20.5 8.5t-24.5 3.5q-8 0 -16.5 -2t-17.5 -7q-10 -5 -20 -15.5t-16 -18.5z" />
    <glyph glyph-name="adieresis" unicode="&#xe4;" horiz-adv-x="356" 
d="M223 0l-14 38q-5 -8 -13.5 -17.5t-17.5 -15.5q-14 -10 -29.5 -12.5t-28.5 -2.5q-20 0 -43 6.5t-40 30.5q-15 20 -18.5 44.5t-3.5 42.5v24q0 26 10 60t48 64q13 10 42 25t88 35v69q0 4 -0.5 13t-3.5 15q-4 8 -10.5 10.5t-12.5 2.5t-12.5 -2.5t-10.5 -10.5q-3 -6 -3.5 -15
t-0.5 -13v-46h-124v50q0 20 4 42t24 44q26 27 59 34t64 7q29 0 62.5 -6.5t60.5 -34.5q20 -21 26 -43.5t6 -48.5v-389h-108zM203 248q-14 -5 -27.5 -15.5t-21.5 -24.5q-8 -13 -9.5 -27.5t-1.5 -27.5v-30q0 -18 1.5 -25.5t3.5 -11.5q4 -7 10.5 -11.5t14.5 -4.5q6 0 13 3t12 12
q2 3 3.5 11.5t1.5 30.5v121zM209 583v120h107v-120h-107zM42 583v120h107v-120h-107z" />
    <glyph glyph-name="aring" unicode="&#xe5;" horiz-adv-x="356" 
d="M223 0l-14 38q-5 -8 -13.5 -17.5t-17.5 -15.5q-14 -10 -29.5 -12.5t-28.5 -2.5q-20 0 -43 6.5t-40 30.5q-15 20 -18.5 44.5t-3.5 42.5v24q0 26 10 60t48 64q13 10 42 25t88 35v69q0 4 -0.5 13t-3.5 15q-4 8 -10.5 10.5t-12.5 2.5t-12.5 -2.5t-10.5 -10.5q-3 -6 -3.5 -15
t-0.5 -13v-46h-124v50q0 20 4 42t24 44q26 27 59 34t64 7q29 0 62.5 -6.5t60.5 -34.5q20 -21 26 -43.5t6 -48.5v-389h-108zM203 248q-14 -5 -27.5 -15.5t-21.5 -24.5q-8 -13 -9.5 -27.5t-1.5 -27.5v-30q0 -18 1.5 -25.5t3.5 -11.5q4 -7 10.5 -11.5t14.5 -4.5q6 0 13 3t12 12
q2 3 3.5 11.5t1.5 30.5v121zM126 659q0 -23 15 -38t38 -15t38 15t15 38t-15 38t-38 15t-38 -15t-15 -38zM72 659q0 22 8.5 42t22.5 34t33.5 22.5t42.5 8.5q22 0 42 -8.5t34 -22.5t22.5 -34t8.5 -42q0 -23 -8.5 -42.5t-22.5 -33.5t-34 -22.5t-42 -8.5q-23 0 -42.5 8.5
t-33.5 22.5t-22.5 33.5t-8.5 42.5z" />
    <glyph glyph-name="ae" unicode="&#xe6;" horiz-adv-x="548" 
d="M518 117q0 -5 -0.5 -14t-3.5 -21t-9 -25t-16 -25q-25 -29 -56.5 -35.5t-59.5 -6.5q-25 0 -42 2.5t-29 7t-20.5 10.5t-17.5 12l-14 10l-20 -13q-11 -8 -21.5 -12t-15.5 -6q-28 -11 -58 -11q-34 0 -53 11.5t-30 25.5q-15 20 -18.5 44.5t-3.5 42.5v24q0 26 10 60t48 64
q13 10 42 25t88 35v69q0 4 -0.5 13t-3.5 15q-4 8 -10.5 10.5t-12.5 2.5t-12.5 -2.5t-10.5 -10.5q-3 -6 -3.5 -15t-0.5 -13v-46h-124v50q0 20 4 42t24 44q26 27 59 34t64 7q29 0 49 -3.5t43 -14.5q20 10 41 14t45 4q28 0 57 -8t49 -25q15 -12 23.5 -27t13 -30t5.5 -29.5
t1 -25.5v-143h-172v-106q0 -8 0.5 -16.5t5.5 -15.5q8 -12 24 -12q11 0 17 3.5t8 7.5q3 5 4 14.5t1 14.5v57h112v-64zM218 248q-14 -5 -27.5 -15.5t-21.5 -24.5q-8 -13 -9.5 -27.5t-1.5 -27.5v-30q0 -18 1.5 -25.5t3.5 -11.5q4 -7 10.5 -11.5t14.5 -4.5q6 0 13 3t12 12
q2 3 3.5 11.5t1.5 30.5v121zM398 391q0 5 -0.5 13.5t-4.5 13.5q-4 7 -10 8.5t-11 1.5q-9 0 -14 -3.5t-7 -6.5q-4 -5 -4.5 -14t-0.5 -14v-76h52v77z" />
    <glyph glyph-name="ccedilla" unicode="&#xe7;" horiz-adv-x="351" 
d="M331 154q0 -43 -3.5 -65t-9.5 -34q-11 -23 -39 -43t-73 -21v-23q23 2 42.5 -7t30.5 -21q2 -2 10 -16t8 -40q0 -20 -7 -34t-15 -23q-17 -17 -35.5 -22t-37.5 -5q-15 0 -27 1t-23 2q-9 1 -15.5 2t-16.5 3v58q9 -2 18 -3.5t18 -3.5q8 -1 18 -2t18 -1t13 2t10 10q5 9 5 19
q0 7 -1 12.5t-6 11.5q-8 10 -15.5 11.5t-16.5 1.5h-39v68q-8 1 -19.5 3.5t-25 9t-27.5 18.5t-25 32q-16 27 -18 53t-2 52v207q0 26 3.5 51t21.5 50q12 17 27.5 27.5t32.5 16.5t34.5 8t33.5 2q54 0 84 -17t44 -37q17 -23 21 -54.5t4 -63.5v-35h-124v61q0 18 -1.5 27t-4.5 14
q-5 8 -10 9.5t-11 1.5t-11 -1.5t-10 -9.5q-3 -5 -4.5 -14t-1.5 -27v-234q0 -17 1 -28t6 -18q7 -12 22 -12t22 12q5 10 6 22t1 24v54h120v-42z" />
    <glyph glyph-name="egrave" unicode="&#xe8;" horiz-adv-x="360" 
d="M335 117q0 -31 -10.5 -52t-21.5 -33q-26 -28 -58.5 -35t-64.5 -7q-31 0 -59.5 7t-54.5 33q-26 27 -33.5 58t-7.5 60v210q0 27 5 59.5t30 59.5q20 21 51.5 33t67.5 12q38 0 68.5 -12t50.5 -33q15 -15 22.5 -30t10.5 -30t3.5 -30t0.5 -29v-130h-182v-114q0 -8 2.5 -13.5
t4.5 -7.5q5 -7 11 -8t11 -1q8 0 13 1t10 8q5 6 5.5 12t0.5 12v43h124v-43zM207 391q0 11 -1.5 17t-3.5 9q-5 8 -11.5 9.5t-11.5 1.5q-3 0 -9.5 -1.5t-11.5 -9.5q-2 -4 -3.5 -10t-1.5 -17v-82h54v83zM71 661l68 80l148 -148l-35 -47z" />
    <glyph glyph-name="eacute" unicode="&#xe9;" horiz-adv-x="360" 
d="M335 117q0 -31 -10.5 -52t-21.5 -33q-26 -28 -58.5 -35t-64.5 -7q-31 0 -59.5 7t-54.5 33q-26 27 -33.5 58t-7.5 60v210q0 27 5 59.5t30 59.5q20 21 51.5 33t67.5 12q38 0 68.5 -12t50.5 -33q15 -15 22.5 -30t10.5 -30t3.5 -30t0.5 -29v-130h-182v-114q0 -8 2.5 -13.5
t4.5 -7.5q5 -7 11 -8t11 -1q8 0 13 1t10 8q5 6 5.5 12t0.5 12v43h124v-43zM207 391q0 11 -1.5 17t-3.5 9q-5 8 -11.5 9.5t-11.5 1.5q-3 0 -9.5 -1.5t-11.5 -9.5q-2 -4 -3.5 -10t-1.5 -17v-82h54v83zM71 593l148 148l68 -80l-181 -115z" />
    <glyph glyph-name="ecircumflex" unicode="&#xea;" horiz-adv-x="360" 
d="M335 117q0 -31 -10.5 -52t-21.5 -33q-26 -28 -58.5 -35t-64.5 -7q-31 0 -59.5 7t-54.5 33q-26 27 -33.5 58t-7.5 60v210q0 27 5 59.5t30 59.5q20 21 51.5 33t67.5 12q38 0 68.5 -12t50.5 -33q15 -15 22.5 -30t10.5 -30t3.5 -30t0.5 -29v-130h-182v-114q0 -8 2.5 -13.5
t4.5 -7.5q5 -7 11 -8t11 -1q8 0 13 1t10 8q5 6 5.5 12t0.5 12v43h124v-43zM207 391q0 11 -1.5 17t-3.5 9q-5 8 -11.5 9.5t-11.5 1.5q-3 0 -9.5 -1.5t-11.5 -9.5q-2 -4 -3.5 -10t-1.5 -17v-82h54v83zM36 611l142 89l141 -89v-60l-141 58l-142 -58v60z" />
    <glyph glyph-name="edieresis" unicode="&#xeb;" horiz-adv-x="360" 
d="M335 117q0 -31 -10.5 -52t-21.5 -33q-26 -28 -58.5 -35t-64.5 -7q-31 0 -59.5 7t-54.5 33q-26 27 -33.5 58t-7.5 60v210q0 27 5 59.5t30 59.5q20 21 51.5 33t67.5 12q38 0 68.5 -12t50.5 -33q15 -15 22.5 -30t10.5 -30t3.5 -30t0.5 -29v-130h-182v-114q0 -8 2.5 -13.5
t4.5 -7.5q5 -7 11 -8t11 -1q8 0 13 1t10 8q5 6 5.5 12t0.5 12v43h124v-43zM207 391q0 11 -1.5 17t-3.5 9q-5 8 -11.5 9.5t-11.5 1.5q-3 0 -9.5 -1.5t-11.5 -9.5q-2 -4 -3.5 -10t-1.5 -17v-82h54v83zM211 579v120h107v-120h-107zM44 579v120h107v-120h-107z" />
    <glyph glyph-name="igrave" unicode="&#xec;" horiz-adv-x="188" 
d="M30 0v512h128v-512h-128zM-14 661l68 80l148 -148l-35 -47z" />
    <glyph glyph-name="iacute" unicode="&#xed;" horiz-adv-x="188" 
d="M30 0v512h128v-512h-128zM-14 593l148 148l68 -80l-181 -115z" />
    <glyph glyph-name="icircumflex" unicode="&#xee;" horiz-adv-x="188" 
d="M30 0v512h128v-512h-128zM-48 611l142 89l141 -89v-60l-141 58l-142 -58v60z" />
    <glyph glyph-name="idieresis" unicode="&#xef;" horiz-adv-x="188" 
d="M30 0v512h128v-512h-128zM124 580v120h107v-120h-107zM-43 580v120h107v-120h-107z" />
    <glyph glyph-name="eth" unicode="&#xf0;" horiz-adv-x="360" 
d="M212 700l27 -35l70 30l20 -51l-52 -22q10 -14 23 -36.5t20 -39.5q10 -26 12.5 -54t2.5 -53v-322q0 -31 -10.5 -52t-21.5 -33q-26 -28 -58.5 -35t-64.5 -7q-30 0 -59.5 7t-55.5 31q-24 22 -32 45t-8 44v285q0 23 3.5 46.5t17.5 42.5q5 6 20.5 18.5t44.5 12.5q19 0 36.5 -6
t31.5 -22q4 -4 10 -12t18 -26q2 29 -4.5 50.5t-15.5 35.5l-28 44l-68 -28l-26 49l66 25l-53 68h134zM207 364q0 10 -1.5 23t-3.5 23q-4 16 -11 21.5t-14 5.5q-9 0 -13 -5t-6 -10q-4 -10 -4.5 -19t-0.5 -20v-246q0 -20 1.5 -29.5t5.5 -14.5q5 -6 10 -7.5t10 -1.5q14 0 20 9
q5 6 6 16.5t1 27.5v227z" />
    <glyph glyph-name="ntilde" unicode="&#xf1;" horiz-adv-x="365" 
d="M212 0v385q0 19 -1.5 27t-3.5 12t-7 7t-14 3t-14 -5t-9 -13q-5 -13 -5 -31v-385h-128v512h121l3 -48q7 11 16.5 22t23.5 20t28 12.5t31 3.5q23 0 38 -7.5t23 -15.5q20 -20 23 -46.5t3 -55.5v-397h-128zM29 657q11 11 24 20t25 14q10 5 21.5 7t22.5 2q14 0 23.5 -3
t20.5 -8l46 -22q18 -8 27.5 -11t15.5 -3q14 0 26.5 8t21.5 16l15 13l17 -70q-7 -7 -17.5 -15.5t-24.5 -16.5q-8 -5 -18.5 -8.5t-23.5 -3.5q-6 0 -13.5 1t-13.5 3q-5 2 -12.5 4.5t-18.5 7.5l-40 18q-9 5 -20.5 8.5t-24.5 3.5q-8 0 -16.5 -2t-17.5 -7q-10 -5 -20 -15.5
t-16 -18.5z" />
    <glyph glyph-name="ograve" unicode="&#xf2;" horiz-adv-x="360" 
d="M153 122v-13t5 -14q7 -11 22 -11t22 11q5 7 5 14v13v268v13t-5 14q-7 11 -22 11t-22 -11q-5 -7 -5 -14v-13v-268zM335 137q0 -24 -5.5 -52.5t-28.5 -52.5q-15 -16 -44 -29t-77 -13t-77 13t-44 29q-23 24 -28.5 52.5t-5.5 52.5v238q0 24 5.5 52.5t28.5 52.5q15 16 44 29
t77 13t77 -13t44 -29q23 -24 28.5 -52.5t5.5 -52.5v-238zM71 661l68 80l148 -148l-35 -47z" />
    <glyph glyph-name="oacute" unicode="&#xf3;" horiz-adv-x="360" 
d="M153 122v-13t5 -14q7 -11 22 -11t22 11q5 7 5 14v13v268v13t-5 14q-7 11 -22 11t-22 -11q-5 -7 -5 -14v-13v-268zM335 137q0 -24 -5.5 -52.5t-28.5 -52.5q-15 -16 -44 -29t-77 -13t-77 13t-44 29q-23 24 -28.5 52.5t-5.5 52.5v238q0 24 5.5 52.5t28.5 52.5q15 16 44 29
t77 13t77 -13t44 -29q23 -24 28.5 -52.5t5.5 -52.5v-238zM71 593l148 148l68 -80l-181 -115z" />
    <glyph glyph-name="ocircumflex" unicode="&#xf4;" horiz-adv-x="360" 
d="M153 122v-13t5 -14q7 -11 22 -11t22 11q5 7 5 14v13v268v13t-5 14q-7 11 -22 11t-22 -11q-5 -7 -5 -14v-13v-268zM335 137q0 -24 -5.5 -52.5t-28.5 -52.5q-15 -16 -44 -29t-77 -13t-77 13t-44 29q-23 24 -28.5 52.5t-5.5 52.5v238q0 24 5.5 52.5t28.5 52.5q15 16 44 29
t77 13t77 -13t44 -29q23 -24 28.5 -52.5t5.5 -52.5v-238zM36 611l142 89l141 -89v-60l-141 58l-142 -58v60z" />
    <glyph glyph-name="otilde" unicode="&#xf5;" horiz-adv-x="360" 
d="M153 122v-13t5 -14q7 -11 22 -11t22 11q5 7 5 14v13v268v13t-5 14q-7 11 -22 11t-22 -11q-5 -7 -5 -14v-13v-268zM335 137q0 -24 -5.5 -52.5t-28.5 -52.5q-15 -16 -44 -29t-77 -13t-77 13t-44 29q-23 24 -28.5 52.5t-5.5 52.5v238q0 24 5.5 52.5t28.5 52.5q15 16 44 29
t77 13t77 -13t44 -29q23 -24 28.5 -52.5t5.5 -52.5v-238zM27 657q11 11 24 20t25 14q10 5 21.5 7t22.5 2q14 0 23.5 -3t20.5 -8l46 -22q18 -8 27.5 -11t15.5 -3q14 0 26.5 8t21.5 16l15 13l17 -70q-7 -7 -17.5 -15.5t-24.5 -16.5q-8 -5 -18.5 -8.5t-23.5 -3.5q-6 0 -13.5 1
t-13.5 3q-5 2 -12.5 4.5t-18.5 7.5l-40 18q-9 5 -20.5 8.5t-24.5 3.5q-8 0 -16.5 -2t-17.5 -7q-10 -5 -20 -15.5t-16 -18.5z" />
    <glyph glyph-name="odieresis" unicode="&#xf6;" horiz-adv-x="360" 
d="M153 122v-13t5 -14q7 -11 22 -11t22 11q5 7 5 14v13v268v13t-5 14q-7 11 -22 11t-22 -11q-5 -7 -5 -14v-13v-268zM335 137q0 -24 -5.5 -52.5t-28.5 -52.5q-15 -16 -44 -29t-77 -13t-77 13t-44 29q-23 24 -28.5 52.5t-5.5 52.5v238q0 24 5.5 52.5t28.5 52.5q15 16 44 29
t77 13t77 -13t44 -29q23 -24 28.5 -52.5t5.5 -52.5v-238zM214 580v120h107v-120h-107zM47 580v120h107v-120h-107z" />
    <glyph glyph-name="divide" unicode="&#xf7;" horiz-adv-x="572" 
d="M40 391h492v-76h-492v76zM239 234h94v-100h-94v100zM239 572h94v-100h-94v100z" />
    <glyph glyph-name="oslash" unicode="&#xf8;" horiz-adv-x="368" 
d="M-19 -40l59 99q-8 16 -9 28t-1 26v284q0 26 8 52.5t41 47.5q24 16 53.5 20.5t54.5 4.5q31 0 55.5 -6.5t50.5 -22.5l35 57h55l-57 -97q8 -17 10 -30t2 -27v-284q0 -22 -6.5 -48.5t-32.5 -46.5q-12 -9 -27 -14.5t-31 -8.5t-30.5 -3.5t-24.5 -0.5q-32 0 -56.5 5.5
t-50.5 19.5l-37 -55h-61zM156 133q0 -9 1 -19.5t4 -16.5q7 -13 20 -13q6 0 12.5 2.5t11.5 10.5q6 10 6 37v115l-55 -94v-22zM212 330v56q0 6 -1.5 15t-6.5 16q-7 9 -20 9q-5 0 -10 -2t-9 -7q-3 -4 -5.5 -11.5t-2.5 -21.5v-148z" />
    <glyph glyph-name="ugrave" unicode="&#xf9;" horiz-adv-x="365" 
d="M153 512v-385q0 -6 0.5 -17.5t2.5 -16.5q4 -15 19 -15q9 0 15.5 6.5t10.5 15.5q2 7 4 20t2 20v372h128v-512h-124v48l-6 3q-6 -13 -15 -25t-19 -20q-21 -16 -59 -16q-20 0 -35.5 6.5t-25.5 16.5q-20 20 -23 47.5t-3 50.5v401h128zM74 661l68 80l148 -148l-35 -47z" />
    <glyph glyph-name="uacute" unicode="&#xfa;" horiz-adv-x="365" 
d="M153 512v-385q0 -6 0.5 -17.5t2.5 -16.5q4 -15 19 -15q9 0 15.5 6.5t10.5 15.5q2 7 4 20t2 20v372h128v-512h-124v48l-6 3q-6 -13 -15 -25t-19 -20q-21 -16 -59 -16q-20 0 -35.5 6.5t-25.5 16.5q-20 20 -23 47.5t-3 50.5v401h128zM74 593l148 148l68 -80l-181 -115z" />
    <glyph glyph-name="ucircumflex" unicode="&#xfb;" horiz-adv-x="365" 
d="M153 512v-385q0 -6 0.5 -17.5t2.5 -16.5q4 -15 19 -15q9 0 15.5 6.5t10.5 15.5q2 7 4 20t2 20v372h128v-512h-124v48l-6 3q-6 -13 -15 -25t-19 -20q-21 -16 -59 -16q-20 0 -35.5 6.5t-25.5 16.5q-20 20 -23 47.5t-3 50.5v401h128zM39 611l142 89l141 -89v-60l-141 58
l-142 -58v60z" />
    <glyph glyph-name="udieresis" unicode="&#xfc;" horiz-adv-x="365" 
d="M153 512v-385q0 -6 0.5 -17.5t2.5 -16.5q4 -15 19 -15q9 0 15.5 6.5t10.5 15.5q2 7 4 20t2 20v372h128v-512h-124v48l-6 3q-6 -13 -15 -25t-19 -20q-21 -16 -59 -16q-20 0 -35.5 6.5t-25.5 16.5q-20 20 -23 47.5t-3 50.5v401h128zM210 578v120h107v-120h-107zM43 578v120
h107v-120h-107z" />
    <glyph glyph-name="yacute" unicode="&#xfd;" horiz-adv-x="348" 
d="M19 -58h52q12 0 26 3.5t23 20.5q7 13 6 28t-4 27l-118 491h128l44 -270h4l36 270h128l-103 -538q-5 -26 -13.5 -46.5t-29.5 -40.5q-26 -26 -51 -30.5t-56 -4.5h-72v90zM102 593l148 148l68 -80l-181 -115z" />
    <glyph glyph-name="thorn" unicode="&#xfe;" horiz-adv-x="365" 
d="M30 -150v850h128v-243q5 8 13 19t14 18q13 14 31 21t38 7q14 0 29 -6t29 -21q20 -20 24 -40.5t4 -41.5v-299q0 -23 -3 -48t-18 -45q-5 -6 -20.5 -18.5t-44.5 -12.5q-19 0 -36.5 6t-31.5 22q-8 8 -16.5 20.5t-11.5 17.5v-206h-128zM158 152q0 -12 0.5 -24t4.5 -26
q2 -6 6 -16.5t15 -10.5q5 0 11 0.5t11 11.5q4 8 5 17t1 22v253q0 5 -0.5 19.5t-2.5 20.5q-4 16 -20 16q-13 0 -22 -11q-6 -8 -7.5 -19t-1.5 -21v-232z" />
    <glyph glyph-name="ydieresis" unicode="&#xff;" horiz-adv-x="348" 
d="M19 -58h52q12 0 26 3.5t23 20.5q7 13 6 28t-4 27l-118 491h128l44 -270h4l36 270h128l-103 -538q-5 -26 -13.5 -46.5t-29.5 -40.5q-26 -26 -51 -30.5t-56 -4.5h-72v90zM204 576v120h107v-120h-107zM37 576v120h107v-120h-107z" />
    <glyph glyph-name="Amacron" unicode="&#x100;" horiz-adv-x="384" 
d="M231 0l-8 89h-62l-8 -89h-143l67 700h232l65 -700h-143zM219 187l-24 406h-4l-26 -406h54zM62 840h256v-78h-256v78z" />
    <glyph glyph-name="amacron" unicode="&#x101;" horiz-adv-x="356" 
d="M223 0l-14 38q-5 -8 -13.5 -17.5t-17.5 -15.5q-14 -10 -29.5 -12.5t-28.5 -2.5q-20 0 -43 6.5t-40 30.5q-15 20 -18.5 44.5t-3.5 42.5v24q0 26 10 60t48 64q13 10 42 25t88 35v69q0 4 -0.5 13t-3.5 15q-4 8 -10.5 10.5t-12.5 2.5t-12.5 -2.5t-10.5 -10.5q-3 -6 -3.5 -15
t-0.5 -13v-46h-124v50q0 20 4 42t24 44q26 27 59 34t64 7q29 0 62.5 -6.5t60.5 -34.5q20 -21 26 -43.5t6 -48.5v-389h-108zM203 248q-14 -5 -27.5 -15.5t-21.5 -24.5q-8 -13 -9.5 -27.5t-1.5 -27.5v-30q0 -18 1.5 -25.5t3.5 -11.5q4 -7 10.5 -11.5t14.5 -4.5q6 0 13 3t12 12
q2 3 3.5 11.5t1.5 30.5v121zM49 679h256v-78h-256v78z" />
    <glyph glyph-name="Abreve" unicode="&#x102;" horiz-adv-x="384" 
d="M231 0l-8 89h-62l-8 -89h-143l67 700h232l65 -700h-143zM219 187l-24 406h-4l-26 -406h54zM332 857q-1 -25 -12 -52t-40 -49q-22 -17 -45 -23t-49 -6t-49 6t-45 23q-29 22 -40 49t-12 52h97q-1 -10 1 -21.5t7 -19.5t17 -15t25 -7q5 0 18 3t22 19q6 10 7.5 21.5t0.5 19.5
h97z" />
    <glyph glyph-name="abreve" unicode="&#x103;" horiz-adv-x="356" 
d="M223 0l-14 38q-5 -8 -13.5 -17.5t-17.5 -15.5q-14 -10 -29.5 -12.5t-28.5 -2.5q-20 0 -43 6.5t-40 30.5q-15 20 -18.5 44.5t-3.5 42.5v24q0 26 10 60t48 64q13 10 42 25t88 35v69q0 4 -0.5 13t-3.5 15q-4 8 -10.5 10.5t-12.5 2.5t-12.5 -2.5t-10.5 -10.5q-3 -6 -3.5 -15
t-0.5 -13v-46h-124v50q0 20 4 42t24 44q26 27 59 34t64 7q29 0 62.5 -6.5t60.5 -34.5q20 -21 26 -43.5t6 -48.5v-389h-108zM203 248q-14 -5 -27.5 -15.5t-21.5 -24.5q-8 -13 -9.5 -27.5t-1.5 -27.5v-30q0 -18 1.5 -25.5t3.5 -11.5q4 -7 10.5 -11.5t14.5 -4.5q6 0 13 3t12 12
q2 3 3.5 11.5t1.5 30.5v121zM326 703q-1 -25 -12 -52t-40 -49q-22 -17 -45 -23t-49 -6t-49 6t-45 23q-29 22 -40 49t-12 52h97q-1 -10 1 -21.5t7 -19.5t17 -15t25 -7q5 0 18 3t22 19q6 10 7.5 21.5t0.5 19.5h97z" />
    <glyph glyph-name="Aogonek" unicode="&#x104;" horiz-adv-x="387" 
d="M376 0q-14 -17 -21.5 -28t-18.5 -27q-5 -8 -15 -25t-10 -31q0 -9 3 -15t7 -9q13 -10 45 -10h19v-55h-35q-25 0 -48 2.5t-44 18.5q-13 10 -21.5 24.5t-8.5 34.5q0 23 9.5 42t14.5 27q9 14 22.5 27.5t26.5 23.5h-67l-8 89h-65l-8 -89h-143l70 700h232l65 -700h-1zM218 187
l-20 406h-4l-25 -406h49z" />
    <glyph glyph-name="aogonek" unicode="&#x105;" horiz-adv-x="356" 
d="M223 0l-14 38q-5 -8 -13.5 -17.5t-17.5 -15.5q-14 -10 -29.5 -12.5t-28.5 -2.5q-20 0 -43 6.5t-40 30.5q-15 20 -18.5 44.5t-3.5 42.5v24q0 26 10 60t48 64q13 10 42 25t88 35v69q0 4 -0.5 13t-3.5 15q-4 8 -10.5 10.5t-12.5 2.5t-12.5 -2.5t-10.5 -10.5q-3 -6 -3.5 -15
t-0.5 -13v-46h-124v50q0 20 4 42t24 44q26 27 59 34t64 7q29 0 62.5 -6.5t60.5 -34.5q20 -21 26 -43.5t6 -48.5v-389q-14 -16 -23 -28.5t-19 -26.5q-25 -38 -25 -56q0 -9 3 -15t7 -9q13 -10 45 -10h19v-55h-35q-25 0 -48 2.5t-44 18.5q-13 10 -21.5 24.5t-8.5 34.5
q0 23 9.5 42t14.5 27q9 14 22.5 27.5t26.5 23.5h-31zM203 248q-14 -5 -27.5 -15.5t-21.5 -24.5q-8 -13 -9.5 -27.5t-1.5 -27.5v-30q0 -18 1.5 -25.5t3.5 -11.5q4 -7 10.5 -11.5t14.5 -4.5q6 0 13 3t12 12q2 3 3.5 11.5t1.5 30.5v121z" />
    <glyph glyph-name="Cacute" unicode="&#x106;" horiz-adv-x="405" 
d="M242 479v70q0 7 -1 17.5t-3 17.5q-5 14 -14 17.5t-18 3.5t-18 -3.5t-14 -17.5q-2 -7 -3 -17.5t-1 -17.5v-398q0 -6 1 -17t3 -18q5 -14 15 -17.5t17 -3.5t17 3.5t15 17.5q2 7 3 18t1 17v110h138v-107q0 -33 -7.5 -64t-38.5 -59q-29 -26 -64 -33.5t-64 -7.5q-51 0 -81 13
t-47 28q-29 27 -37.5 59t-8.5 64v392q0 32 8.5 64t37.5 59q17 15 47 28t81 13q29 0 64 -7.5t64 -33.5q31 -28 38.5 -59t7.5 -64v-67h-138zM72 778l244 109l37 -98l-263 -59z" />
    <glyph glyph-name="cacute" unicode="&#x107;" horiz-adv-x="351" 
d="M331 154q0 -43 -3.5 -65t-9.5 -34q-11 -22 -28 -35t-36.5 -19.5t-38.5 -8.5t-33 -2q-18 0 -37 2t-37 8.5t-34.5 19.5t-28.5 34q-15 26 -17.5 52t-2.5 54v207q0 26 3.5 51t21.5 50q12 17 27.5 27.5t32.5 16.5t34.5 8t33.5 2q54 0 84 -17t44 -37q17 -23 21 -54.5t4 -63.5
v-35h-124v61q0 18 -1.5 27t-4.5 14q-5 8 -10 9.5t-11 1.5t-11 -1.5t-10 -9.5q-3 -5 -4.5 -14t-1.5 -27v-234q0 -18 1 -28t5 -17q5 -8 10 -10.5t13 -2.5q16 0 23 12q3 5 4.5 15.5t1.5 30.5v54h120v-42zM67 593l148 148l68 -80l-181 -115z" />
    <glyph glyph-name="Ccircumflex" unicode="&#x108;" horiz-adv-x="405" 
d="M242 479v70q0 7 -1 17.5t-3 17.5q-5 14 -14 17.5t-18 3.5t-18 -3.5t-14 -17.5q-2 -7 -3 -17.5t-1 -17.5v-398q0 -6 1 -17t3 -18q5 -14 15 -17.5t17 -3.5t17 3.5t15 17.5q2 7 3 18t1 17v110h138v-107q0 -33 -7.5 -64t-38.5 -59q-29 -26 -64 -33.5t-64 -7.5q-51 0 -81 13
t-47 28q-29 27 -37.5 59t-8.5 64v392q0 32 8.5 64t37.5 59q17 15 47 28t81 13q29 0 64 -7.5t64 -33.5q31 -28 38.5 -59t7.5 -64v-67h-138zM59 790l142 89l141 -89v-60l-141 58l-142 -58v60z" />
    <glyph glyph-name="ccircumflex" unicode="&#x109;" horiz-adv-x="351" 
d="M331 154q0 -43 -3.5 -65t-9.5 -34q-11 -22 -28 -35t-36.5 -19.5t-38.5 -8.5t-33 -2q-18 0 -37 2t-37 8.5t-34.5 19.5t-28.5 34q-15 26 -17.5 52t-2.5 54v207q0 26 3.5 51t21.5 50q12 17 27.5 27.5t32.5 16.5t34.5 8t33.5 2q54 0 84 -17t44 -37q17 -23 21 -54.5t4 -63.5
v-35h-124v61q0 18 -1.5 27t-4.5 14q-5 8 -10 9.5t-11 1.5t-11 -1.5t-10 -9.5q-3 -5 -4.5 -14t-1.5 -27v-234q0 -18 1 -28t5 -17q5 -8 10 -10.5t13 -2.5q16 0 23 12q3 5 4.5 15.5t1.5 30.5v54h120v-42zM32 611l142 89l141 -89v-60l-141 58l-142 -58v60z" />
    <glyph glyph-name="Ccaron" unicode="&#x10c;" horiz-adv-x="405" 
d="M242 479v70q0 7 -1 17.5t-3 17.5q-5 14 -14 17.5t-18 3.5t-18 -3.5t-14 -17.5q-2 -7 -3 -17.5t-1 -17.5v-398q0 -6 1 -17t3 -18q5 -14 15 -17.5t17 -3.5t17 3.5t15 17.5q2 7 3 18t1 17v110h138v-107q0 -33 -7.5 -64t-38.5 -59q-29 -26 -64 -33.5t-64 -7.5q-51 0 -81 13
t-47 28q-29 27 -37.5 59t-8.5 64v392q0 32 8.5 64t37.5 59q17 15 47 28t81 13q29 0 64 -7.5t64 -33.5q31 -28 38.5 -59t7.5 -64v-67h-138zM201 811l141 58v-60l-141 -89l-142 89v60z" />
    <glyph glyph-name="ccaron" unicode="&#x10d;" horiz-adv-x="351" 
d="M331 154q0 -43 -3.5 -65t-9.5 -34q-11 -22 -28 -35t-36.5 -19.5t-38.5 -8.5t-33 -2q-18 0 -37 2t-37 8.5t-34.5 19.5t-28.5 34q-15 26 -17.5 52t-2.5 54v207q0 26 3.5 51t21.5 50q12 17 27.5 27.5t32.5 16.5t34.5 8t33.5 2q54 0 84 -17t44 -37q17 -23 21 -54.5t4 -63.5
v-35h-124v61q0 18 -1.5 27t-4.5 14q-5 8 -10 9.5t-11 1.5t-11 -1.5t-10 -9.5q-3 -5 -4.5 -14t-1.5 -27v-234q0 -18 1 -28t5 -17q5 -8 10 -10.5t13 -2.5q16 0 23 12q3 5 4.5 15.5t1.5 30.5v54h120v-42zM174 661l141 58v-60l-141 -89l-142 89v60z" />
    <glyph glyph-name="Dcaron" unicode="&#x10e;" horiz-adv-x="415" 
d="M35 700h218q29 0 52.5 -10t38.5 -24q26 -26 32.5 -60.5t6.5 -63.5v-374q0 -27 -7.5 -60.5t-34.5 -63.5q-27 -29 -56 -36.5t-59 -7.5h-191v700zM201 95q9 0 16 3.5t11.5 8t7 9t2.5 5.5q5 11 6 22.5t1 23.5v372q0 12 -0.5 24t-6.5 22q-7 12 -15.5 14.5t-16.5 2.5h-33v-507
h28zM206 811l141 58v-60l-141 -89l-142 89v60z" />
    <glyph glyph-name="dcaron" unicode="&#x10f;" horiz-adv-x="457" 
d="M497 581l-65 -108h-54l45 117h-42v110h116v-119zM340 700v-700h-128v55q-8 -22 -24 -38q-13 -13 -28.5 -20t-35.5 -7t-37 7t-28 18q-23 22 -26 47.5t-3 52.5v287q0 23 3.5 46.5t17.5 42.5q8 10 23.5 20.5t41.5 10.5q23 0 39 -7t29 -21q11 -11 18.5 -22.5t9.5 -15.5v244
h128zM212 364q0 10 -1.5 23t-3.5 23q-4 16 -11 21.5t-14 5.5q-9 0 -13 -5t-6 -10q-4 -10 -4.5 -19t-0.5 -20v-245q0 -23 1.5 -33t4.5 -15q6 -13 20 -13q13 0 19 11t7.5 22t1.5 23v231z" />
    <glyph glyph-name="Dcroat" unicode="&#x110;" horiz-adv-x="428" 
d="M48 335h-58v84h58v281h218q29 0 52.5 -10t38.5 -24q26 -26 32.5 -60.5t6.5 -63.5v-374q0 -27 -7.5 -60.5t-34.5 -63.5q-27 -29 -56 -36.5t-59 -7.5h-191v335zM214 95q9 0 16 3.5t11.5 8t7 9t2.5 5.5q5 11 6 22.5t1 23.5v372v22t-8 24q-6 11 -13 14t-18 3h-33v-183h47v-83
h-47v-241h28z" />
    <glyph glyph-name="dcroat" unicode="&#x111;" horiz-adv-x="366" 
d="M207 0v55q-8 -22 -24 -38q-13 -13 -28.5 -20t-35.5 -7t-37 7t-28 18q-23 22 -26 47.5t-3 52.5v287q0 23 3.5 46.5t17.5 42.5q5 6 20.5 18.5t44.5 12.5q26 0 42 -8.5t26 -19.5q2 -2 8 -10t20 -28v137h-106v69h106v38h128v-38h61v-69h-61v-593h-128zM207 364q0 10 -1.5 23
t-3.5 23q-4 16 -11 21.5t-14 5.5q-9 0 -13 -5t-6 -10q-4 -10 -4.5 -19t-0.5 -20v-245q0 -23 1.5 -33t4.5 -15q7 -13 20 -13t19 11t7.5 22t1.5 23v231z" />
    <glyph glyph-name="Emacron" unicode="&#x112;" horiz-adv-x="369" 
d="M35 700h313v-98h-175v-168h132v-98h-132v-238h191v-98h-329v700zM68 840h256v-78h-256v78z" />
    <glyph glyph-name="emacron" unicode="&#x113;" horiz-adv-x="360" 
d="M335 117q0 -31 -10.5 -52t-21.5 -33q-26 -28 -58.5 -35t-64.5 -7q-31 0 -59.5 7t-54.5 33q-26 27 -33.5 58t-7.5 60v210q0 27 5 59.5t30 59.5q20 21 51.5 33t67.5 12q38 0 68.5 -12t50.5 -33q15 -15 22.5 -30t10.5 -30t3.5 -30t0.5 -29v-130h-182v-114q0 -8 2.5 -13.5
t4.5 -7.5q5 -7 11 -8t11 -1q8 0 13 1t10 8q5 6 5.5 12t0.5 12v43h124v-43zM207 391q0 11 -1.5 17t-3.5 9q-5 8 -11.5 9.5t-11.5 1.5q-3 0 -9.5 -1.5t-11.5 -9.5q-2 -4 -3.5 -10t-1.5 -17v-82h54v83zM50 680h256v-78h-256v78z" />
    <glyph glyph-name="Edotaccent" unicode="&#x116;" horiz-adv-x="369" 
d="M35 700h313v-98h-175v-168h132v-98h-132v-238h191v-98h-329v700zM127 746v122h139v-122h-139z" />
    <glyph glyph-name="edotaccent" unicode="&#x117;" horiz-adv-x="360" 
d="M335 117q0 -31 -10.5 -52t-21.5 -33q-26 -28 -58.5 -35t-64.5 -7q-31 0 -59.5 7t-54.5 33q-26 27 -33.5 58t-7.5 60v210q0 27 5 59.5t30 59.5q20 21 51.5 33t67.5 12q38 0 68.5 -12t50.5 -33q15 -15 22.5 -30t10.5 -30t3.5 -30t0.5 -29v-130h-182v-114q0 -8 2.5 -13.5
t4.5 -7.5q5 -7 11 -8t11 -1q8 0 13 1t10 8q5 6 5.5 12t0.5 12v43h124v-43zM207 391q0 11 -1.5 17t-3.5 9q-5 8 -11.5 9.5t-11.5 1.5q-3 0 -9.5 -1.5t-11.5 -9.5q-2 -4 -3.5 -10t-1.5 -17v-82h54v83zM114 579v122h139v-122h-139z" />
    <glyph glyph-name="Eogonek" unicode="&#x118;" horiz-adv-x="369" 
d="M35 700h313v-98h-175v-168h132v-98h-132v-238h191v-98h-10q-14 -17 -21.5 -28t-18.5 -27q-5 -8 -15 -25t-10 -31q0 -9 3 -15t7 -9q13 -10 45 -10h19v-55h-35q-25 0 -48 2.5t-44 18.5q-13 10 -21.5 24.5t-8.5 34.5q0 23 9.5 42t14.5 27q9 14 22.5 27.5t26.5 23.5h-244v700
z" />
    <glyph glyph-name="eogonek" unicode="&#x119;" horiz-adv-x="350" 
d="M325 117q0 -5 -0.5 -14t-3.5 -21t-9 -25t-16 -25q-14 -17 -28.5 -24.5t-23.5 -9.5q-14 -17 -21.5 -28t-16.5 -25q-5 -8 -15 -25t-10 -31q0 -9 3 -15t7 -9q13 -10 45 -10h19v-55h-35q-25 0 -48 2.5t-44 18.5q-13 10 -21.5 24.5t-8.5 34.5q0 23 9.5 42t14.5 27
q7 11 17.5 22.5t19.5 19.5q-24 0 -50.5 8.5t-46.5 28.5q-13 13 -20.5 28.5t-11 30.5t-4.5 29.5t-1 25.5v241q0 45 14 69t28 36q23 20 52 27t57 7t57 -8t49 -25q15 -12 23.5 -27t13 -30t5.5 -29.5t1 -25.5v-143h-172v-106q0 -8 0.5 -16.5t5.5 -15.5q8 -12 24 -12q11 0 17 3.5
t8 7.5q3 5 4 14.5t1 14.5v57h112v-64zM205 391q0 5 -0.5 13.5t-4.5 13.5q-4 7 -10 8.5t-11 1.5q-9 0 -14 -3.5t-7 -6.5q-4 -5 -4.5 -14t-0.5 -14v-76h52v77z" />
    <glyph glyph-name="Ecaron" unicode="&#x11a;" horiz-adv-x="369" 
d="M35 700h313v-98h-175v-168h132v-98h-132v-238h191v-98h-329v700zM187 812l141 58v-60l-141 -89l-142 89v60z" />
    <glyph glyph-name="ecaron" unicode="&#x11b;" horiz-adv-x="360" 
d="M335 117q0 -31 -10.5 -52t-21.5 -33q-26 -28 -58.5 -35t-64.5 -7q-31 0 -59.5 7t-54.5 33q-26 27 -33.5 58t-7.5 60v210q0 27 5 59.5t30 59.5q20 21 51.5 33t67.5 12q38 0 68.5 -12t50.5 -33q15 -15 22.5 -30t10.5 -30t3.5 -30t0.5 -29v-130h-182v-114q0 -8 2.5 -13.5
t4.5 -7.5q5 -7 11 -8t11 -1q8 0 13 1t10 8q5 6 5.5 12t0.5 12v43h124v-43zM207 391q0 11 -1.5 17t-3.5 9q-5 8 -11.5 9.5t-11.5 1.5q-3 0 -9.5 -1.5t-11.5 -9.5q-2 -4 -3.5 -10t-1.5 -17v-82h54v83zM178 661l141 58v-60l-141 -89l-142 89v60z" />
    <glyph glyph-name="Gcircumflex" unicode="&#x11c;" horiz-adv-x="412" 
d="M242 479v70q0 7 -1 17.5t-3 17.5q-5 14 -14 17.5t-18 3.5t-18 -3.5t-14 -17.5q-2 -7 -3 -17.5t-1 -17.5v-398q0 -6 1 -17t3 -18q5 -14 15 -17.5t17 -3.5t17 3.5t15 17.5q2 7 3 18t1 17v94h-40v94h178v-185q0 -33 -7.5 -64t-38.5 -59q-29 -26 -64 -33.5t-64 -7.5
q-51 0 -81 13t-47 28q-29 27 -37.5 59t-8.5 64v392q0 32 8.5 64t37.5 59q17 15 47 28t81 13q29 0 64 -7.5t64 -33.5q31 -28 38.5 -59t7.5 -64v-67h-138zM62 790l142 89l141 -89v-60l-141 58l-142 -58v60z" />
    <glyph glyph-name="gcircumflex" unicode="&#x11d;" horiz-adv-x="365" 
d="M153 13v-13q0 -5 1 -12.5t4 -12.5q2 -3 7 -7t15 -4q15 0 22 11q3 5 4 12.5t1 12.5v114h-3q-9 -27 -27 -44q-13 -12 -28 -17t-35 -5q-17 0 -36 6t-34 28q-13 18 -16 38.5t-3 41.5v252q0 23 7 49.5t35 43.5q13 8 27 11.5t27 3.5q16 0 33 -7t28 -19q11 -11 18.5 -27
t11.5 -30h3v70h120v-476q0 -21 -3 -51t-25 -55q-15 -17 -43.5 -30t-76.5 -13q-52 0 -82.5 13t-46.5 30t-23.5 38.5t-9.5 47.5h128zM153 194q0 -21 1.5 -29t2.5 -10q7 -15 23 -15q5 0 12 5t11 19q2 8 3 23t1 23v157q0 10 -1 21t-6 22q-2 5 -7.5 12t-16.5 7q-14 0 -19 -15
q-3 -8 -3.5 -20t-0.5 -18v-182zM39 611l142 89l141 -89v-60l-141 58l-142 -58v60z" />
    <glyph glyph-name="Gbreve" unicode="&#x11e;" horiz-adv-x="412" 
d="M242 479v70q0 7 -1 17.5t-3 17.5q-5 14 -14 17.5t-18 3.5t-18 -3.5t-14 -17.5q-2 -7 -3 -17.5t-1 -17.5v-398q0 -6 1 -17t3 -18q5 -14 15 -17.5t17 -3.5t17 3.5t15 17.5q2 7 3 18t1 17v94h-40v94h178v-185q0 -33 -7.5 -64t-38.5 -59q-29 -26 -64 -33.5t-64 -7.5
q-51 0 -81 13t-47 28q-29 27 -37.5 59t-8.5 64v392q0 32 8.5 64t37.5 59q17 15 47 28t81 13q29 0 64 -7.5t64 -33.5q31 -28 38.5 -59t7.5 -64v-67h-138zM346 857q-1 -25 -12 -52t-40 -49q-22 -17 -45 -23t-49 -6t-49 6t-45 23q-29 22 -40 49t-12 52h97q-1 -10 1 -21.5
t7 -19.5t17 -15t25 -7q5 0 18 3t22 19q6 10 7.5 21.5t0.5 19.5h97z" />
    <glyph glyph-name="gbreve" unicode="&#x11f;" horiz-adv-x="365" 
d="M153 13v-13q0 -5 1 -12.5t4 -12.5q2 -3 7 -7t15 -4q15 0 22 11q3 5 4 12.5t1 12.5v114h-3q-9 -27 -27 -44q-13 -12 -28 -17t-35 -5q-17 0 -36 6t-34 28q-13 18 -16 38.5t-3 41.5v252q0 23 7 49.5t35 43.5q13 8 27 11.5t27 3.5q16 0 33 -7t28 -19q11 -11 18.5 -27
t11.5 -30h3v70h120v-476q0 -21 -3 -51t-25 -55q-15 -17 -43.5 -30t-76.5 -13q-52 0 -82.5 13t-46.5 30t-23.5 38.5t-9.5 47.5h128zM153 194q0 -21 1.5 -29t2.5 -10q7 -15 23 -15q5 0 12 5t11 19q2 8 3 23t1 23v157q0 10 -1 21t-6 22q-2 5 -7.5 12t-16.5 7q-14 0 -19 -15
q-3 -8 -3.5 -20t-0.5 -18v-182zM322 700q-1 -25 -12 -52t-40 -49q-22 -17 -45 -23t-49 -6t-49 6t-45 23q-29 22 -40 49t-12 52h97q-1 -10 1 -21.5t7 -19.5t17 -15t25 -7q5 0 18 3t22 19q6 10 7.5 21.5t0.5 19.5h97z" />
    <glyph glyph-name="Gcommaaccent" unicode="&#x122;" horiz-adv-x="412" 
d="M242 479v70q0 7 -1 17.5t-3 17.5q-5 14 -14 17.5t-18 3.5t-18 -3.5t-14 -17.5q-2 -7 -3 -17.5t-1 -17.5v-398q0 -6 1 -17t3 -18q5 -14 15 -17.5t17 -3.5t17 3.5t15 17.5q2 7 3 18t1 17v94h-40v94h178v-185q0 -33 -7.5 -64t-38.5 -59q-29 -26 -64 -33.5t-64 -7.5
q-51 0 -81 13t-47 28q-29 27 -37.5 59t-8.5 64v392q0 32 8.5 64t37.5 59q17 15 47 28t81 13q29 0 64 -7.5t64 -33.5q31 -28 38.5 -59t7.5 -64v-67h-138zM253 -138l-51 -86h-56l36 91h-35v90h106v-95z" />
    <glyph glyph-name="gcommaaccent" unicode="&#x123;" horiz-adv-x="365" 
d="M153 13v-13q0 -5 1 -12.5t4 -12.5q2 -3 7 -7t15 -4q15 0 22 11q3 5 4 12.5t1 12.5v114h-3q-9 -27 -27 -44q-13 -12 -28 -17t-35 -5q-17 0 -36 6t-34 28q-13 18 -16 38.5t-3 41.5v252q0 23 7 49.5t35 43.5q13 8 27 11.5t27 3.5q16 0 33 -7t28 -19q11 -11 18.5 -27
t11.5 -30h3v70h120v-476q0 -21 -3 -51t-25 -55q-15 -17 -43.5 -30t-76.5 -13q-52 0 -82.5 13t-46.5 30t-23.5 38.5t-9.5 47.5h128zM153 194q0 -21 1.5 -29t2.5 -10q7 -15 23 -15q5 0 12 5t11 19q2 8 3 23t1 23v157q0 10 -1 21t-6 22q-2 5 -7.5 12t-16.5 7q-14 0 -19 -15
q-2 -7 -3 -17.5t-1 -17.5v-185zM133 696l65 108h54l-45 -117h42v-110h-116v119z" />
    <glyph glyph-name="Hcircumflex" unicode="&#x124;" horiz-adv-x="418" 
d="M173 336v-336h-138v700h138v-269h72v269h138v-700h-138v336h-72zM65 790l142 89l141 -89v-60l-141 58l-142 -58v60z" />
    <glyph glyph-name="hcircumflex" unicode="&#x125;" horiz-adv-x="365" 
d="M212 0v385q0 20 -1.5 28t-3.5 10q-4 7 -8.5 9t-9.5 2t-12 -3.5t-12 -14.5q-5 -9 -6 -18.5t-1 -20.5v-377h-128v700h128v-246q6 10 16 22.5t26 24.5q12 9 27 15t35 6q21 0 34.5 -7.5t20.5 -15.5q17 -17 20 -42t3 -56v-401h-128zM-52 783l142 89l141 -89v-60l-141 58
l-142 -58v60z" />
    <glyph glyph-name="Imacron" unicode="&#x12a;" horiz-adv-x="208" 
d="M35 700h138v-700h-138v700zM-28 838h256v-78h-256v78z" />
    <glyph glyph-name="imacron" unicode="&#x12b;" horiz-adv-x="188" 
d="M30 0v512h128v-512h-128zM-34 680h256v-78h-256v78z" />
    <glyph glyph-name="Iogonek" unicode="&#x12e;" horiz-adv-x="207" 
d="M35 700h138v-700q-14 -17 -21.5 -28t-18.5 -27q-5 -8 -15 -25t-10 -31q0 -9 3 -15t7 -9q13 -10 45 -10h19v-55h-35q-25 0 -48 2.5t-44 18.5q-13 10 -21.5 24.5t-8.5 34.5q0 23 9.5 42t14.5 27q9 14 22.5 27.5t26.5 23.5h-63v700z" />
    <glyph glyph-name="iogonek" unicode="&#x12f;" horiz-adv-x="188" 
d="M157 0q-14 -17 -21.5 -28t-18.5 -27q-5 -8 -15 -25t-10 -31q0 -9 3 -15t7 -9q13 -10 45 -10h19v-55h-35q-25 0 -48 2.5t-44 18.5q-13 10 -21.5 24.5t-8.5 34.5q0 23 9.5 42t14.5 27q9 14 22.5 27.5t26.5 23.5h-52v512h128v-512h-1zM30 572v128h128v-128h-128z" />
    <glyph glyph-name="Idotaccent" unicode="&#x130;" horiz-adv-x="208" 
d="M35 700h138v-700h-138v700zM36 726v122h139v-122h-139z" />
    <glyph glyph-name="dotlessi" unicode="&#x131;" horiz-adv-x="188" 
d="M30 0v512h128v-512h-128z" />
    <glyph glyph-name="Jcircumflex" unicode="&#x134;" horiz-adv-x="285" 
d="M5 98h56q10 0 24 0.5t21 10.5q2 2 4 9t2 24v558h138v-567q0 -20 -3.5 -42t-17.5 -42q-12 -16 -27 -25.5t-31 -15t-31.5 -7t-27.5 -1.5h-107v98zM34 791l142 89l141 -89v-60l-141 58l-142 -58v60z" />
    <glyph glyph-name="jcircumflex" unicode="&#x135;" horiz-adv-x="188" 
d="M-63 -58h61q11 0 21.5 7.5t10.5 29.5v533h128v-552q0 -20 -2.5 -41t-16.5 -38q-17 -21 -41 -25t-42 -4h-119v90zM-47 611l142 89l141 -89v-60l-141 58l-142 -58v60z" />
    <glyph glyph-name="Kcommaaccent" unicode="&#x136;" horiz-adv-x="403" 
d="M35 0v700h138v-297h5l75 297h136l-92 -331l96 -369h-140l-75 338h-5v-338h-138zM249 -138l-51 -86h-56l36 91h-35v90h106v-95z" />
    <glyph glyph-name="kcommaaccent" unicode="&#x137;" horiz-adv-x="364" 
d="M231 0l-71 234h-2v-234h-128v700h128v-382h3l68 194h128l-88 -244l90 -268h-128zM229 -138l-51 -86h-56l36 91h-35v90h106v-95z" />
    <glyph glyph-name="Lacute" unicode="&#x139;" horiz-adv-x="364" 
d="M35 0v700h138v-602h186v-98h-324zM40 778l244 109l37 -98l-263 -59z" />
    <glyph glyph-name="lacute" unicode="&#x13a;" horiz-adv-x="188" 
d="M30 0v700h128v-700h-128zM-14 773l148 148l68 -80l-181 -115z" />
    <glyph glyph-name="Lcommaaccent" unicode="&#x13b;" horiz-adv-x="364" 
d="M35 0v700h138v-602h186v-98h-324zM229 -138l-51 -86h-56l36 91h-35v90h106v-95z" />
    <glyph glyph-name="lcommaaccent" unicode="&#x13c;" horiz-adv-x="188" 
d="M30 0v700h128v-700h-128zM141 -138l-51 -86h-56l36 91h-35v90h106v-95z" />
    <glyph glyph-name="Lcaron" unicode="&#x13d;" horiz-adv-x="364" 
d="M341 581l-65 -108h-54l45 117h-41v110h115v-119zM35 0v700h138v-602h186v-98h-324z" />
    <glyph glyph-name="lcaron" unicode="&#x13e;" horiz-adv-x="267" 
d="M307 581l-65 -108h-54l45 117h-42v110h116v-119zM30 0v700h128v-700h-128z" />
    <glyph glyph-name="Lslash" unicode="&#x141;" horiz-adv-x="424" 
d="M96 0v239l-106 -82v103l106 82v358h138v-270l136 101v-103l-136 -101v-229h186v-98h-324z" />
    <glyph glyph-name="lslash" unicode="&#x142;" horiz-adv-x="274" 
d="M74 0v243l-79 -73v99l79 79v352h128v-248l77 85v-112l-77 -89v-336h-128z" />
    <glyph glyph-name="Nacute" unicode="&#x143;" horiz-adv-x="414" 
d="M257 0l-98 363h-3l7 -80v-283h-128v700h122l98 -375h4l-8 74v301h128v-700h-122zM65 778l244 109l37 -98l-263 -59z" />
    <glyph glyph-name="nacute" unicode="&#x144;" horiz-adv-x="365" 
d="M212 0v385q0 19 -1.5 27t-3.5 12t-7 7t-14 3t-14 -5t-9 -13q-5 -13 -5 -31v-385h-128v512h121l3 -48q7 11 16.5 22t23.5 20t28 12.5t31 3.5q23 0 38 -7.5t23 -15.5q20 -20 23 -46.5t3 -55.5v-397h-128zM74 593l148 148l68 -80l-181 -115z" />
    <glyph glyph-name="Ncommaaccent" unicode="&#x145;" horiz-adv-x="414" 
d="M257 0l-98 363h-3l7 -80v-283h-128v700h122l98 -375h4l-8 74v301h128v-700h-122zM254 -138l-51 -86h-56l36 91h-35v90h106v-95z" />
    <glyph glyph-name="ncommaaccent" unicode="&#x146;" horiz-adv-x="365" 
d="M212 0v385q0 19 -1.5 27t-3.5 12t-7 7t-14 3t-14 -5t-9 -13q-5 -13 -5 -31v-385h-128v512h121l3 -48q7 11 16.5 22t23.5 20t28 12.5t31 3.5q23 0 38 -7.5t23 -15.5q20 -20 23 -46.5t3 -55.5v-397h-128zM230 -138l-51 -86h-56l36 91h-35v90h106v-95z" />
    <glyph glyph-name="Ncaron" unicode="&#x147;" horiz-adv-x="414" 
d="M257 0l-98 363h-3l7 -80v-283h-128v700h122l98 -375h4l-8 74v301h128v-700h-122zM205 811l141 58v-60l-141 -89l-142 89v60z" />
    <glyph glyph-name="ncaron" unicode="&#x148;" horiz-adv-x="365" 
d="M212 0v385q0 19 -1.5 27t-3.5 12t-7 7t-14 3t-14 -5t-9 -13q-5 -13 -5 -31v-385h-128v512h121l3 -48q7 11 16.5 22t23.5 20t28 12.5t31 3.5q23 0 38 -7.5t23 -15.5q20 -20 23 -46.5t3 -55.5v-397h-128zM181 661l141 58v-60l-141 -89l-142 89v60z" />
    <glyph glyph-name="Omacron" unicode="&#x14c;" horiz-adv-x="412" 
d="M380 154q0 -33 -7.5 -64t-38.5 -59q-29 -26 -64 -33.5t-64 -7.5q-51 0 -81 13t-47 28q-29 27 -37.5 59t-8.5 64v392q0 32 8.5 64t37.5 59q17 15 47 28t81 13q29 0 64 -7.5t64 -33.5q31 -28 38.5 -59t7.5 -64v-392zM242 549q0 7 -1 17.5t-3 17.5q-5 14 -14 17.5t-18 3.5
t-18 -3.5t-14 -17.5q-2 -7 -3 -17.5t-1 -17.5v-398q0 -6 1 -17t3 -18q5 -14 15 -17.5t17 -3.5t17 3.5t15 17.5q2 7 3 18t1 17v398zM71 838h256v-78h-256v78z" />
    <glyph glyph-name="omacron" unicode="&#x14d;" horiz-adv-x="360" 
d="M153 122v-13t5 -14q7 -11 22 -11t22 11q5 7 5 14v13v268v13t-5 14q-7 11 -22 11t-22 -11q-5 -7 -5 -14v-13v-268zM335 137q0 -24 -5.5 -52.5t-28.5 -52.5q-15 -16 -44 -29t-77 -13t-77 13t-44 29q-23 24 -28.5 52.5t-5.5 52.5v238q0 24 5.5 52.5t28.5 52.5q15 16 44 29
t77 13t77 -13t44 -29q23 -24 28.5 -52.5t5.5 -52.5v-238zM44 679h256v-78h-256v78z" />
    <glyph glyph-name="Obreve" unicode="&#x14e;" horiz-adv-x="412" 
d="M380 154q0 -33 -7.5 -64t-38.5 -59q-29 -26 -64 -33.5t-64 -7.5q-51 0 -81 13t-47 28q-29 27 -37.5 59t-8.5 64v392q0 32 8.5 64t37.5 59q17 15 47 28t81 13q29 0 64 -7.5t64 -33.5q31 -28 38.5 -59t7.5 -64v-392zM242 549q0 7 -1 17.5t-3 17.5q-5 14 -14 17.5t-18 3.5
t-18 -3.5t-14 -17.5q-2 -7 -3 -17.5t-1 -17.5v-398q0 -6 1 -17t3 -18q5 -14 15 -17.5t17 -3.5t17 3.5t15 17.5q2 7 3 18t1 17v398zM346 857q-1 -25 -12 -52t-40 -49q-22 -17 -45 -23t-49 -6t-49 6t-45 23q-29 22 -40 49t-12 52h97q-1 -10 1 -21.5t7 -19.5t17 -15t25 -7
q5 0 18 3t22 19q6 10 7.5 21.5t0.5 19.5h97z" />
    <glyph glyph-name="obreve" unicode="&#x14f;" horiz-adv-x="360" 
d="M153 122v-13t5 -14q7 -11 22 -11t22 11q5 7 5 14v13v268v13t-5 14q-7 11 -22 11t-22 -11q-5 -7 -5 -14v-13v-268zM335 137q0 -24 -5.5 -52.5t-28.5 -52.5q-15 -16 -44 -29t-77 -13t-77 13t-44 29q-23 24 -28.5 52.5t-5.5 52.5v238q0 24 5.5 52.5t28.5 52.5q15 16 44 29
t77 13t77 -13t44 -29q23 -24 28.5 -52.5t5.5 -52.5v-238zM320 700q-1 -25 -12 -52t-40 -49q-22 -17 -45 -23t-49 -6t-49 6t-45 23q-29 22 -40 49t-12 52h97q-1 -10 1 -21.5t7 -19.5t17 -15t25 -7q5 0 18 3t22 19q6 10 7.5 21.5t0.5 19.5h97z" />
    <glyph glyph-name="Ohungarumlaut" unicode="&#x150;" horiz-adv-x="412" 
d="M380 154q0 -33 -7.5 -64t-38.5 -59q-29 -26 -64 -33.5t-64 -7.5q-51 0 -81 13t-47 28q-29 27 -37.5 59t-8.5 64v392q0 32 8.5 64t37.5 59q17 15 47 28t81 13q29 0 64 -7.5t64 -33.5q31 -28 38.5 -59t7.5 -64v-392zM242 549q0 7 -1 17.5t-3 17.5q-5 14 -14 17.5t-18 3.5
t-18 -3.5t-14 -17.5q-2 -7 -3 -17.5t-1 -17.5v-398q0 -6 1 -17t3 -18q5 -14 15 -17.5t17 -3.5t17 3.5t15 17.5q2 7 3 18t1 17v398zM97 761l91 114l60 -55l-110 -95zM252 761l91 114l60 -55l-110 -95z" />
    <glyph glyph-name="ohungarumlaut" unicode="&#x151;" horiz-adv-x="360" 
d="M153 122v-13t5 -14q7 -11 22 -11t22 11q5 7 5 14v13v268v13t-5 14q-7 11 -22 11t-22 -11q-5 -7 -5 -14v-13v-268zM335 137q0 -24 -5.5 -52.5t-28.5 -52.5q-15 -16 -44 -29t-77 -13t-77 13t-44 29q-23 24 -28.5 52.5t-5.5 52.5v238q0 24 5.5 52.5t28.5 52.5q15 16 44 29
t77 13t77 -13t44 -29q23 -24 28.5 -52.5t5.5 -52.5v-238zM77 586l91 114l60 -55l-110 -95zM232 586l91 114l60 -55l-110 -95z" />
    <glyph glyph-name="OE" unicode="&#x152;" horiz-adv-x="574" 
d="M276 0q-15 -5 -32 -7.5t-40 -2.5q-51 0 -81 13t-47 28q-29 27 -37.5 59t-8.5 64v392q0 32 8.5 64t37.5 59q29 26 64 33.5t64 7.5q24 0 41 -2.5t31 -7.5h277v-98h-175v-168h132v-98h-132v-238h191v-98h-293zM168 151q0 -6 1 -17t3 -18q5 -14 15 -17.5t17 -3.5t17 3.5
t15 17.5q2 7 3 18t1 17v398q0 7 -1 17.5t-3 17.5q-5 14 -14 17.5t-18 3.5t-18 -3.5t-14 -17.5q-2 -7 -3 -17.5t-1 -17.5v-398z" />
    <glyph glyph-name="oe" unicode="&#x153;" horiz-adv-x="532" 
d="M153 122v-13t5 -14q7 -11 22 -11t22 11q5 7 5 14v13v268v13t-5 14q-7 11 -22 11t-22 -11q-5 -7 -5 -14v-13v-268zM507 128q0 -20 -4.5 -46t-24.5 -49q-25 -29 -56.5 -35.5t-59.5 -6.5q-26 0 -47 3t-45 15q-15 -8 -36.5 -13.5t-53.5 -5.5q-48 0 -77 13t-44 29
q-23 24 -28.5 52.5t-5.5 52.5v238q0 24 5.5 52.5t28.5 52.5q16 17 44.5 29.5t76.5 12.5q29 0 49.5 -5t39.5 -14q10 7 22.5 11t25 5.5t23.5 2t18 0.5q8 0 21 -1t27.5 -4t29.5 -9.5t28 -17.5q15 -12 23.5 -27t13 -30t5.5 -29.5t1 -25.5v-144h-172v-97q0 -8 0.5 -19.5
t5.5 -20.5q8 -12 24 -12q11 0 17 3.5t8 7.5q2 2 3.5 9.5t1.5 25.5v51h112v-54zM387 391q0 5 -0.5 13.5t-4.5 13.5q-4 7 -10 8.5t-11 1.5q-9 0 -14 -3.5t-7 -6.5q-4 -5 -4.5 -14t-0.5 -14v-76h52v77z" />
    <glyph glyph-name="Racute" unicode="&#x154;" horiz-adv-x="422" 
d="M258 0q-7 11 -13 29.5t-6 53.5v167q0 9 -1 23t-9 22q-5 5 -15.5 8t-20.5 3h-19v-306h-139l1 700h232q9 0 21 -1.5t25.5 -6t27 -13t24.5 -23.5q13 -17 16 -34t3 -35v-142q0 -14 -5.5 -31t-28.5 -30q-10 -5 -28 -11t-29 -8v-6q5 -2 21 -8t27 -13q14 -10 21.5 -22t10.5 -24
t3 -23v-20v-150q0 -24 1 -40.5t5 -27t11 -16t18 -8.5v-7h-154zM203 411q9 0 16.5 1.5t14.5 8.5q11 11 12 23t1 22v81q0 17 -2 25t-4 12q-7 14 -15.5 16t-18.5 2h-33v-191h29zM69 778l244 109l37 -98l-263 -59z" />
    <glyph glyph-name="racute" unicode="&#x155;" horiz-adv-x="273" 
d="M30 0v512h124v-52h3q6 11 14 21.5t19 18.5q14 12 28.5 17t31.5 5h15l-4 -175q-11 11 -22.5 14.5t-20.5 3.5q-8 0 -22 -2.5t-25 -17.5q-9 -12 -11 -28t-2 -31v-286h-128zM62 593l148 148l68 -80l-181 -115z" />
    <glyph glyph-name="Rcommaaccent" unicode="&#x156;" horiz-adv-x="422" 
d="M258 0q-7 11 -13 29.5t-6 53.5v167q0 9 -1 23t-9 22q-5 5 -15.5 8t-20.5 3h-19v-306h-139l1 700h232q9 0 21 -1.5t25.5 -6t27 -13t24.5 -23.5q13 -17 16 -34t3 -35v-142q0 -14 -5.5 -31t-28.5 -30q-10 -5 -28 -11t-29 -8v-6q5 -2 21 -8t27 -13q14 -10 21.5 -22t10.5 -24
t3 -23v-20v-150q0 -24 1 -40.5t5 -27t11 -16t18 -8.5v-7h-154zM203 411q9 0 16.5 1.5t14.5 8.5q11 11 12 23t1 22v81q0 17 -2 25t-4 12q-7 14 -15.5 16t-18.5 2h-33v-191h29zM258 -138l-51 -86h-56l36 91h-35v90h106v-95z" />
    <glyph glyph-name="rcommaaccent" unicode="&#x157;" horiz-adv-x="273" 
d="M30 0v512h124v-52h3q6 11 14 21.5t19 18.5q14 12 28.5 17t31.5 5h15l-4 -175q-11 11 -22.5 14.5t-20.5 3.5q-8 0 -22 -2.5t-25 -17.5q-9 -12 -11 -28t-2 -31v-286h-128zM137 -140l-51 -86h-56l36 91h-35v90h106v-95z" />
    <glyph glyph-name="Rcaron" unicode="&#x158;" horiz-adv-x="422" 
d="M258 0q-7 11 -13 29.5t-6 53.5v167q0 9 -1 23t-9 22q-5 5 -15.5 8t-20.5 3h-19v-306h-139l1 700h232q9 0 21 -1.5t25.5 -6t27 -13t24.5 -23.5q13 -17 16 -34t3 -35v-142q0 -14 -5.5 -31t-28.5 -30q-10 -5 -28 -11t-29 -8v-6q5 -2 21 -8t27 -13q14 -10 21.5 -22t10.5 -24
t3 -23v-20v-150q0 -24 1 -40.5t5 -27t11 -16t18 -8.5v-7h-154zM203 411q9 0 16.5 1.5t14.5 8.5q11 11 12 23t1 22v81q0 17 -2 25t-4 12q-7 14 -15.5 16t-18.5 2h-33v-191h29zM209 811l141 58v-60l-141 -89l-142 89v60z" />
    <glyph glyph-name="rcaron" unicode="&#x159;" horiz-adv-x="273" 
d="M30 0v512h124v-52h3q6 11 14 21.5t19 18.5q14 12 28.5 17t31.5 5h15l-4 -175q-11 11 -22.5 14.5t-20.5 3.5q-8 0 -22 -2.5t-25 -17.5q-9 -12 -11 -28t-2 -31v-286h-128zM135 661l141 58v-60l-141 -89l-142 89v60z" />
    <glyph glyph-name="Sacute" unicode="&#x15a;" horiz-adv-x="388" 
d="M158 222v-52q0 -29 2 -41.5t4 -17.5q4 -9 11.5 -16t21.5 -7q12 0 19 6t10 15q1 4 2 11t1.5 14.5t0.5 13.5v8v27q0 37 -10.5 56.5t-30.5 39.5l-95 91q-14 14 -27 30t-21 32q-15 29 -18.5 57.5t-3.5 53.5v27q0 31 12.5 57t28.5 42q15 15 32.5 23t35.5 12t34.5 5t28.5 1
q31 0 65.5 -7.5t62.5 -33.5q33 -31 38.5 -65.5t5.5 -70.5v-43h-134v42q0 28 -1 43t-6 23q-2 4 -9 9t-19 5q-17 0 -27 -13q-8 -10 -9 -19t-1 -21v-16q0 -31 14 -51.5t28 -34.5l80 -77q16 -16 31.5 -30.5t27 -34.5t18.5 -48t7 -70v-40q0 -15 -0.5 -30.5t-4.5 -31.5t-13 -32.5
t-25 -32.5q-25 -24 -54.5 -32t-65.5 -8q-26 0 -57.5 6t-61.5 26q-22 15 -35 32t-20 36t-9 38.5t-2 39.5v54h138zM89 778l244 109l37 -98l-263 -59z" />
    <glyph glyph-name="sacute" unicode="&#x15b;" 
d="M141 138l-2 -18q-1 -19 8 -30q9 -10 23 -10q5 0 12 1.5t12 9.5q2 4 3.5 11t1.5 11q0 22 -5 38.5t-11.5 27.5t-14 17.5t-11.5 9.5l-39 26q-12 8 -21.5 14.5t-22.5 18.5q-12 11 -21 23t-17 29q-10 20 -13 37t-3 40q0 14 2.5 30t10.5 31q6 12 15.5 22.5t19.5 17.5
q19 13 47.5 20t57.5 7q25 0 50 -5.5t50 -25.5q31 -24 37 -49.5t6 -48.5v-14h-114v18q0 5 -2 13.5t-4 12.5q-3 5 -9 8t-12 3q-5 0 -10.5 -2t-8.5 -5q-5 -5 -6.5 -13.5t-1.5 -13.5q0 -12 2 -21.5t10 -20.5q9 -11 21 -19.5t26 -18.5l51 -35q15 -11 29.5 -26t23.5 -33
q11 -23 12.5 -50t1.5 -49q0 -17 -5 -36.5t-19 -41.5q-11 -16 -24 -28t-31 -19q-15 -6 -38 -9t-39 -3q-20 0 -37.5 3.5t-31.5 8.5q-17 6 -28.5 13t-25.5 23q-2 3 -7.5 10t-10.5 17.5t-9 24.5t-4 31v17h126zM82 593l148 148l68 -80l-181 -115z" />
    <glyph glyph-name="Scircumflex" unicode="&#x15c;" horiz-adv-x="388" 
d="M158 222v-52q0 -29 2 -41.5t4 -17.5q4 -9 11.5 -16t21.5 -7q12 0 19 6t10 15q1 4 2 11t1.5 14.5t0.5 13.5v8v27q0 37 -10.5 56.5t-30.5 39.5l-95 91q-14 14 -27 30t-21 32q-15 29 -18.5 57.5t-3.5 53.5v27q0 31 12.5 57t28.5 42q15 15 32.5 23t35.5 12t34.5 5t28.5 1
q31 0 65.5 -7.5t62.5 -33.5q33 -31 38.5 -65.5t5.5 -70.5v-43h-134v42q0 28 -1 43t-6 23q-2 4 -9 9t-19 5q-17 0 -27 -13q-8 -10 -9 -19t-1 -21v-16q0 -31 14 -51.5t28 -34.5l80 -77q16 -16 31.5 -30.5t27 -34.5t18.5 -48t7 -70v-40q0 -15 -0.5 -30.5t-4.5 -31.5t-13 -32.5
t-25 -32.5q-25 -24 -54.5 -32t-65.5 -8q-26 0 -57.5 6t-61.5 26q-22 15 -35 32t-20 36t-9 38.5t-2 39.5v54h138zM50 790l142 89l141 -89v-60l-141 58l-142 -58v60z" />
    <glyph glyph-name="scircumflex" unicode="&#x15d;" 
d="M141 138l-2 -18q-1 -19 8 -30q9 -10 23 -10q5 0 12 1.5t12 9.5q2 4 3.5 11t1.5 11q0 22 -5 38.5t-11.5 27.5t-14 17.5t-11.5 9.5l-39 26q-12 8 -21.5 14.5t-22.5 18.5q-12 11 -21 23t-17 29q-10 20 -13 37t-3 40q0 14 2.5 30t10.5 31q6 12 15.5 22.5t19.5 17.5
q19 13 47.5 20t57.5 7q25 0 50 -5.5t50 -25.5q31 -24 37 -49.5t6 -48.5v-14h-114v18q0 5 -2 13.5t-4 12.5q-3 5 -9 8t-12 3q-5 0 -10.5 -2t-8.5 -5q-5 -5 -6.5 -13.5t-1.5 -13.5q0 -12 2 -21.5t10 -20.5q9 -11 21 -19.5t26 -18.5l51 -35q15 -11 29.5 -26t23.5 -33
q11 -23 12.5 -50t1.5 -49q0 -17 -5 -36.5t-19 -41.5q-11 -16 -24 -28t-31 -19q-15 -6 -38 -9t-39 -3q-20 0 -37.5 3.5t-31.5 8.5q-17 6 -28.5 13t-25.5 23q-2 3 -7.5 10t-10.5 17.5t-9 24.5t-4 31v17h126zM27 611l142 89l141 -89v-60l-141 58l-142 -58v60z" />
    <glyph glyph-name="Scedilla" unicode="&#x15e;" horiz-adv-x="388" 
d="M158 222v-52q0 -29 2 -41.5t4 -17.5q4 -9 11.5 -16t21.5 -7q12 0 19 6t10 15q1 4 2 11t1.5 14.5t0.5 13.5v8v27q0 37 -10.5 56.5t-30.5 39.5l-95 91q-14 14 -27 30t-21 32q-15 29 -18.5 57.5t-3.5 53.5v27q0 31 12.5 57t28.5 42q15 15 32.5 23t35.5 12t34.5 5t28.5 1
q31 0 65.5 -7.5t62.5 -33.5q33 -31 38.5 -65.5t5.5 -70.5v-43h-134v42q0 28 -1 43t-6 23q-2 4 -9 9t-19 5q-17 0 -27 -13q-8 -10 -9 -19t-1 -21v-16q0 -31 14 -51.5t28 -34.5l80 -77q16 -16 31.5 -30.5t27 -34.5t18.5 -48t7 -70v-40q0 -14 -0.5 -29.5t-4.5 -32t-13 -33
t-25 -32.5q-15 -14 -38.5 -26.5t-58.5 -12.5v-23q23 2 42.5 -7t30.5 -21q2 -2 10 -16t8 -40q0 -20 -7 -34t-15 -23q-17 -17 -35.5 -22t-37.5 -5q-15 0 -27 1t-23 2q-9 1 -15.5 2t-16.5 3v58q9 -2 18 -3.5t18 -3.5q8 -1 18 -2t18 -1t13 2t10 10q5 9 5 19q0 7 -1 12.5t-6 11.5
q-8 10 -15.5 11.5t-16.5 1.5h-39v69q-19 3 -39.5 10t-38.5 19q-22 15 -35 32.5t-20 36t-9 38.5t-2 39v54h138z" />
    <glyph glyph-name="Scedilla" unicode="&#xf6c1;" horiz-adv-x="388" 
d="M158 222v-52q0 -29 2 -41.5t4 -17.5q4 -9 11.5 -16t21.5 -7q12 0 19 6t10 15q1 4 2 11t1.5 14.5t0.5 13.5v8v27q0 37 -10.5 56.5t-30.5 39.5l-95 91q-14 14 -27 30t-21 32q-15 29 -18.5 57.5t-3.5 53.5v27q0 31 12.5 57t28.5 42q15 15 32.5 23t35.5 12t34.5 5t28.5 1
q31 0 65.5 -7.5t62.5 -33.5q33 -31 38.5 -65.5t5.5 -70.5v-43h-134v42q0 28 -1 43t-6 23q-2 4 -9 9t-19 5q-17 0 -27 -13q-8 -10 -9 -19t-1 -21v-16q0 -31 14 -51.5t28 -34.5l80 -77q16 -16 31.5 -30.5t27 -34.5t18.5 -48t7 -70v-40q0 -14 -0.5 -29.5t-4.5 -32t-13 -33
t-25 -32.5q-15 -14 -38.5 -26.5t-58.5 -12.5v-23q23 2 42.5 -7t30.5 -21q2 -2 10 -16t8 -40q0 -20 -7 -34t-15 -23q-17 -17 -35.5 -22t-37.5 -5q-15 0 -27 1t-23 2q-9 1 -15.5 2t-16.5 3v58q9 -2 18 -3.5t18 -3.5q8 -1 18 -2t18 -1t13 2t10 10q5 9 5 19q0 7 -1 12.5t-6 11.5
q-8 10 -15.5 11.5t-16.5 1.5h-39v69q-19 3 -39.5 10t-38.5 19q-22 15 -35 32.5t-20 36t-9 38.5t-2 39v54h138z" />
    <glyph glyph-name="scedilla" unicode="&#x15f;" 
d="M141 138l-2 -18q-1 -19 8 -30q9 -10 22 -10q17 0 23 11q2 2 3.5 6.5t1.5 12.5q0 44 -11.5 64t-28.5 32l-39 26q-12 8 -21.5 14.5t-22.5 18.5q-12 11 -21 23t-17 29q-10 20 -13 37t-3 40q0 14 2.5 30t10.5 31q6 12 15.5 22.5t19.5 17.5q19 13 47.5 20t57.5 7q25 0 50 -5.5
t50 -25.5q31 -24 37 -49.5t6 -48.5v-14h-114v18q0 5 -2 13.5t-4 12.5q-3 5 -9 8t-12 3q-5 0 -10.5 -2t-8.5 -5q-5 -5 -6.5 -13.5t-1.5 -13.5q0 -12 2 -21.5t10 -20.5q9 -11 21 -19.5t26 -18.5l51 -35q15 -11 29.5 -26t23.5 -33q11 -23 12.5 -50t1.5 -49q0 -17 -5 -36.5
t-19 -41.5q-11 -16 -24 -28t-31 -19q-6 -2 -17 -5t-30 -5v-24q23 2 42.5 -7t30.5 -21q2 -2 10 -16t8 -40q0 -20 -7 -34t-15 -23q-17 -17 -35.5 -22t-37.5 -5q-15 0 -27 1t-23 2q-9 1 -15.5 2t-16.5 3v58q9 -2 18 -3.5t18 -3.5q8 -1 18 -2t18 -1t13 2t10 10q5 9 5 19
q0 7 -1 12.5t-6 11.5q-8 10 -15.5 11.5t-16.5 1.5h-39v69q-24 5 -35 9q-17 6 -28.5 13t-25.5 23q-2 3 -7.5 10t-10.5 17.5t-9 24.5t-4 31v17h126z" />
    <glyph glyph-name="scedilla" unicode="&#xf6c2;" 
d="M141 138l-2 -18q-1 -19 8 -30q9 -10 22 -10q17 0 23 11q2 2 3.5 6.5t1.5 12.5q0 44 -11.5 64t-28.5 32l-39 26q-12 8 -21.5 14.5t-22.5 18.5q-12 11 -21 23t-17 29q-10 20 -13 37t-3 40q0 14 2.5 30t10.5 31q6 12 15.5 22.5t19.5 17.5q19 13 47.5 20t57.5 7q25 0 50 -5.5
t50 -25.5q31 -24 37 -49.5t6 -48.5v-14h-114v18q0 5 -2 13.5t-4 12.5q-3 5 -9 8t-12 3q-5 0 -10.5 -2t-8.5 -5q-5 -5 -6.5 -13.5t-1.5 -13.5q0 -12 2 -21.5t10 -20.5q9 -11 21 -19.5t26 -18.5l51 -35q15 -11 29.5 -26t23.5 -33q11 -23 12.5 -50t1.5 -49q0 -17 -5 -36.5
t-19 -41.5q-11 -16 -24 -28t-31 -19q-6 -2 -17 -5t-30 -5v-24q23 2 42.5 -7t30.5 -21q2 -2 10 -16t8 -40q0 -20 -7 -34t-15 -23q-17 -17 -35.5 -22t-37.5 -5q-15 0 -27 1t-23 2q-9 1 -15.5 2t-16.5 3v58q9 -2 18 -3.5t18 -3.5q8 -1 18 -2t18 -1t13 2t10 10q5 9 5 19
q0 7 -1 12.5t-6 11.5q-8 10 -15.5 11.5t-16.5 1.5h-39v69q-24 5 -35 9q-17 6 -28.5 13t-25.5 23q-2 3 -7.5 10t-10.5 17.5t-9 24.5t-4 31v17h126z" />
    <glyph glyph-name="Scaron" unicode="&#x160;" horiz-adv-x="388" 
d="M158 222v-52q0 -29 2 -41.5t4 -17.5q4 -9 11.5 -16t21.5 -7q12 0 19 6t10 15q1 4 2 11t1.5 14.5t0.5 13.5v8v27q0 37 -10.5 56.5t-30.5 39.5l-95 91q-14 14 -27 30t-21 32q-15 29 -18.5 57.5t-3.5 53.5v27q0 31 12.5 57t28.5 42q15 15 32.5 23t35.5 12t34.5 5t28.5 1
q31 0 65.5 -7.5t62.5 -33.5q33 -31 38.5 -65.5t5.5 -70.5v-43h-134v42q0 28 -1 43t-6 23q-2 4 -9 9t-19 5q-17 0 -27 -13q-8 -10 -9 -19t-1 -21v-16q0 -31 14 -51.5t28 -34.5l80 -77q16 -16 31.5 -30.5t27 -34.5t18.5 -48t7 -70v-40q0 -15 -0.5 -30.5t-4.5 -31.5t-13 -32.5
t-25 -32.5q-25 -24 -54.5 -32t-65.5 -8q-26 0 -57.5 6t-61.5 26q-22 15 -35 32t-20 36t-9 38.5t-2 39.5v54h138zM192 811l141 58v-60l-141 -89l-142 89v60z" />
    <glyph glyph-name="scaron" unicode="&#x161;" 
d="M141 138l-2 -18q-1 -19 8 -30q9 -10 23 -10q5 0 12 1.5t12 9.5q2 4 3.5 11t1.5 11q0 22 -5 38.5t-11.5 27.5t-14 17.5t-11.5 9.5l-39 26q-12 8 -21.5 14.5t-22.5 18.5q-12 11 -21 23t-17 29q-10 20 -13 37t-3 40q0 14 2.5 30t10.5 31q6 12 15.5 22.5t19.5 17.5
q19 13 47.5 20t57.5 7q25 0 50 -5.5t50 -25.5q31 -24 37 -49.5t6 -48.5v-14h-114v18q0 5 -2 13.5t-4 12.5q-3 5 -9 8t-12 3q-5 0 -10.5 -2t-8.5 -5q-5 -5 -6.5 -13.5t-1.5 -13.5q0 -12 2 -21.5t10 -20.5q9 -11 21 -19.5t26 -18.5l51 -35q15 -11 29.5 -26t23.5 -33
q11 -23 12.5 -50t1.5 -49q0 -17 -5 -36.5t-19 -41.5q-11 -16 -24 -28t-31 -19q-15 -6 -38 -9t-39 -3q-20 0 -37.5 3.5t-31.5 8.5q-17 6 -28.5 13t-25.5 23q-2 3 -7.5 10t-10.5 17.5t-9 24.5t-4 31v17h126zM169 661l141 58v-60l-141 -89l-142 89v60z" />
    <glyph glyph-name="Tcommaaccent" unicode="&#x162;" horiz-adv-x="320" 
d="M91 602h-86v98h310v-98h-86v-602h-37v-32q23 2 42.5 -7t30.5 -21q2 -2 10 -16t8 -40q0 -20 -7 -34t-15 -23q-17 -17 -35.5 -22t-37.5 -5q-15 0 -27 1t-23 2q-9 1 -15.5 2t-16.5 3v58q9 -2 18 -3.5t18 -3.5q8 -1 18 -2t18 -1t13 2t10 10q5 9 5 19q0 7 -1 12.5t-6 11.5
q-8 10 -15.5 11.5t-16.5 1.5h-39v76h-37v602z" />
    <glyph glyph-name="tcommaaccent" unicode="&#x163;" horiz-adv-x="227" 
d="M215 0h-8t-8 -1q-5 -1 -10 -1.5t-10 -0.5l-23 -1v-28q23 2 42.5 -7t30.5 -21q2 -2 10 -16t8 -40q0 -20 -7 -34t-15 -23q-17 -17 -35.5 -22t-37.5 -5q-15 0 -27 1t-23 2q-9 1 -15.5 2t-16.5 3v58q9 -2 18 -3.5t18 -3.5q8 -1 18 -2t18 -1t13 2t10 10q5 9 5 19q0 7 -1 12.5
t-6 11.5q-8 10 -15.5 11.5t-16.5 1.5h-39v76l-17 10q-11 7 -16 18t-6 15q-3 11 -4.5 27.5t-1.5 24.5v327h-35v90h35v188h128v-188h35v-90h-35v-297q0 -2 0.5 -7.5t2.5 -11.5t7 -11t14 -5h16v-90z" />
    <glyph glyph-name="Tcaron" unicode="&#x164;" horiz-adv-x="320" 
d="M91 0v602h-86v98h310v-98h-86v-602h-138zM159 811l141 58v-60l-141 -89l-142 89v60z" />
    <glyph glyph-name="tcaron" unicode="&#x165;" horiz-adv-x="295" 
d="M335 581l-65 -108h-54l45 117h-42v110h116v-119zM207 0q-16 -1 -22 -1.5t-14 -1.5q-14 -2 -33 -1.5t-29 1.5q-10 2 -22 5t-20 8q-10 7 -15 16t-7 17q-3 11 -4.5 27.5t-1.5 24.5v327h-35v90h35v188h128v-188h35v-90h-35v-297q0 -2 0.5 -7.5t2.5 -11.5t7 -11t14 -5h16v-90z
" />
    <glyph glyph-name="Umacron" unicode="&#x16a;" horiz-adv-x="414" 
d="M381 154q0 -33 -9 -68t-46 -63q-16 -12 -34.5 -18.5t-35.5 -10t-30.5 -4t-18.5 -0.5q-6 0 -19.5 0.5t-30 4t-34.5 10t-34 18.5q-36 27 -46 62.5t-10 69.5v545h138v-550q0 -20 2 -29.5t4 -14.5q5 -11 12 -14.5t18 -3.5t18 3.5t12 14.5q2 5 4 14.5t2 29.5v550h138v-546z
M78 834h256v-78h-256v78z" />
    <glyph glyph-name="umacron" unicode="&#x16b;" horiz-adv-x="365" 
d="M153 512v-385q0 -6 0.5 -17.5t2.5 -16.5q4 -15 19 -15q9 0 15.5 6.5t10.5 15.5q2 7 4 20t2 20v372h128v-512h-124v48l-6 3q-6 -13 -15 -25t-19 -20q-21 -16 -59 -16q-20 0 -35.5 6.5t-25.5 16.5q-20 20 -23 47.5t-3 50.5v401h128zM49 679h256v-78h-256v78z" />
    <glyph glyph-name="Ubreve" unicode="&#x16c;" horiz-adv-x="414" 
d="M381 154q0 -33 -9 -68t-46 -63q-16 -12 -34.5 -18.5t-35.5 -10t-30.5 -4t-18.5 -0.5q-6 0 -19.5 0.5t-30 4t-34.5 10t-34 18.5q-36 27 -46 62.5t-10 69.5v545h138v-550q0 -20 2 -29.5t4 -14.5q5 -11 12 -14.5t18 -3.5t18 3.5t12 14.5q2 5 4 14.5t2 29.5v550h138v-546z
M349 858q-1 -25 -12 -52t-40 -49q-22 -17 -45 -23t-49 -6t-49 6t-45 23q-29 22 -40 49t-12 52h97q-1 -10 1 -21.5t7 -19.5t17 -15t25 -7q5 0 18 3t22 19q6 10 7.5 21.5t0.5 19.5h97z" />
    <glyph glyph-name="ubreve" unicode="&#x16d;" horiz-adv-x="365" 
d="M153 512v-385q0 -6 0.5 -17.5t2.5 -16.5q4 -15 19 -15q9 0 15.5 6.5t10.5 15.5q2 7 4 20t2 20v372h128v-512h-124v48l-6 3q-6 -13 -15 -25t-19 -20q-21 -16 -59 -16q-20 0 -35.5 6.5t-25.5 16.5q-20 20 -23 47.5t-3 50.5v401h128zM322 700q-1 -25 -12 -52t-40 -49
q-22 -17 -45 -23t-49 -6t-49 6t-45 23q-29 22 -40 49t-12 52h97q-1 -10 1 -21.5t7 -19.5t17 -15t25 -7q5 0 18 3t22 19q6 10 7.5 21.5t0.5 19.5h97z" />
    <glyph glyph-name="Uring" unicode="&#x16e;" horiz-adv-x="414" 
d="M381 154q0 -33 -9 -68t-46 -63q-16 -12 -34.5 -18.5t-35.5 -10t-30.5 -4t-18.5 -0.5q-6 0 -19.5 0.5t-30 4t-34.5 10t-34 18.5q-36 27 -46 62.5t-10 69.5v545h138v-550q0 -20 2 -29.5t4 -14.5q5 -11 12 -14.5t18 -3.5t18 3.5t12 14.5q2 5 4 14.5t2 29.5v550h138v-546z
M149 821q0 -23 15 -38t38 -15t38 15t15 38t-15 38t-38 15t-38 -15t-15 -38zM95 821q0 22 8.5 42t22.5 34t33.5 22.5t42.5 8.5q22 0 42 -8.5t34 -22.5t22.5 -34t8.5 -42q0 -23 -8.5 -42.5t-22.5 -33.5t-34 -22.5t-42 -8.5q-23 0 -42.5 8.5t-33.5 22.5t-22.5 33.5t-8.5 42.5z
" />
    <glyph glyph-name="uring" unicode="&#x16f;" horiz-adv-x="365" 
d="M153 512v-385q0 -6 0.5 -17.5t2.5 -16.5q4 -15 19 -15q9 0 15.5 6.5t10.5 15.5q2 7 4 20t2 20v372h128v-512h-124v48l-6 3q-6 -13 -15 -25t-19 -20q-21 -16 -59 -16q-20 0 -35.5 6.5t-25.5 16.5q-20 20 -23 47.5t-3 50.5v401h128zM124 638q0 -23 15 -38t38 -15t38 15
t15 38t-15 38t-38 15t-38 -15t-15 -38zM70 638q0 22 8.5 42t22.5 34t33.5 22.5t42.5 8.5q22 0 42 -8.5t34 -22.5t22.5 -34t8.5 -42q0 -23 -8.5 -42.5t-22.5 -33.5t-34 -22.5t-42 -8.5q-23 0 -42.5 8.5t-33.5 22.5t-22.5 33.5t-8.5 42.5z" />
    <glyph glyph-name="Uhungarumlaut" unicode="&#x170;" horiz-adv-x="414" 
d="M381 154q0 -33 -9 -68t-46 -63q-16 -12 -34.5 -18.5t-35.5 -10t-30.5 -4t-18.5 -0.5q-6 0 -19.5 0.5t-30 4t-34.5 10t-34 18.5q-36 27 -46 62.5t-10 69.5v545h138v-550q0 -20 2 -29.5t4 -14.5q5 -11 12 -14.5t18 -3.5t18 3.5t12 14.5q2 5 4 14.5t2 29.5v550h138v-546z
M97 762l91 114l60 -55l-110 -95zM252 762l91 114l60 -55l-110 -95z" />
    <glyph glyph-name="uhungarumlaut" unicode="&#x171;" horiz-adv-x="365" 
d="M153 512v-385q0 -6 0.5 -17.5t2.5 -16.5q4 -15 19 -15q9 0 15.5 6.5t10.5 15.5q2 7 4 20t2 20v372h128v-512h-124v48l-6 3q-6 -13 -15 -25t-19 -20q-21 -16 -59 -16q-20 0 -35.5 6.5t-25.5 16.5q-20 20 -23 47.5t-3 50.5v401h128zM57 586l91 114l60 -55l-110 -95z
M212 586l91 114l60 -55l-110 -95z" />
    <glyph glyph-name="Uogonek" unicode="&#x172;" horiz-adv-x="414" 
d="M381 154q0 -17 -3 -40t-13.5 -45t-31 -41t-55.5 -28q-14 -17 -21.5 -28t-18.5 -27q-5 -8 -15 -25t-10 -31q0 -9 3 -15t7 -9q13 -10 45 -10h19v-55h-35q-25 0 -48 2.5t-44 18.5q-13 10 -21.5 24.5t-8.5 34.5q0 23 9.5 42t14.5 27q8 11 17.5 22t19.5 19q-23 2 -51.5 9.5
t-50.5 23.5q-36 27 -46 62.5t-10 69.5v545h138v-550q0 -5 0.5 -20.5t4.5 -23.5q5 -13 13.5 -15.5t17.5 -2.5q11 0 18 2.5t12 15.5q4 10 5 24t1 20v550h138v-546z" />
    <glyph glyph-name="uogonek" unicode="&#x173;" horiz-adv-x="365" 
d="M153 512v-388q0 -9 0.5 -18t3.5 -16q5 -12 18 -12q7 0 14.5 5.5t11.5 16.5q2 7 4 20t2 20v372h128v-512q-14 -17 -21.5 -28t-18.5 -27q-5 -8 -15 -25t-10 -31q0 -9 3 -15t7 -9q13 -10 45 -10h19v-55h-35q-25 0 -48 2.5t-44 18.5q-13 10 -21.5 24.5t-8.5 34.5q0 23 9.5 42
t14.5 27q9 14 22.5 27.5t26.5 23.5h-49v48l-6 3q-6 -13 -15 -25t-19 -20q-21 -16 -59 -16q-20 0 -35.5 6.5t-25.5 16.5q-20 20 -23 47.5t-3 50.5v401h128z" />
    <glyph glyph-name="Ydieresis" unicode="&#x178;" horiz-adv-x="396" 
d="M129 0v308l-119 392h138l50 -218l5 28l45 190h138l-119 -392v-308h-138zM58 863h107v-115h-107v115zM228 863h107v-115h-107v115z" />
    <glyph glyph-name="Zacute" unicode="&#x179;" horiz-adv-x="367" 
d="M15 0v110l200 492h-165v98h297v-103l-200 -499h200v-98h-332zM79 776l244 109l37 -98l-263 -59z" />
    <glyph glyph-name="zacute" unicode="&#x17a;" horiz-adv-x="320" 
d="M12 0v100l157 322h-143v90h279v-100l-157 -322h157v-90h-293zM82 591l148 148l68 -80l-181 -115z" />
    <glyph glyph-name="Zdotaccent" unicode="&#x17b;" horiz-adv-x="367" 
d="M15 0v110l200 492h-165v98h297v-103l-200 -499h200v-98h-332zM127 742v122h139v-122h-139z" />
    <glyph glyph-name="zdotaccent" unicode="&#x17c;" horiz-adv-x="320" 
d="M12 0v100l157 322h-143v90h279v-100l-157 -322h157v-90h-293zM94 575v122h139v-122h-139z" />
    <glyph glyph-name="Zcaron" unicode="&#x17d;" horiz-adv-x="367" 
d="M15 0v110l200 492h-165v98h297v-103l-200 -499h200v-98h-332zM189 810l141 58v-60l-141 -89l-142 89v60z" />
    <glyph glyph-name="zcaron" unicode="&#x17e;" horiz-adv-x="320" 
d="M12 0v100l157 322h-143v90h279v-100l-157 -322h157v-90h-293zM159 661l141 58v-60l-141 -89l-142 89v60z" />
    <glyph glyph-name="uni018F" unicode="&#x18f;" horiz-adv-x="412" 
d="M242 369v180q0 7 -1 17.5t-3 17.5q-5 14 -14 17.5t-18 3.5t-18 -3.5t-14 -17.5q-2 -7 -3 -17.5t-1 -17.5v-83h-138v80q0 16 1.5 32.5t6 32t13.5 30t25 28.5q29 26 64 33.5t64 7.5q51 0 81 -13t47 -28q29 -27 37.5 -59t8.5 -64v-392q0 -32 -8.5 -64t-37.5 -59
q-17 -15 -47 -28t-81 -13q-29 0 -64 7.5t-64 33.5q-16 14 -25 28.5t-13.5 30t-6 31.5t-1.5 33v215h210zM170 151q0 -6 1 -17t3 -18q5 -14 15 -17.5t17 -3.5t17 3.5t15 17.5q2 7 3 18t1 17v120h-72v-120z" />
    <glyph glyph-name="florin" unicode="&#x192;" horiz-adv-x="331" 
d="M225 427h52v-83h-52v-253q0 -49 -6 -88.5t-31 -74.5q-17 -24 -39 -38.5t-43 -21.5t-39 -9t-28 -2h-29v76h23q22 0 37 6t25 26q8 14 9.5 36.5t1.5 66.5v276h-57v83h57v38q0 45 7.5 87.5t30.5 74.5q16 22 37 35.5t43.5 21t45.5 10.5t42 3h9v-76h-14q-3 0 -12.5 -1
t-20.5 -5.5t-22 -13t-17 -24.5q-4 -9 -7 -30t-3 -70v-50z" />
    <glyph glyph-name="uni01CF" unicode="&#x1cf;" horiz-adv-x="208" 
d="M35 700h138v-700h-138v700zM103 811l141 58v-60l-141 -89l-142 89v60z" />
    <glyph glyph-name="uni01D0" unicode="&#x1d0;" horiz-adv-x="188" 
d="M30 0v512h128v-512h-128zM94 661l141 58v-60l-141 -89l-142 89v60z" />
    <glyph glyph-name="uni01DD" unicode="&#x1dd;" horiz-adv-x="350" 
d="M25 395q0 4 0.5 13.5t3.5 21.5t9 25t16 25q25 29 56.5 35.5t59.5 6.5q12 0 27 -1t31 -4.5t31.5 -11.5t28.5 -21t20 -28.5t11 -30.5t5 -29.5t1 -25.5v-241q0 -45 -14 -69t-28 -36q-23 -20 -52 -27t-57 -7t-57 8t-49 25q-15 12 -23.5 27t-13 30t-5.5 29.5t-1 25.5v143h172
v106q0 8 -0.5 16.5t-5.5 15.5q-8 12 -24 12q-5 0 -12.5 -1.5t-12.5 -9.5t-5 -29v-57h-112v64zM145 121q0 -5 0.5 -13.5t4.5 -13.5q4 -7 10 -8.5t11 -1.5q9 0 14 3.5t7 6.5q4 5 4.5 14t0.5 14v76h-52v-77z" />
    <glyph glyph-name="Gcaron" unicode="&#x1e6;" horiz-adv-x="412" 
d="M242 479v70q0 7 -1 17.5t-3 17.5q-5 14 -14 17.5t-18 3.5t-18 -3.5t-14 -17.5q-2 -7 -3 -17.5t-1 -17.5v-398q0 -6 1 -17t3 -18q5 -14 15 -17.5t17 -3.5t17 3.5t15 17.5q2 7 3 18t1 17v94h-40v94h178v-185q0 -33 -7.5 -64t-38.5 -59q-29 -26 -64 -33.5t-64 -7.5
q-51 0 -81 13t-47 28q-29 27 -37.5 59t-8.5 64v392q0 32 8.5 64t37.5 59q17 15 47 28t81 13q29 0 64 -7.5t64 -33.5q31 -28 38.5 -59t7.5 -64v-67h-138zM204 811l141 58v-60l-141 -89l-142 89v60z" />
    <glyph glyph-name="gcaron" unicode="&#x1e7;" horiz-adv-x="365" 
d="M153 13v-13q0 -5 1 -12.5t4 -12.5q2 -3 7 -7t15 -4q15 0 22 11q3 5 4 12.5t1 12.5v114h-3q-9 -27 -27 -44q-13 -12 -28 -17t-35 -5q-17 0 -36 6t-34 28q-13 18 -16 38.5t-3 41.5v252q0 23 7 49.5t35 43.5q13 8 27 11.5t27 3.5q16 0 33 -7t28 -19q11 -11 18.5 -27
t11.5 -30h3v70h120v-476q0 -21 -3 -51t-25 -55q-15 -17 -43.5 -30t-76.5 -13q-52 0 -82.5 13t-46.5 30t-23.5 38.5t-9.5 47.5h128zM153 194q0 -21 1.5 -29t2.5 -10q7 -15 23 -15q5 0 12 5t11 19q2 8 3 23t1 23v157q0 10 -1 21t-6 22q-2 5 -7.5 12t-16.5 7q-14 0 -19 -15
q-3 -8 -3.5 -20t-0.5 -18v-182zM181 661l141 58v-60l-141 -89l-142 89v60z" />
    <glyph glyph-name="Scommaaccent" unicode="&#x218;" horiz-adv-x="388" 
d="M158 222v-52q0 -29 2 -41.5t4 -17.5q4 -9 11.5 -16t21.5 -7q12 0 19 6t10 15q1 4 2 11t1.5 14.5t0.5 13.5v8v27q0 37 -10.5 56.5t-30.5 39.5l-95 91q-14 14 -27 30t-21 32q-15 29 -18.5 57.5t-3.5 53.5v27q0 31 12.5 57t28.5 42q15 15 32.5 23t35.5 12t34.5 5t28.5 1
q31 0 65.5 -7.5t62.5 -33.5q33 -31 38.5 -65.5t5.5 -70.5v-43h-134v42q0 28 -1 43t-6 23q-2 4 -9 9t-19 5q-17 0 -27 -13q-8 -10 -9 -19t-1 -21v-16q0 -31 14 -51.5t28 -34.5l80 -77q16 -16 31.5 -30.5t27 -34.5t18.5 -48t7 -70v-40q0 -15 -0.5 -30.5t-4.5 -31.5t-13 -32.5
t-25 -32.5q-25 -24 -54.5 -32t-65.5 -8q-26 0 -57.5 6t-61.5 26q-22 15 -35 32t-20 36t-9 38.5t-2 39.5v54h138zM241 -138l-51 -86h-56l36 91h-35v90h106v-95z" />
    <glyph glyph-name="scommaaccent" unicode="&#x219;" 
d="M141 138l-2 -18q-1 -19 8 -30q9 -10 23 -10q5 0 12 1.5t12 9.5q2 4 3.5 11t1.5 11q0 22 -5 38.5t-11.5 27.5t-14 17.5t-11.5 9.5l-39 26q-12 8 -21.5 14.5t-22.5 18.5q-12 11 -21 23t-17 29q-10 20 -13 37t-3 40q0 14 2.5 30t10.5 31q6 12 15.5 22.5t19.5 17.5
q19 13 47.5 20t57.5 7q25 0 50 -5.5t50 -25.5q31 -24 37 -49.5t6 -48.5v-14h-114v18q0 5 -2 13.5t-4 12.5q-3 5 -9 8t-12 3q-5 0 -10.5 -2t-8.5 -5q-5 -5 -6.5 -13.5t-1.5 -13.5q0 -12 2 -21.5t10 -20.5q9 -11 21 -19.5t26 -18.5l51 -35q15 -11 29.5 -26t23.5 -33
q11 -23 12.5 -50t1.5 -49q0 -17 -5 -36.5t-19 -41.5q-11 -16 -24 -28t-31 -19q-15 -6 -38 -9t-39 -3q-20 0 -37.5 3.5t-31.5 8.5q-17 6 -28.5 13t-25.5 23q-2 3 -7.5 10t-10.5 17.5t-9 24.5t-4 31v17h126zM217 -138l-51 -86h-56l36 91h-35v90h106v-95z" />
    <glyph glyph-name="uni021A" unicode="&#x21a;" horiz-adv-x="320" 
d="M91 0v602h-86v98h310v-98h-86v-602h-138zM208 -138l-51 -86h-56l36 91h-35v90h106v-95z" />
    <glyph glyph-name="uni021B" unicode="&#x21b;" horiz-adv-x="217" 
d="M207 0q-16 -1 -22 -1.5t-14 -1.5q-14 -2 -33 -1.5t-29 1.5q-10 2 -22 5t-20 8q-10 7 -15 16t-7 17q-3 11 -4.5 27.5t-1.5 24.5v327h-35v90h35v188h128v-188h35v-90h-35v-297q0 -2 0.5 -7.5t2.5 -11.5t7 -11t14 -5h16v-90zM177 -138l-51 -86h-56l36 91h-35v90h106v-95z
" />
    <glyph glyph-name="uni0228" unicode="&#x228;" horiz-adv-x="369" 
d="M35 700h313v-98h-175v-168h132v-98h-132v-238h191v-98h-159v-32q23 2 42.5 -7t30.5 -21q2 -2 10 -16t8 -40q0 -20 -7 -34t-15 -23q-17 -17 -35.5 -22t-37.5 -5q-15 0 -27 1t-23 2q-9 1 -15.5 2t-16.5 3v58q9 -2 18 -3.5t18 -3.5q8 -1 18 -2t18 -1t13 2t10 10q5 9 5 19
q0 7 -1 12.5t-6 11.5q-8 10 -15.5 11.5t-16.5 1.5h-39v76h-106v700z" />
    <glyph glyph-name="uni0229" unicode="&#x229;" horiz-adv-x="350" 
d="M325 117q0 -5 -0.5 -14t-3.5 -21t-9 -25t-16 -25q-20 -24 -46 -32t-46 -9v-23q23 2 42.5 -7t30.5 -21q2 -2 10 -16t8 -40q0 -20 -7 -34t-15 -23q-17 -17 -35.5 -22t-37.5 -5q-15 0 -27 1t-23 2q-9 1 -15.5 2t-16.5 3v58q9 -2 18 -3.5t18 -3.5q8 -1 18 -2t18 -1t13 2
t10 10q5 9 5 19q0 7 -1 12.5t-6 11.5q-8 10 -15.5 11.5t-16.5 1.5h-39v68q-20 3 -40.5 11t-37.5 25q-13 13 -20.5 28.5t-11 30.5t-4.5 29.5t-1 25.5v241q0 45 14 69t28 36q23 20 52 27t57 7t57 -8t49 -25q15 -12 23.5 -27t13 -30t5.5 -29.5t1 -25.5v-143h-172v-106
q0 -8 0.5 -16.5t5.5 -15.5q8 -12 24 -12q11 0 17 3.5t8 7.5q3 5 4 14.5t1 14.5v57h112v-64zM205 391q0 5 -0.5 13.5t-4.5 13.5q-4 7 -10 8.5t-11 1.5q-9 0 -14 -3.5t-7 -6.5q-4 -5 -4.5 -14t-0.5 -14v-76h52v77z" />
    <glyph glyph-name="uni0259" unicode="&#x259;" horiz-adv-x="350" 
d="M25 395q0 4 0.5 13.5t3.5 21.5t9 25t16 25q25 29 56.5 35.5t59.5 6.5q12 0 27 -1t31 -4.5t31.5 -11.5t28.5 -21t20 -28.5t11 -30.5t5 -29.5t1 -25.5v-241q0 -45 -14 -69t-28 -36q-23 -20 -52 -27t-57 -7t-57 8t-49 25q-15 12 -23.5 27t-13 30t-5.5 29.5t-1 25.5v143h172
v106q0 8 -0.5 16.5t-5.5 15.5q-8 12 -24 12q-5 0 -12.5 -1.5t-12.5 -9.5t-5 -29v-57h-112v64zM145 121q0 -5 0.5 -13.5t4.5 -13.5q4 -7 10 -8.5t11 -1.5q9 0 14 3.5t7 6.5q4 5 4.5 14t0.5 14v76h-52v-77z" />
    <glyph glyph-name="afii57929" unicode="&#x2bc;" horiz-adv-x="179" 
d="M149 581l-65 -108h-54l45 117h-42v110h116v-119z" />
    <glyph glyph-name="circumflex" unicode="&#x2c6;" 
d="M28 611l142 89l141 -89v-60l-141 58l-142 -58v60z" />
    <glyph glyph-name="caron" unicode="&#x2c7;" 
d="M170 661l141 58v-60l-141 -89l-142 89v60z" />
    <glyph glyph-name="breve" unicode="&#x2d8;" 
d="M316 700q-1 -25 -12 -52t-40 -49q-22 -17 -45 -23t-49 -6t-49 6t-45 23q-29 22 -40 49t-12 52h97q-1 -10 1 -21.5t7 -19.5t17 -15t25 -7q5 0 18 3t22 19q6 10 7.5 21.5t0.5 19.5h97z" />
    <glyph glyph-name="dotaccent" unicode="&#x2d9;" 
d="M101 578v122h139v-122h-139z" />
    <glyph glyph-name="ring" unicode="&#x2da;" 
d="M117 634q0 -23 15 -38t38 -15t38 15t15 38t-15 38t-38 15t-38 -15t-15 -38zM63 634q0 22 8.5 42t22.5 34t33.5 22.5t42.5 8.5q22 0 42 -8.5t34 -22.5t22.5 -34t8.5 -42q0 -23 -8.5 -42.5t-22.5 -33.5t-34 -22.5t-42 -8.5q-23 0 -42.5 8.5t-33.5 22.5t-22.5 33.5
t-8.5 42.5z" />
    <glyph glyph-name="ogonek" unicode="&#x2db;" 
d="M249 -200h-35q-25 0 -48 2.5t-44 18.5q-20 15 -25 31.5t-5 27.5q0 26 8.5 43t14.5 26q11 14 24 27.5t26 23.5h75q-8 -9 -21 -25t-21 -28q-23 -33 -23 -58q0 -15 10 -24q13 -10 45 -10h19v-55z" />
    <glyph glyph-name="tilde" unicode="&#x2dc;" 
d="M17 657q11 11 24 20t25 14q10 5 21.5 7t22.5 2q14 0 23.5 -3t20.5 -8l46 -22q18 -8 27.5 -11t15.5 -3q14 0 26.5 8t21.5 16l15 13l17 -70q-7 -7 -17.5 -15.5t-24.5 -16.5q-8 -5 -18.5 -8.5t-23.5 -3.5q-6 0 -13.5 1t-13.5 3q-5 2 -12.5 4.5t-18.5 7.5l-40 18
q-9 5 -20.5 8.5t-24.5 3.5q-8 0 -16.5 -2t-17.5 -7q-10 -5 -20 -15.5t-16 -18.5z" />
    <glyph glyph-name="hungarumlaut" unicode="&#x2dd;" 
d="M17 586l91 114l60 -55l-110 -95zM172 586l91 114l60 -55l-110 -95z" />
    <glyph glyph-name="acutecomb" unicode="&#x301;" horiz-adv-x="2" 
d="M-252 593l148 148l68 -80l-181 -115z" />
    <glyph glyph-name="Delta" unicode="&#x394;" horiz-adv-x="384" 
d="M10 0l67 700h232l65 -700h-364zM226 98l-31 495h-4l-33 -495h68z" />
    <glyph glyph-name="Delta" unicode="&#x2206;" horiz-adv-x="384" 
d="M10 0l67 700h232l65 -700h-364zM226 98l-31 495h-4l-33 -495h68z" />
    <glyph glyph-name="Omega" unicode="&#x3a9;" horiz-adv-x="412" 
d="M380 99v-99h-156v169q6 3 9 7t5 10q0 1 2 9.5t2 25.5v328q0 7 -1 17.5t-3 17.5q-5 14 -14 17.5t-18 3.5t-18 -3.5t-14 -17.5q-2 -7 -3 -17.5t-1 -17.5v-328q0 -6 1 -17t3 -18q1 -2 4 -7t10 -10v-169h-156v99h95q-16 5 -27 13t-22 19q-29 30 -37.5 59t-8.5 64v292
q0 32 8.5 64t37.5 59q17 15 47 28t81 13q29 0 64 -7.5t64 -33.5q31 -28 38.5 -59t7.5 -64v-292q0 -36 -7.5 -64t-38.5 -59q-11 -10 -22.5 -18t-26.5 -14h95z" />
    <glyph glyph-name="Omega" unicode="&#x2126;" horiz-adv-x="412" 
d="M380 99v-99h-156v169q6 3 9 7t5 10q0 1 2 9.5t2 25.5v328q0 7 -1 17.5t-3 17.5q-5 14 -14 17.5t-18 3.5t-18 -3.5t-14 -17.5q-2 -7 -3 -17.5t-1 -17.5v-328q0 -6 1 -17t3 -18q1 -2 4 -7t10 -10v-169h-156v99h95q-16 5 -27 13t-22 19q-29 30 -37.5 59t-8.5 64v292
q0 32 8.5 64t37.5 59q17 15 47 28t81 13q29 0 64 -7.5t64 -33.5q31 -28 38.5 -59t7.5 -64v-292q0 -36 -7.5 -64t-38.5 -59q-11 -10 -22.5 -18t-26.5 -14h95z" />
    <glyph glyph-name="pi" unicode="&#x3c0;" horiz-adv-x="547" 
d="M345 0v422h-52v-422h-128v420q-8 -2 -15.5 -6t-15.5 -16q-11 -17 -12.5 -36.5t-1.5 -35.5v-27h-110v37q0 29 5.5 61t33.5 64q16 19 33.5 29t33 15t28.5 6t21 1h372v-90h-64v-422h-128z" />
    <glyph glyph-name="afii10023" unicode="&#x401;" horiz-adv-x="369" 
d="M53 860h107v-115h-107v115zM224 860h107v-115h-107v115zM35 700h313v-98h-175v-168h132v-98h-132v-238h191v-98h-329v700z" />
    <glyph glyph-name="afii10051" unicode="&#x402;" horiz-adv-x="504" 
d="M346 229q0 10 -1.5 28t-6.5 27q-8 18 -22 23t-26 5h-34v-312h-138v602h-114v98h386v-98h-134v-192h46q6 0 19.5 -0.5t31 -3.5t36 -8.5t33.5 -15.5q21 -14 33 -32.5t18.5 -38t8.5 -37.5t2 -30v-244h-138v229z" />
    <glyph glyph-name="afii10052" unicode="&#x403;" horiz-adv-x="350" 
d="M35 0v700h311v-98h-173v-602h-138zM69 778l244 109l37 -98l-263 -59z" />
    <glyph glyph-name="afii10053" unicode="&#x404;" horiz-adv-x="412" 
d="M242 498v51q0 7 -1 17.5t-3 17.5q-5 14 -14 17.5t-18 3.5t-18 -3.5t-14 -17.5q-2 -7 -3 -17.5t-1 -17.5v-127h136v-98h-136v-173q0 -6 1 -17t3 -18q5 -14 15 -17.5t17 -3.5t17 3.5t15 17.5q2 7 3 18t1 17v98h138v-95q0 -33 -7.5 -64t-38.5 -59q-29 -26 -64 -33.5
t-64 -7.5q-51 0 -81 13t-47 28q-29 27 -37.5 59t-8.5 64v392q0 32 8.5 64t37.5 59q17 15 47 28t81 13q29 0 64 -7.5t64 -33.5q31 -28 38.5 -59t7.5 -64v-48h-138z" />
    <glyph glyph-name="afii10054" unicode="&#x405;" horiz-adv-x="388" 
d="M158 222v-52q0 -29 2 -41.5t4 -17.5q4 -9 11.5 -16t21.5 -7q12 0 19 6t10 15q1 4 2 11t1.5 14.5t0.5 13.5v8v27q0 37 -10.5 56.5t-30.5 39.5l-95 91q-14 14 -27 30t-21 32q-15 29 -18.5 57.5t-3.5 53.5v27q0 31 12.5 57t28.5 42q15 15 32.5 23t35.5 12t34.5 5t28.5 1
q31 0 65.5 -7.5t62.5 -33.5q33 -31 38.5 -65.5t5.5 -70.5v-43h-134v42q0 28 -1 43t-6 23q-2 4 -9 9t-19 5q-17 0 -27 -13q-8 -10 -9 -19t-1 -21v-16q0 -31 14 -51.5t28 -34.5l80 -77q16 -16 31.5 -30.5t27 -34.5t18.5 -48t7 -70v-40q0 -15 -0.5 -30.5t-4.5 -31.5t-13 -32.5
t-25 -32.5q-25 -24 -54.5 -32t-65.5 -8q-26 0 -57.5 6t-61.5 26q-22 15 -35 32t-20 36t-9 38.5t-2 39.5v54h138z" />
    <glyph glyph-name="afii10055" unicode="&#x406;" horiz-adv-x="208" 
d="M35 700h138v-700h-138v700z" />
    <glyph glyph-name="afii10056" unicode="&#x407;" horiz-adv-x="272" 
d="M67 700h138v-700h-138v700zM15 860h97v-115h-97v115zM160 860h97v-115h-97v115z" />
    <glyph glyph-name="afii10057" unicode="&#x408;" horiz-adv-x="285" 
d="M5 98h56q10 0 24 0.5t21 10.5q2 2 4 9t2 24v558h138v-567q0 -20 -3.5 -42t-17.5 -42q-12 -16 -27 -25.5t-31 -15t-31.5 -7t-27.5 -1.5h-107v98z" />
    <glyph glyph-name="afii10058" unicode="&#x409;" horiz-adv-x="634" 
d="M266 602h-60v-232q0 -44 -0.5 -88t-4.5 -84.5t-13.5 -76t-27.5 -63.5q-19 -29 -48 -43.5t-81 -14.5h-27v102q13 1 24.5 6.5t22.5 18.5q21 26 24 68t3 94v411h326v-291h72q10 0 25.5 -0.5t32 -5.5t33 -16t30.5 -32t15.5 -38.5t1.5 -37.5v-156q0 -18 -3.5 -38t-17.5 -40
q-11 -16 -33 -30.5t-51 -14.5h-243v602zM439 98q8 0 18 3.5t15 17.5q3 8 3.5 22.5t0.5 22.5v81q0 30 -8 45q-3 5 -11.5 13t-25.5 8h-27v-213h35z" />
    <glyph glyph-name="afii10059" unicode="&#x40a;" horiz-adv-x="613" 
d="M245 700h138v-291h72q10 0 25.5 -0.5t32 -5.5t33 -16t30.5 -32t15.5 -38.5t1.5 -37.5v-156q0 -18 -3.5 -38t-17.5 -40q-11 -16 -33 -30.5t-51 -14.5h-243v336h-72v-336h-138v700h138v-269h72v269zM418 98q8 0 18 3.5t15 17.5q3 8 3.5 22.5t0.5 22.5v81q0 30 -8 45
q-3 5 -11.5 13t-25.5 8h-27v-213h35z" />
    <glyph glyph-name="afii10060" unicode="&#x40b;" horiz-adv-x="504" 
d="M274 90q11 -7 28 -7q6 0 13 2t14 8q6 5 11.5 16.5t5.5 31.5v88q0 10 -1.5 28t-6.5 27q-8 18 -22 23t-26 5h-40v-312h-138v602h-108v98h386v-98h-140v-192h52q5 0 18 -0.5t30.5 -3t36.5 -8.5t35 -16q20 -13 32.5 -31.5t19 -38.5t8.5 -40t2 -36v-79q0 -36 -7 -73.5
t-38 -65.5q-24 -22 -49 -27.5t-45 -5.5q-22 0 -39 4t-32 10v91z" />
    <glyph glyph-name="afii10061" unicode="&#x40c;" horiz-adv-x="413" 
d="M255 0q-5 16 -8 32q-2 7 -3 19t-1 20v195q0 20 -2 28t-3 10q-5 10 -13 12.5t-16 2.5h-41v-319h-138v700h138v-283h43q11 0 16.5 6t8 14t2.5 17.5v16.5v180q0 8 1 16.5t3 14.5q4 11 14 18h134v-4q-5 -4 -9 -9.5t-6 -11.5t-2.5 -19.5t-0.5 -21.5v-157q0 -13 -1 -29t-9 -30
q-7 -11 -22 -22.5t-39 -13.5v-4q22 -2 41 -12t28 -24q11 -16 11 -34v-33v-191q0 -9 1 -22.5t4 -24.5q7 -21 17 -33v-4h-148zM76 779l244 109l37 -98l-263 -59z" />
    <glyph glyph-name="afii10062" unicode="&#x40e;" horiz-adv-x="395" 
d="M29 98h23q14 0 28.5 3t24.5 11t17.5 22.5t10.5 29.5l13 67l-141 469h133l65 -224l55 224h132l-139 -569q-8 -33 -16.5 -60.5t-38.5 -48.5q-24 -17 -49.5 -19.5t-55.5 -2.5h-62v98zM352 857q-1 -25 -12 -52t-40 -49q-22 -17 -45 -23t-49 -6t-49 6t-45 23q-29 22 -40 49
t-12 52h97q-1 -10 1 -21.5t7 -19.5t17 -15t25 -7q5 0 18 3t22 19q6 10 7.5 21.5t0.5 19.5h97z" />
    <glyph glyph-name="afii10145" unicode="&#x40f;" horiz-adv-x="418" 
d="M383 0h-127v-130h-94v130h-127v700h138v-602h72v602h138v-700z" />
    <glyph glyph-name="afii10017" unicode="&#x410;" horiz-adv-x="384" 
d="M231 0l-8 89h-62l-8 -89h-143l67 700h232l65 -700h-143zM219 187l-24 406h-4l-26 -406h54z" />
    <glyph glyph-name="afii10018" unicode="&#x411;" horiz-adv-x="404" 
d="M361 602h-188v-193h72q10 0 25.5 -0.5t32 -5.5t33 -16t30.5 -32t15.5 -38.5t1.5 -37.5v-156q0 -18 -3.5 -38t-17.5 -40q-11 -16 -33 -30.5t-51 -14.5h-243v700h326v-98zM208 98q8 0 18 3.5t15 17.5q3 8 3.5 22.5t0.5 22.5v81q0 30 -8 45q-3 5 -11.5 13t-25.5 8h-27v-213
h35z" />
    <glyph glyph-name="afii10019" unicode="&#x412;" horiz-adv-x="406" 
d="M30 700h246q19 0 41 -6t42 -31q16 -21 19.5 -43t3.5 -42v-87q0 -14 -2.5 -35t-12.5 -37q-8 -12 -20.5 -20.5t-24.5 -12.5q19 -5 30 -14t17 -17q14 -20 15.5 -39t1.5 -37v-156q0 -17 -3.5 -37t-17.5 -40q-22 -30 -51.5 -38t-53.5 -8h-230v700zM211 98q8 0 18 3.5t15 17.5
q1 2 2.5 12t1.5 41v93q0 30 -8 45q-3 5 -11.5 13t-25.5 8h-35v-233h43zM205 429q11 0 19 6t12 12q6 11 7 23t1 20v66q0 7 -1.5 16.5t-7.5 17.5q-5 6 -14 9t-17 3h-36v-173h37z" />
    <glyph glyph-name="afii10020" unicode="&#x413;" horiz-adv-x="350" 
d="M35 0v700h311v-98h-173v-602h-138z" />
    <glyph glyph-name="afii10021" unicode="&#x414;" horiz-adv-x="481" 
d="M377 -130v130h-274l1 -130h-94v228h22q18 31 30.5 64.5t21 74t12.5 91.5t4 118v254h331v-602h40v-228h-94zM293 98v504h-70v-179q0 -62 -3.5 -109.5t-10.5 -86t-17.5 -70t-23.5 -59.5h125z" />
    <glyph glyph-name="afii10022" unicode="&#x415;" horiz-adv-x="369" 
d="M35 700h313v-98h-175v-168h132v-98h-132v-238h191v-98h-329v700z" />
    <glyph glyph-name="afii10024" unicode="&#x416;" horiz-adv-x="627" 
d="M244 0v319h-40q-8 0 -16 -2.5t-13 -12.5q-1 -2 -3 -10t-2 -28v-195q0 -8 -1 -20t-3 -19q-3 -16 -8 -32h-148v4q10 12 17 33q3 11 4 24.5t1 22.5v191v33t11 34q9 14 28 24t41 12v4q-24 2 -39 13.5t-22 22.5q-8 14 -9 30t-1 29v157q0 7 -0.5 21t-2.5 20t-7.5 13t-7.5 10v2
h134q10 -7 14 -18q2 -6 3 -14.5t1 -16.5v-180v-16.5t2.5 -17.5t8 -14t16.5 -6h42v283h139v-283h42q11 0 16.5 6t8 14t2.5 17.5v16.5v180q0 8 1 16.5t3 14.5q4 11 14 18h134v-3q-2 -2 -7 -8.5t-7 -11.5q-1 -2 -2.5 -11t-1.5 -32v-157q0 -13 -1 -29t-9 -30q-7 -11 -22 -22.5
t-39 -13.5v-4q22 -2 41 -12t28 -24q11 -16 11 -34v-33v-191q0 -9 1 -22.5t4 -24.5q7 -21 17 -33v-4h-148q-5 16 -8 32q-2 7 -3 19t-1 20v195q0 20 -2 28t-3 10q-5 10 -13 12.5t-16 2.5h-40v-319h-139z" />
    <glyph glyph-name="afii10025" unicode="&#x417;" horiz-adv-x="396" 
d="M371 158q0 -24 -4 -56.5t-27 -61.5q-14 -17 -32 -27t-37 -15t-38.5 -6.5t-37.5 -1.5q-35 0 -71.5 9t-66.5 45q-26 31 -31.5 63.5t-5.5 52.5v60h138v-63q0 -41 8 -54q9 -15 29 -15q22 0 32 16q4 8 5 18t1 27v92q0 15 -2 32t-12 28t-30 16.5t-39 5.5h-33v92h53q11 0 24 3
t22 16q5 8 7.5 19.5t2.5 23.5v83q0 8 -2 20t-5 17q-4 6 -11 10.5t-17 4.5q-11 0 -17.5 -4.5t-10.5 -11.5q-2 -3 -4.5 -12.5t-2.5 -30.5v-47h-134v59q0 26 9.5 57.5t41.5 55.5q23 17 58 24.5t64 7.5q32 0 64.5 -8t53.5 -24q32 -24 41.5 -57t9.5 -61v-84q0 -29 -9.5 -46.5
t-18.5 -26.5q-11 -11 -25.5 -18t-29.5 -11v-3q26 -6 41 -18t17 -14q14 -14 23 -40t9 -68v-73z" />
    <glyph glyph-name="afii10026" unicode="&#x418;" horiz-adv-x="418" 
d="M245 0v328l4 51l-76 -272v-107h-138v700h138v-322l-4 -57l76 270v109h138v-700h-138z" />
    <glyph glyph-name="afii10027" unicode="&#x419;" horiz-adv-x="418" 
d="M245 0v328l4 51l-76 -272v-107h-138v700h138v-322l-4 -57l76 270v109h138v-700h-138zM346 857q-2 -42 -17 -65t-32 -36q-22 -17 -43 -23t-45 -6t-45 6t-43 23q-17 13 -32 36t-17 65h91q-1 -7 0.5 -19t6.5 -22q5 -8 14.5 -15t25.5 -7q14 0 23.5 6.5t14.5 15.5q5 10 6.5 22
t0.5 19h91z" />
    <glyph glyph-name="afii10028" unicode="&#x41a;" horiz-adv-x="413" 
d="M255 0q-5 16 -8 32q-2 7 -3 19t-1 20v195q0 20 -2 28t-3 10q-5 10 -13 12.5t-16 2.5h-41v-319h-138v700h138v-283h43q11 0 16.5 6t8 14t2.5 17.5v16.5v180q0 8 1 16.5t3 14.5q4 11 14 18h134v-4q-5 -4 -9 -9.5t-6 -11.5t-2.5 -19.5t-0.5 -21.5v-157q0 -13 -1 -29t-9 -30
q-7 -11 -22 -22.5t-39 -13.5v-4q22 -2 41 -12t28 -24q11 -16 11 -34v-33v-191q0 -9 1 -22.5t4 -24.5q7 -21 17 -33v-4h-148z" />
    <glyph glyph-name="afii10029" unicode="&#x41b;" horiz-adv-x="445" 
d="M272 0v602h-60v-232q0 -44 -0.5 -88t-4.5 -84.5t-13.5 -76t-27.5 -63.5q-19 -29 -48 -43.5t-81 -14.5h-27v102q13 1 24.5 6.5t22.5 18.5q21 26 24 68t3 94v411h326v-700h-138z" />
    <glyph glyph-name="afii10030" unicode="&#x41c;" horiz-adv-x="564" 
d="M243 0l-72 347h-4l6 -93v-254h-138v700h170l75 -401h4l75 401h170v-700h-138v254l6 93h-4l-72 -347h-78z" />
    <glyph glyph-name="afii10031" unicode="&#x41d;" horiz-adv-x="418" 
d="M173 336v-336h-138v700h138v-269h72v269h138v-700h-138v336h-72z" />
    <glyph glyph-name="afii10032" unicode="&#x41e;" horiz-adv-x="412" 
d="M380 154q0 -33 -7.5 -64t-38.5 -59q-29 -26 -64 -33.5t-64 -7.5q-51 0 -81 13t-47 28q-29 27 -37.5 59t-8.5 64v392q0 32 8.5 64t37.5 59q17 15 47 28t81 13q29 0 64 -7.5t64 -33.5q31 -28 38.5 -59t7.5 -64v-392zM242 549q0 7 -1 17.5t-3 17.5q-5 14 -14 17.5t-18 3.5
t-18 -3.5t-14 -17.5q-2 -7 -3 -17.5t-1 -17.5v-398q0 -6 1 -17t3 -18q5 -14 15 -17.5t17 -3.5t17 3.5t15 17.5q2 7 3 18t1 17v398z" />
    <glyph glyph-name="afii10033" unicode="&#x41f;" horiz-adv-x="418" 
d="M245 0v602h-72v-602h-138v700h348v-700h-138z" />
    <glyph glyph-name="afii10034" unicode="&#x420;" horiz-adv-x="398" 
d="M35 0v700h209q38 0 67 -12t45 -30q10 -12 16 -26.5t8 -29.5t2.5 -29t0.5 -26v-105q0 -12 -0.5 -27t-3 -30.5t-8 -31t-16.5 -27.5q-12 -13 -26.5 -20t-30 -11t-31.5 -5t-29 -1q-19 -1 -33 -0.5t-32 5.5v-294h-138zM207 392q11 0 19.5 4t13.5 16q2 4 3.5 14t1.5 35v79
q0 20 -2 30.5t-6 16.5t-11 10.5t-17 4.5h-36v-210h34z" />
    <glyph glyph-name="afii10035" unicode="&#x421;" horiz-adv-x="405" 
d="M242 479v70q0 7 -1 17.5t-3 17.5q-5 14 -14 17.5t-18 3.5t-18 -3.5t-14 -17.5q-2 -7 -3 -17.5t-1 -17.5v-398q0 -6 1 -17t3 -18q5 -14 15 -17.5t17 -3.5t17 3.5t15 17.5q2 7 3 18t1 17v110h138v-107q0 -33 -7.5 -64t-38.5 -59q-29 -26 -64 -33.5t-64 -7.5q-51 0 -81 13
t-47 28q-29 27 -37.5 59t-8.5 64v392q0 32 8.5 64t37.5 59q17 15 47 28t81 13q29 0 64 -7.5t64 -33.5q31 -28 38.5 -59t7.5 -64v-67h-138z" />
    <glyph glyph-name="afii10036" unicode="&#x422;" horiz-adv-x="320" 
d="M91 0v602h-86v98h310v-98h-86v-602h-138z" />
    <glyph glyph-name="afii10037" unicode="&#x423;" horiz-adv-x="395" 
d="M29 98h23q14 0 28.5 3t24.5 11t17.5 22.5t10.5 29.5l13 67l-141 469h133l65 -224l55 224h132l-139 -569q-8 -33 -16.5 -60.5t-38.5 -48.5q-24 -17 -49.5 -19.5t-55.5 -2.5h-62v98z" />
    <glyph glyph-name="afii10038" unicode="&#x424;" horiz-adv-x="588" 
d="M225 0v107h-92q-23 0 -46 5t-44 28q-22 25 -25 50.5t-3 48.5v226q0 23 3 48.5t25 50.5q21 23 44 28t46 5h92v103h138v-103h92q23 0 46 -5t44 -28q22 -25 25 -50.5t3 -48.5v-226q0 -23 -3 -48.5t-25 -50.5q-21 -23 -44 -28t-46 -5h-92v-107h-138zM388 205q9 0 19.5 4
t16.5 10q10 11 10.5 25.5t0.5 25.5v164q0 11 -0.5 25.5t-10.5 25.5q-6 6 -16.5 10t-19.5 4h-25v-294h25zM225 499h-25q-9 0 -19.5 -4t-16.5 -10q-10 -11 -10.5 -25.5t-0.5 -25.5v-164q0 -11 0.5 -25.5t10.5 -25.5q6 -6 16.5 -10t19.5 -4h25v294z" />
    <glyph glyph-name="afii10039" unicode="&#x425;" horiz-adv-x="416" 
d="M261 0l-44 158l-7 41h-4l-7 -41l-44 -158h-145l128 377l-106 323h134l40 -145h4l40 145h134l-106 -322l128 -378h-145z" />
    <glyph glyph-name="afii10040" unicode="&#x426;" horiz-adv-x="422" 
d="M323 -130v130h-288v700h138v-602h72v602h138v-602h34v-228h-94z" />
    <glyph glyph-name="afii10041" unicode="&#x427;" horiz-adv-x="408" 
d="M235 0v304h-118q-14 0 -33.5 6.5t-37.5 29.5q-14 18 -17.5 37t-3.5 55v268h138v-253q0 -3 0.5 -13t2.5 -15q4 -12 11 -14.5t17 -2.5h41v298h138v-700h-138z" />
    <glyph glyph-name="afii10042" unicode="&#x428;" horiz-adv-x="628" 
d="M35 0v700h138v-602h72v602h138v-602h72v602h138v-700h-558z" />
    <glyph glyph-name="afii10043" unicode="&#x429;" horiz-adv-x="631" 
d="M35 700h138v-602h72v602h138v-602h72v602h138v-602h34v-228h-94v130h-498v700z" />
    <glyph glyph-name="afii10044" unicode="&#x42a;" horiz-adv-x="471" 
d="M241 409h72q10 0 25 -0.5t32 -5.5t33.5 -16t30.5 -32q12 -19 14.5 -39.5t2.5 -41.5v-146q0 -21 -3.5 -42t-17.5 -41q-11 -16 -33 -30.5t-51 -14.5h-243v602h-98v98h236v-291zM276 98q8 0 18 3.5t15 17.5q3 8 3.5 22.5t0.5 22.5v81q0 30 -8 45q-3 5 -11.5 13t-25.5 8h-27
v-213h35z" />
    <glyph glyph-name="afii10045" unicode="&#x42b;" horiz-adv-x="597" 
d="M173 409h72q10 0 25 -0.5t32 -5.5t33.5 -16t30.5 -32q12 -19 14.5 -39.5t2.5 -41.5v-146q0 -21 -3.5 -42t-17.5 -41q-11 -16 -33 -30.5t-51 -14.5h-243v700h138v-291zM208 98q8 0 18 3.5t15 17.5q3 8 3.5 22.5t0.5 22.5v81q0 30 -8 45q-3 5 -11.5 13t-25.5 8h-27v-213h35
zM424 700h138v-700h-138v700z" />
    <glyph glyph-name="afii10046" unicode="&#x42c;" horiz-adv-x="403" 
d="M173 409h72q10 0 25 -0.5t32 -5.5t33.5 -16t30.5 -32q12 -19 14.5 -39.5t2.5 -41.5v-146q0 -21 -3.5 -42t-17.5 -41q-11 -16 -33 -30.5t-51 -14.5h-243v700h138v-291zM208 98q8 0 18 3.5t15 17.5q3 8 3.5 22.5t0.5 22.5v81q0 30 -8 45q-3 5 -11.5 13t-25.5 8h-27v-213h35
z" />
    <glyph glyph-name="afii10047" unicode="&#x42d;" horiz-adv-x="405" 
d="M25 546q0 16 1.5 32.5t6 32t13.5 30t25 28.5q29 26 64 33.5t64 7.5q51 0 81 -13t47 -28q29 -27 37.5 -59t8.5 -64v-392q0 -32 -8.5 -64t-37.5 -59q-17 -15 -47 -28t-81 -13q-29 0 -64 7.5t-64 33.5q-16 14 -25 28.5t-13.5 30t-6 31.5t-1.5 33v95h138v-98q0 -6 1 -17
t3 -18q5 -14 15 -17.5t17 -3.5t17 3.5t15 17.5q2 7 3 18t1 17v173h-136v98h136v127q0 7 -1 17.5t-3 17.5q-5 14 -14 17.5t-18 3.5t-18 -3.5t-14 -17.5q-2 -7 -3 -17.5t-1 -17.5v-51h-138v48z" />
    <glyph glyph-name="afii10048" unicode="&#x42e;" horiz-adv-x="614" 
d="M582 154q0 -33 -7.5 -64t-38.5 -59q-29 -26 -64 -33.5t-64 -7.5q-51 0 -81 13t-47 28q-29 27 -37.5 59t-8.5 64v179h-61v-333h-138v700h138v-269h61v115q0 32 8.5 64t37.5 59q17 15 47 28t81 13q29 0 64 -7.5t64 -33.5q31 -28 38.5 -59t7.5 -64v-392zM444 549
q0 7 -1 17.5t-3 17.5q-5 14 -14 17.5t-18 3.5t-18 -3.5t-14 -17.5q-2 -7 -3 -17.5t-1 -17.5v-398q0 -6 1 -17t3 -18q5 -14 15 -17.5t17 -3.5t17 3.5t15 17.5q2 7 3 18t1 17v398z" />
    <glyph glyph-name="afii10049" unicode="&#x42f;" horiz-adv-x="416" 
d="M5 7q11 3 18 8.5t10.5 16t5 27t1.5 40.5v150q0 23 5 47.5t30 41.5q11 7 27 13t21 8v6q-11 2 -29 8t-28 11q-23 13 -28.5 30t-5.5 34v139q0 17 3 35t16 35q20 27 47 35t51 8h232v-700h-138v306h-19q-8 0 -18 -2t-18 -10q-9 -10 -9.5 -23t-0.5 -24v-164q0 -27 -4 -46.5
t-15 -36.5h-154v7zM243 602h-37q-13 0 -20.5 -5.5t-10.5 -10.5q-4 -7 -4.5 -19.5t-0.5 -15.5v-90q0 -9 4 -21.5t9 -18.5q7 -7 15 -8.5t16 -1.5h29v191z" />
    <glyph glyph-name="afii10065" unicode="&#x430;" horiz-adv-x="356" 
d="M223 0l-14 38q-5 -8 -13.5 -17.5t-17.5 -15.5q-14 -10 -29.5 -12.5t-28.5 -2.5q-20 0 -43 6.5t-40 30.5q-15 20 -18.5 44.5t-3.5 42.5v24q0 26 10 60t48 64q13 10 42 25t88 35v69q0 4 -0.5 13t-3.5 15q-4 8 -10.5 10.5t-12.5 2.5t-12.5 -2.5t-10.5 -10.5q-3 -6 -3.5 -15
t-0.5 -13v-46h-124v50q0 20 4 42t24 44q26 27 59 34t64 7q29 0 62.5 -6.5t60.5 -34.5q20 -21 26 -43.5t6 -48.5v-389h-108zM203 248q-14 -5 -27.5 -15.5t-21.5 -24.5q-8 -13 -9.5 -27.5t-1.5 -27.5v-30q0 -18 1.5 -25.5t3.5 -11.5q4 -7 10.5 -11.5t14.5 -4.5q6 0 13 3t12 12
q2 3 3.5 11.5t1.5 30.5v121z" />
    <glyph glyph-name="afii10066" unicode="&#x431;" horiz-adv-x="360" 
d="M335 137q0 -31 -4.5 -56.5t-29.5 -50.5q-26 -26 -58.5 -33t-62.5 -7q-49 0 -77.5 12.5t-43.5 27.5q-24 24 -29 52.5t-5 54.5v380q0 7 1 21t5 30.5t13 33t24 29.5q23 19 47.5 22.5t38.5 3.5h46q8 0 20.5 3t24.5 17q10 11 10 23h80q1 -17 -2 -41.5t-14 -45.5
q-19 -35 -46.5 -45.5t-56.5 -10.5h-54q-32 0 -51.5 -14t-26.5 -30q-5 -11 -6 -26t0 -27h3q10 18 23 28.5t27.5 16t29 6.5t26.5 1q29 0 56.5 -4.5t50.5 -24.5q29 -24 35 -54t6 -64v-228zM207 384q0 12 -1 18t-3 9q-4 8 -10.5 9.5t-12.5 1.5t-12.5 -1.5t-10.5 -9.5
q-2 -3 -3 -9t-1 -18v-266q0 -12 1 -18t3 -9q4 -8 10.5 -9.5t12.5 -1.5t12.5 1.5t10.5 9.5q2 3 3 9t1 18v266z" />
    <glyph glyph-name="afii10067" unicode="&#x432;" horiz-adv-x="364" 
d="M30 512h180q41 0 68 -7t45 -28q13 -14 17 -29t4 -29v-48q0 -14 -1.5 -28.5t-9.5 -28.5q-7 -11 -19.5 -22.5t-23.5 -18.5q2 -1 12 -5t20 -12q17 -15 19.5 -31.5t2.5 -36.5v-73q0 -17 -2.5 -42t-17.5 -45q-18 -24 -38.5 -26t-38.5 -2h-217v512zM184 84q7 0 14 1.5t12 9.5
q2 2 4 9t2 27v54q0 11 -2 20.5t-7 15.5q-7 8 -15 8.5t-15 0.5h-19v-146h26zM185 312q9 0 15 3t9 6q5 6 6 14t1 15v41q0 12 -1.5 18t-3.5 8q-5 7 -11.5 9t-12.5 2h-29v-116h27z" />
    <glyph glyph-name="afii10068" unicode="&#x433;" horiz-adv-x="279" 
d="M30 0v512h246v-90h-118v-422h-128z" />
    <glyph glyph-name="afii10069" unicode="&#x434;" horiz-adv-x="418" 
d="M318 -110v110h-218v-110h-90v200h23q14 28 21.5 51t10.5 34q3 13 6 30t4.5 34t2.5 32.5t1 27.5v213h294v-422h35v-200h-90zM245 422h-48v-129q0 -26 -3.5 -59t-8.5 -60q-9 -44 -25 -84h85v332z" />
    <glyph glyph-name="afii10070" unicode="&#x435;" horiz-adv-x="360" 
d="M335 117q0 -31 -10.5 -52t-21.5 -33q-26 -28 -58.5 -35t-64.5 -7q-31 0 -59.5 7t-54.5 33q-26 27 -33.5 58t-7.5 60v210q0 27 5 59.5t30 59.5q20 21 51.5 33t67.5 12q38 0 68.5 -12t50.5 -33q15 -15 22.5 -30t10.5 -30t3.5 -30t0.5 -29v-130h-182v-114q0 -8 2.5 -13.5
t4.5 -7.5q5 -7 11 -8t11 -1q8 0 13 1t10 8q5 6 5.5 12t0.5 12v43h124v-43zM207 391q0 11 -1.5 17t-3.5 9q-5 8 -11.5 9.5t-11.5 1.5q-3 0 -9.5 -1.5t-11.5 -9.5q-2 -4 -3.5 -10t-1.5 -17v-82h54v83z" />
    <glyph glyph-name="afii10072" unicode="&#x436;" horiz-adv-x="555" 
d="M412 0q-4 10 -8 23q-2 5 -3 14t-1 15v131q0 3 -0.5 13t-4.5 15q-5 8 -13 9.5t-16 1.5h-24v-222h-129v222h-24q-8 0 -16 -1.5t-13 -9.5q-4 -5 -4.5 -15t-0.5 -13v-131q0 -6 -1 -15t-3 -14q-4 -13 -8 -23h-138v3q5 5 10 11t7 13q3 8 4 17.5t1 16.5v140v23.5t11 26.5
q6 8 17 14.5t22 10.5v3q-10 4 -20 11t-16 15q-8 11 -9 21.5t-1 21.5v115q0 5 -0.5 15t-2.5 15q-1 2 -4 5.5t-11 11.5v2h128q4 -2 8 -5.5t6 -8.5q2 -4 3 -11t1 -12v-124q0 -6 0.5 -12.5t2.5 -12.5t7.5 -10t16.5 -4h27v200h129v-200h27q10 0 16 4t8 10t2.5 12.5t0.5 12.5v124
q0 5 1 12t3 11q2 5 6 8.5t8 5.5h128v-2q-8 -8 -11 -11.5t-4 -5.5q-2 -5 -2.5 -15t-0.5 -15v-115q0 -11 -1 -21.5t-9 -21.5q-6 -8 -16 -15t-20 -11v-3q11 -4 22 -10.5t17 -14.5q11 -14 11 -26.5v-23.5v-140q0 -7 1 -16.5t4 -17.5q2 -7 7 -13t10 -11v-3h-138z" />
    <glyph glyph-name="afii10073" unicode="&#x437;" horiz-adv-x="349" 
d="M15 378q0 28 5.5 54t28.5 49q13 14 29 22t32.5 12.5t32 5.5t27.5 1q26 0 60 -6.5t63 -34.5q19 -18 25.5 -37t6.5 -42v-35q0 -17 -2.5 -34t-13.5 -31q-8 -11 -22.5 -19t-31.5 -10q12 -3 26 -10t24 -16q17 -17 20.5 -35.5t3.5 -35.5v-47q0 -22 -5.5 -46.5t-17.5 -41.5
q-16 -23 -48 -37t-80 -14q-41 0 -73.5 11t-52.5 31q-13 13 -20.5 28t-11 29t-4.5 26t-1 20v39h128v-55q0 -14 2.5 -21t5.5 -10q5 -5 11 -6.5t10 -1.5q9 0 14.5 2.5t7.5 4.5t4.5 8.5t2.5 20.5v72q0 5 -1 12.5t-4 12.5q-5 7 -11.5 8.5t-11.5 1.5h-50v90h44q8 0 14 1.5t11 9.5
q3 5 4 12t1 14v43q0 22 -5 30q-2 2 -6.5 5.5t-14.5 3.5q-12 0 -20 -8q-4 -5 -6 -14.5t-2 -15.5v-33h-128v17z" />
    <glyph glyph-name="afii10074" unicode="&#x438;" horiz-adv-x="370" 
d="M212 0v163l3 57l-57 -101v-119h-128v512h128v-152l-3 -48l57 94v106h128v-512h-128z" />
    <glyph glyph-name="afii10075" unicode="&#x439;" horiz-adv-x="370" 
d="M212 0v163l3 57l-57 -101v-119h-128v512h128v-152l-3 -48l57 94v106h128v-512h-128zM331 700q-1 -25 -12 -52t-40 -49q-22 -17 -45 -23t-49 -6t-49 6t-45 23q-29 22 -40 49t-12 52h97q-1 -10 1 -21.5t7 -19.5t17 -15t25 -7q5 0 18 3t22 19q6 10 7.5 21.5t0.5 19.5h97z
" />
    <glyph glyph-name="afii10076" unicode="&#x43a;" horiz-adv-x="371" 
d="M228 0q-4 10 -8 23q-2 5 -3 14t-1 15v131q0 3 -0.5 13t-4.5 15q-5 8 -13 9.5t-16 1.5h-24v-222h-128v512h128v-200h27q10 0 16 4t8 10t2.5 12.5t0.5 12.5v124q0 5 1 12t3 11q2 5 6 8.5t8 5.5h128v-2q-8 -8 -11 -11.5t-4 -5.5q-2 -5 -2.5 -15t-0.5 -15v-115
q0 -11 -1 -21.5t-9 -21.5q-6 -8 -16 -15t-20 -11v-3q11 -4 22 -10.5t17 -14.5q11 -14 11 -26.5v-23.5v-140q0 -7 1 -16.5t4 -17.5q2 -7 7 -13t10 -11v-3h-138z" />
    <glyph glyph-name="afii10077" unicode="&#x43b;" horiz-adv-x="390" 
d="M232 0v422h-48q0 -26 -0.5 -63.5t-1.5 -76t-2.5 -72.5t-4.5 -54q-4 -29 -12.5 -57t-22.5 -48q-12 -18 -27.5 -28t-30.5 -15t-28.5 -6.5t-22.5 -1.5h-21v100h7q15 0 25.5 8.5t15.5 18.5q4 7 7 19.5t5 33.5t3 52t1 75v205h286v-512h-128z" />
    <glyph glyph-name="afii10078" unicode="&#x43c;" horiz-adv-x="540" 
d="M388 0v300h-4l-86 -300h-56l-86 300h-4v-300h-122v512h148l92 -312l92 312h148v-512h-122z" />
    <glyph glyph-name="afii10079" unicode="&#x43d;" horiz-adv-x="370" 
d="M212 0v234h-54v-234h-128v512h128v-188h54v188h128v-512h-128z" />
    <glyph glyph-name="afii10080" unicode="&#x43e;" horiz-adv-x="360" 
d="M153 122v-13t5 -14q7 -11 22 -11t22 11q5 7 5 14v13v268v13t-5 14q-7 11 -22 11t-22 -11q-5 -7 -5 -14v-13v-268zM335 137q0 -24 -5.5 -52.5t-28.5 -52.5q-15 -16 -44 -29t-77 -13t-77 13t-44 29q-23 24 -28.5 52.5t-5.5 52.5v238q0 24 5.5 52.5t28.5 52.5q15 16 44 29
t77 13t77 -13t44 -29q23 -24 28.5 -52.5t5.5 -52.5v-238z" />
    <glyph glyph-name="afii10081" unicode="&#x43f;" horiz-adv-x="368" 
d="M210 0v422h-52v-422h-128v512h308v-512h-128z" />
    <glyph glyph-name="afii10082" unicode="&#x440;" horiz-adv-x="365" 
d="M30 -150v662h128v-55q5 8 13 19t14 18q13 14 31 21t38 7q14 0 29 -6t29 -21q20 -20 24 -40.5t4 -41.5v-299q0 -23 -3 -48t-18 -45q-8 -10 -23.5 -20.5t-41.5 -10.5q-23 0 -39 7t-29 21q-10 10 -17 20.5t-11 17.5v-206h-128zM158 152q0 -12 0.5 -24t4.5 -26q2 -6 6 -16.5
t15 -10.5q5 0 11 0.5t11 11.5q4 8 5 17t1 22v253q0 5 -0.5 19.5t-2.5 20.5q-4 16 -20 16q-13 0 -22 -11q-6 -8 -7.5 -19t-1.5 -21v-232z" />
    <glyph glyph-name="afii10083" unicode="&#x441;" horiz-adv-x="351" 
d="M331 154q0 -43 -3.5 -65t-9.5 -34q-11 -22 -28 -35t-36.5 -19.5t-38.5 -8.5t-33 -2q-18 0 -37 2t-37 8.5t-34.5 19.5t-28.5 34q-15 26 -17.5 52t-2.5 54v207q0 26 3.5 51t21.5 50q12 17 27.5 27.5t32.5 16.5t34.5 8t33.5 2q54 0 84 -17t44 -37q17 -23 21 -54.5t4 -63.5
v-35h-124v61q0 18 -1.5 27t-4.5 14q-5 8 -10 9.5t-11 1.5t-11 -1.5t-10 -9.5q-3 -5 -4.5 -14t-1.5 -27v-234q0 -18 1 -28t5 -17q5 -8 10 -10.5t13 -2.5q16 0 23 12q3 5 4.5 15.5t1.5 30.5v54h120v-42z" />
    <glyph glyph-name="afii10084" unicode="&#x442;" horiz-adv-x="296" 
d="M84 0v422h-80v90h288v-90h-80v-422h-128z" />
    <glyph glyph-name="afii10085" unicode="&#x443;" horiz-adv-x="348" 
d="M19 -58h52q12 0 26 3.5t23 20.5q7 13 6 28t-4 27l-118 491h128l44 -270h4l36 270h128l-103 -538q-5 -26 -13.5 -46.5t-29.5 -40.5q-26 -26 -51 -30.5t-56 -4.5h-72v90z" />
    <glyph glyph-name="afii10086" unicode="&#x444;" horiz-adv-x="538" 
d="M205 -150v213q-8 -30 -29 -51.5t-54 -21.5q-28 0 -46.5 9.5t-29.5 23.5q-8 10 -14.5 26t-6.5 41v333q0 29 8.5 47.5t20.5 29.5q14 11 32 16.5t35 5.5q20 0 33 -6.5t26 -20.5q8 -8 14 -17.5t11 -20.5v205h128v-205q4 9 10 19.5t14 18.5q24 27 60 27q17 0 35.5 -5.5
t31.5 -16.5q12 -11 20.5 -29.5t8.5 -47.5v-333q0 -19 -5 -38t-16 -32q-12 -14 -32.5 -22t-43.5 -8q-33 0 -54 21.5t-29 51.5v-213h-128zM333 148q0 -9 0.5 -24.5t2.5 -23.5q2 -7 6 -16t18 -9q16 0 23 15q1 2 2.5 9.5t1.5 29.5v250q0 14 -0.5 24.5t-5.5 18.5q-7 13 -21 13
q-8 0 -11.5 -3t-6.5 -8q-5 -9 -7 -16.5t-2 -23.5v-236zM205 384q0 16 -2 23.5t-7 16.5q-3 5 -6.5 8t-11.5 3q-15 0 -21 -13q-5 -8 -5.5 -18.5t-0.5 -24.5v-250q0 -7 0.5 -20t3.5 -19q7 -15 23 -15q14 0 18 9t6 16q2 8 2.5 23.5t0.5 24.5v236z" />
    <glyph glyph-name="afii10087" unicode="&#x445;" horiz-adv-x="354" 
d="M214 512h128l-93 -236l101 -276h-128l-45 144l-45 -144h-128l100 276l-92 236h128l37 -117z" />
    <glyph glyph-name="afii10088" unicode="&#x446;" horiz-adv-x="382" 
d="M30 512h128v-422h54v422h128v-422h38v-200h-94v110h-254v512z" />
    <glyph glyph-name="afii10089" unicode="&#x447;" horiz-adv-x="360" 
d="M202 0v176h-96q-27 0 -44 8.5t-25 19.5q-12 15 -14.5 34t-2.5 33v241h128v-221q0 -17 11.5 -21t21.5 -4h21v246h128v-512h-128z" />
    <glyph glyph-name="afii10090" unicode="&#x448;" horiz-adv-x="548" 
d="M30 0v512h128v-422h52v422h128v-422h52v422h128v-512h-488z" />
    <glyph glyph-name="afii10091" unicode="&#x449;" horiz-adv-x="556" 
d="M30 0v511h126v-421h52v422h128v-422h52v422h126v-422h38v-200h-94v110h-428z" />
    <glyph glyph-name="afii10092" unicode="&#x44a;" horiz-adv-x="420" 
d="M89 422h-85v90h213v-163h71q17 0 42 -4.5t46 -24.5q23 -21 26 -47t3 -55v-109q0 -20 -2.5 -34t-7.5 -24t-12 -16.5t-15 -12.5q-27 -19 -48.5 -20.5t-42.5 -1.5h-188v422zM241 90q12 0 19 4t10 9q2 3 4.5 11t2.5 29v62q0 20 -1.5 28t-3.5 10q-5 10 -13 13t-16 3h-26v-169
h24z" />
    <glyph glyph-name="afii10093" unicode="&#x44b;" horiz-adv-x="534" 
d="M376 0v512h128v-512h-128zM30 512h128v-163h71q17 0 42 -4.5t46 -24.5q23 -21 26 -47t3 -55v-109q0 -20 -2.5 -34t-7.5 -24t-12 -16.5t-15 -12.5q-27 -19 -48.5 -20.5t-42.5 -1.5h-188v512zM182 90q12 0 19 4t10 9q2 3 4.5 11t2.5 29v62q0 20 -1.5 28t-3.5 10
q-5 10 -13 13t-16 3h-26v-169h24z" />
    <glyph glyph-name="afii10094" unicode="&#x44c;" horiz-adv-x="361" 
d="M30 512h128v-163h71q17 0 42 -4.5t46 -24.5q23 -21 26 -47t3 -55v-109q0 -20 -2.5 -34t-7.5 -24t-12 -16.5t-15 -12.5q-27 -19 -48.5 -20.5t-42.5 -1.5h-188v512zM182 90q12 0 19 4t10 9q2 3 4.5 11t2.5 29v59q0 5 -0.5 18.5t-4.5 21.5q-5 11 -13 14t-16 3h-26v-169h24z
" />
    <glyph glyph-name="afii10095" unicode="&#x44d;" horiz-adv-x="355" 
d="M330 131q0 -15 -1 -31t-6 -31.5t-15.5 -29.5t-28.5 -26q-5 -3 -30 -13t-74 -10q-4 0 -16 0.5t-27 3t-31.5 8t-29.5 14.5q-20 14 -35.5 39t-15.5 68v62h124v-59q0 -15 2 -21.5t3 -8.5q5 -9 12 -10.5t12 -1.5q6 0 12 1.5t11 9.5q2 4 4 11t2 21v108h-119v84h119v71
q0 13 -1.5 19t-3.5 8q-8 11 -24 11q-17 0 -24 -11q-4 -5 -4.5 -13t-0.5 -14v-23h-120v28q0 10 2 23.5t7.5 27t16 27t28.5 24.5q20 13 46 19t52 6q28 0 55 -6t47 -20q33 -22 42.5 -50t9.5 -63v-252z" />
    <glyph glyph-name="afii10096" unicode="&#x44e;" horiz-adv-x="540" 
d="M515 127q0 -23 -4.5 -47.5t-29.5 -49.5q-15 -14 -43 -27t-75 -13t-75 13t-43 27q-13 12 -20 24.5t-10 24.5t-3.5 24t-0.5 24v104h-65v-231h-116v500h116v-179h65v64q0 12 0.5 24t3.5 24t10 24.5t20 24.5q15 14 43 27t75 13t75 -13t43 -27q25 -25 29.5 -49.5t4.5 -47.5
v-258zM327 129q0 -19 5 -29q6 -11 15 -13.5t16 -2.5t16 2.5t15 13.5q5 10 5 29v254q0 19 -5 29q-6 11 -15 13.5t-16 2.5t-16 -2.5t-15 -13.5q-5 -10 -5 -29v-254z" />
    <glyph glyph-name="afii10097" unicode="&#x44f;" horiz-adv-x="366" 
d="M208 0v201h-17q-12 0 -18 -5t-8.5 -12t-3 -15t-0.5 -14v-99q0 -26 -7.5 -38.5t-14.5 -17.5h-131v2q2 3 8.5 12t9.5 15q5 11 6 24t1 27v85q0 16 2.5 30.5t16.5 30.5q16 17 39 25q-13 5 -26 12t-21 15q-16 16 -19 34t-3 33v60q0 31 12.5 51t27.5 31q22 17 45.5 21t40.5 4
h188v-512h-128zM208 422h-19q-5 0 -14 -1.5t-15 -6.5q-5 -5 -7.5 -14t-2.5 -18v-31q0 -8 1 -17.5t4 -17.5q4 -10 11.5 -17.5t18.5 -7.5h23v131z" />
    <glyph glyph-name="afii10071" unicode="&#x451;" horiz-adv-x="360" 
d="M202 580v120h112v-120h-112zM40 579v121h112v-121h-112zM335 117q0 -31 -10.5 -52t-21.5 -33q-26 -28 -58.5 -35t-64.5 -7q-31 0 -59.5 7t-54.5 33q-26 27 -33.5 58t-7.5 60v210q0 27 5 59.5t30 59.5q20 21 51.5 33t67.5 12q38 0 68.5 -12t50.5 -33q15 -15 22.5 -30
t10.5 -30t3.5 -30t0.5 -29v-130h-182v-114q0 -8 2.5 -13.5t4.5 -7.5q5 -7 11 -8t11 -1q8 0 13 1t10 8q5 6 5.5 12t0.5 12v43h124v-43zM207 391q0 11 -1.5 17t-3.5 9q-5 8 -11.5 9.5t-11.5 1.5q-10 0 -14.5 -4t-6.5 -7q-3 -5 -4 -14t-1 -13v-82h54v83z" />
    <glyph glyph-name="afii10099" unicode="&#x452;" horiz-adv-x="370" 
d="M141 -134q22 12 32 23.5t15 18.5q4 6 8.5 11.5t7.5 13.5t5 19t2 29l1 404q0 20 -1.5 28t-3.5 10q-4 7 -8.5 9t-9.5 2t-12 -3.5t-12 -14.5q-5 -9 -6 -18.5t-1 -20.5v-377h-128v569h-83v74h83v57h128v-57h116v-74h-116v-115q6 10 16 22.5t26 24.5q13 10 27 15.5t33 5.5
q20 0 34.5 -7t22.5 -16q17 -17 20 -42t3 -56v-401q0 -15 -5.5 -35t-10.5 -33q-6 -15 -16 -30.5t-36 -35.5h-131z" />
    <glyph glyph-name="afii10100" unicode="&#x453;" horiz-adv-x="279" 
d="M30 0v512h246v-90h-118v-422h-128zM72 593l148 148l68 -80l-181 -115z" />
    <glyph glyph-name="afii10101" unicode="&#x454;" horiz-adv-x="355" 
d="M25 383q0 35 9.5 63t42.5 50q20 14 47 20t55 6q26 0 52 -6t46 -19q18 -11 28.5 -24.5t16 -27t7.5 -27t2 -23.5v-28h-120v23q0 6 -0.5 14t-4.5 13q-7 11 -24 11q-16 0 -24 -11q-2 -2 -3.5 -8t-1.5 -19v-71h119v-84h-119v-108q0 -14 2 -21t4 -11q5 -8 11 -9.5t12 -1.5
q5 0 12 1.5t12 10.5q1 2 3 8.5t2 21.5v59h124v-62q0 -43 -15.5 -68t-35.5 -39q-14 -9 -30 -14.5t-31 -8t-27 -3t-16 -0.5q-49 0 -74 10t-30 13q-18 12 -28.5 26t-15.5 29.5t-6 31.5t-1 31v252z" />
    <glyph glyph-name="afii10102" unicode="&#x455;" 
d="M141 138l-2 -18q-1 -19 8 -30q9 -10 23 -10q5 0 12 1.5t12 9.5q2 4 3.5 11t1.5 11q0 22 -5 38.5t-11.5 27.5t-14 17.5t-11.5 9.5l-39 26q-12 8 -21.5 14.5t-22.5 18.5q-12 11 -21 23t-17 29q-10 20 -13 37t-3 40q0 14 2.5 30t10.5 31q6 12 15.5 22.5t19.5 17.5
q19 13 47.5 20t57.5 7q25 0 50 -5.5t50 -25.5q31 -24 37 -49.5t6 -48.5v-14h-114v18q0 5 -2 13.5t-4 12.5q-3 5 -9 8t-12 3q-5 0 -10.5 -2t-8.5 -5q-5 -5 -6.5 -13.5t-1.5 -13.5q0 -12 2 -21.5t10 -20.5q9 -11 21 -19.5t26 -18.5l51 -35q15 -11 29.5 -26t23.5 -33
q11 -23 12.5 -50t1.5 -49q0 -17 -5 -36.5t-19 -41.5q-11 -16 -24 -28t-31 -19q-15 -6 -38 -9t-39 -3q-20 0 -37.5 3.5t-31.5 8.5q-17 6 -28.5 13t-25.5 23q-2 3 -7.5 10t-10.5 17.5t-9 24.5t-4 31v17h126z" />
    <glyph glyph-name="afii10103" unicode="&#x456;" horiz-adv-x="188" 
d="M30 0v512h128v-512h-128zM30 572v128h128v-128h-128z" />
    <glyph glyph-name="afii10104" unicode="&#x457;" horiz-adv-x="268" 
d="M68 0v512h128v-512h-128zM161 580v120h97v-120h-97zM10 580v120h97v-120h-97z" />
    <glyph glyph-name="afii10105" unicode="&#x458;" horiz-adv-x="188" 
d="M-63 -58h61q11 0 21.5 7.5t10.5 29.5v533h128v-552q0 -20 -2.5 -41t-16.5 -38q-17 -21 -41 -25t-42 -4h-119v90zM30 572v128h128v-128h-128z" />
    <glyph glyph-name="afii10106" unicode="&#x459;" horiz-adv-x="562" 
d="M226 422h-48q0 -26 -0.5 -63.5t-1.5 -76t-2.5 -72.5t-4.5 -54q-4 -29 -12.5 -57t-22.5 -48q-12 -18 -27.5 -28t-30.5 -15t-28.5 -6.5t-22.5 -1.5h-21v100h7q15 0 25.5 8.5t15.5 18.5q4 7 7 19.5t5 33.5t3 52t1 75v205h286v-163h71q17 0 42 -4.5t46 -24.5q23 -21 26 -47
t3 -55v-109q0 -20 -2.5 -34t-7.5 -24t-12 -16.5t-15 -12.5q-27 -19 -48.5 -20.5t-42.5 -1.5h-188v422zM378 90q12 0 19 4t10 9q2 3 4.5 11t2.5 29v62q0 20 -1.5 28t-3.5 10q-5 10 -13 13t-16 3h-26v-169h24z" />
    <glyph glyph-name="afii10107" unicode="&#x45a;" horiz-adv-x="548" 
d="M212 234h-54v-234h-128v512h128v-188h54v188h128v-163h71q17 0 42 -4.5t46 -24.5q23 -21 26 -47t3 -55v-109q0 -20 -2.5 -34t-7.5 -24t-12 -16.5t-15 -12.5q-27 -19 -48.5 -20.5t-42.5 -1.5h-188v234zM364 90q12 0 19 4t10 9q2 3 4.5 11t2.5 29v62q0 20 -1.5 28t-3.5 10
q-5 10 -13 13t-16 3h-26v-169h24z" />
    <glyph glyph-name="afii10108" unicode="&#x45b;" horiz-adv-x="370" 
d="M212 0v385q0 20 -1.5 28t-3.5 10q-4 7 -8.5 9t-9.5 2t-12 -3.5t-12 -14.5q-5 -9 -6 -18.5t-1 -20.5v-377h-128v569h-83v74h83v57h128v-57h116v-74h-116v-115q6 10 16 22.5t26 24.5q13 10 27 15.5t33 5.5q20 0 34.5 -7t22.5 -16q17 -17 20 -42t3 -56v-401h-128z" />
    <glyph glyph-name="afii10109" unicode="&#x45c;" horiz-adv-x="371" 
d="M228 0q-4 10 -8 23q-2 5 -3 14t-1 15v131q0 3 -0.5 13t-4.5 15q-5 8 -13 9.5t-16 1.5h-24v-222h-128v512h128v-200h27q10 0 16 4t8 10t2.5 12.5t0.5 12.5v124q0 5 1 12t3 11q2 5 6 8.5t8 5.5h128v-2q-8 -8 -11 -11.5t-4 -5.5q-2 -5 -2.5 -15t-0.5 -15v-115
q0 -11 -1 -21.5t-9 -21.5q-6 -8 -16 -15t-20 -11v-3q11 -4 22 -10.5t17 -14.5q11 -14 11 -26.5v-23.5v-140q0 -7 1 -16.5t4 -17.5q2 -7 7 -13t10 -11v-3h-138zM102 592l148 148l68 -80l-181 -115z" />
    <glyph glyph-name="afii10110" unicode="&#x45e;" horiz-adv-x="348" 
d="M19 -58h52q12 0 26 3.5t23 20.5q7 13 6 28t-4 27l-118 491h128l44 -270h4l36 270h128l-103 -538q-5 -26 -13.5 -46.5t-29.5 -40.5q-26 -26 -51 -30.5t-56 -4.5h-72v90zM316 700q-1 -25 -12 -52t-40 -49q-22 -17 -45 -23t-49 -6t-49 6t-45 23q-29 22 -40 49t-12 52h97
q-1 -10 1 -21.5t7 -19.5t17 -15t25 -7q5 0 18 3t22 19q6 10 7.5 21.5t0.5 19.5h97z" />
    <glyph glyph-name="afii10193" unicode="&#x45f;" horiz-adv-x="364" 
d="M30 512h116v-422h72v422h116v-512h-98v-150h-108v150h-98v512z" />
    <glyph glyph-name="afii10146" unicode="&#x462;" horiz-adv-x="487" 
d="M252 624h128v-98h-128v-117h72q10 0 25.5 -0.5t32 -5.5t33 -16t30.5 -32t15.5 -38.5t1.5 -37.5v-156q0 -18 -3.5 -38t-17.5 -40q-11 -16 -33 -30.5t-51 -14.5h-243v526h-110v98h110v76h138v-76zM287 98q8 0 18 3.5t15 17.5q3 8 3.5 22.5t0.5 22.5v81q0 30 -8 45
q-3 5 -11.5 13t-25.5 8h-27v-213h35z" />
    <glyph glyph-name="afii10194" unicode="&#x463;" horiz-adv-x="425" 
d="M89 422h-85v90h85v188h128v-188h105v-90h-105v-73h71q17 0 42 -4.5t46 -24.5q23 -21 26 -47t3 -55v-109q0 -20 -2.5 -34t-7.5 -24t-12 -16.5t-15 -12.5q-27 -19 -48.5 -20.5t-42.5 -1.5h-188v422zM241 90q12 0 19 4t10 9q2 3 4.5 11t2.5 29v62q0 20 -1.5 28t-3.5 10
q-5 10 -13 13t-16 3h-26v-169h24z" />
    <glyph glyph-name="afii10147" unicode="&#x472;" horiz-adv-x="412" 
d="M380 154q0 -33 -7.5 -64t-38.5 -59q-29 -26 -64 -33.5t-64 -7.5q-51 0 -81 13t-47 28q-29 27 -37.5 59t-8.5 64v392q0 32 8.5 64t37.5 59q17 15 47 28t81 13q29 0 64 -7.5t64 -33.5q31 -28 38.5 -59t7.5 -64v-392zM170 321v-170q0 -6 1 -17t3 -18q5 -14 15 -17.5t17 -3.5
t17 3.5t15 17.5q2 7 3 18t1 17v170h-72zM242 419v130q0 7 -1 17.5t-3 17.5q-5 14 -14 17.5t-18 3.5t-18 -3.5t-14 -17.5q-2 -7 -3 -17.5t-1 -17.5v-130h72z" />
    <glyph glyph-name="afii10195" unicode="&#x473;" horiz-adv-x="360" 
d="M153 232v-110v-13t5 -14q7 -11 22 -11t22 11q5 7 5 14v13v110h-54zM207 312v78v13t-5 14q-7 11 -22 11t-22 -11q-5 -7 -5 -14v-13v-78h54zM335 137q0 -24 -5.5 -52.5t-28.5 -52.5q-15 -16 -44 -29t-77 -13t-77 13t-44 29q-23 24 -28.5 52.5t-5.5 52.5v238q0 24 5.5 52.5
t28.5 52.5q15 16 44 29t77 13t77 -13t44 -29q23 -24 28.5 -52.5t5.5 -52.5v-238z" />
    <glyph glyph-name="afii10148" unicode="&#x474;" horiz-adv-x="426" 
d="M111 0l-106 700h142l54 -484l43 388q1 15 9.5 37t36.5 39q5 3 27 11.5t64 8.5h40v-98h-14q-5 0 -11.5 -2.5t-11.5 -5.5q-3 -2 -9 -8.5t-8 -23.5l-72 -562h-184z" />
    <glyph glyph-name="afii10196" unicode="&#x475;" horiz-adv-x="365" 
d="M108 0l-103 512h128l37 -262l4 -46h3l3 46l26 174q5 34 20 49.5t26 21.5q20 12 42 14.5t46 2.5h20v-94h-10q-6 0 -14 -3t-12 -7q-6 -5 -9 -17l-5 -20l-55 -371h-147z" />
    <glyph glyph-name="afii10050" unicode="&#x490;" horiz-adv-x="350" 
d="M35 0v700h213v118h98v-216h-173v-602h-138z" />
    <glyph glyph-name="afii10098" unicode="&#x491;" horiz-adv-x="280" 
d="M30 0v512h147v102h99v-192h-118v-422h-128z" />
    <glyph glyph-name="uni0492" unicode="&#x492;" horiz-adv-x="381" 
d="M67 0v326h-77v98h77v276h311v-98h-173v-178h134v-98h-134v-326h-138z" />
    <glyph glyph-name="uni0493" unicode="&#x493;" horiz-adv-x="318" 
d="M42 0v191h-32v87h32v234h265v-90h-137v-144h138v-87h-138v-191h-128z" />
    <glyph glyph-name="uni0494" unicode="&#x494;" horiz-adv-x="432" 
d="M35 0v700h311v-98h-173v-192h52q5 0 18 -0.5t30.5 -3t36.5 -8.5t35 -16q20 -13 32.5 -31.5t19 -38.5t8.5 -40t2 -36v-79q0 -36 -7 -73.5t-38 -65.5q-24 -22 -49 -27.5t-45 -5.5q-22 0 -39 4t-32 10v91q11 -7 28 -7q6 0 13 2t14 8q6 5 11.5 16.5t5.5 31.5v88q0 10 -1.5 28
t-6.5 27q-8 18 -22 23t-26 5h-40v-312h-138z" />
    <glyph glyph-name="uni0495" unicode="&#x495;" horiz-adv-x="355" 
d="M30 0v512h265v-90h-137v-170q4 15 16 27q18 18 35 23.5t36 5.5q20 0 39.5 -6.5t33.5 -29.5q6 -10 11.5 -27.5t5.5 -46.5v-207q0 -11 -2.5 -28.5t-13.5 -46.5q-7 -17 -20.5 -34.5t-32.5 -31.5h-107q14 18 21.5 25.5t14.5 16.5q8 10 16 25.5t8 38.5v210q0 14 -1 23t-5 14
q-8 12 -24 12q-6 0 -12 -2.5t-10 -7.5t-6.5 -15.5t-2.5 -19.5v-170h-128z" />
    <glyph glyph-name="uni0496" unicode="&#x496;" horiz-adv-x="659" 
d="M244 0v319h-40q-8 0 -16 -2.5t-13 -12.5q-1 -2 -3 -10t-2 -28v-195q0 -8 -1 -20t-3 -19q-3 -16 -8 -32h-148v4q10 12 17 33q3 11 4 24.5t1 22.5v191v33t11 34q9 14 28 24t41 12v4q-24 2 -39 13.5t-22 22.5q-8 14 -9 30t-1 29v157q0 7 -0.5 21t-2.5 20t-7.5 13t-7.5 10v2
h134q10 -7 14 -18q2 -6 3 -14.5t1 -16.5v-180v-16.5t2.5 -17.5t8 -14t16.5 -6h42v283h139v-283h42q11 0 16.5 6t8 14t2.5 17.5v16.5v180q0 8 1 16.5t3 14.5q4 11 14 18h134v-3q-2 -2 -7 -8.5t-7 -11.5q-1 -2 -2.5 -11t-1.5 -32v-157q0 -13 -1 -29t-9 -30q-7 -11 -22 -22.5
t-39 -13.5v-4q22 -2 41 -12t28 -24q11 -16 11 -34v-33l-1 -177h55v-246h-117v148h-63q-5 16 -8 32q-2 7 -3 19t-1 20v195q0 20 -2 28t-3 10q-5 10 -13 12.5t-16 2.5h-40v-319h-139z" />
    <glyph glyph-name="uni0497" unicode="&#x497;" horiz-adv-x="585" 
d="M213 222h-24q-8 0 -16 -1.5t-13 -9.5q-4 -5 -4.5 -15t-0.5 -13v-131q0 -6 -1 -15t-3 -14q-4 -13 -8 -23h-138v3q5 5 10 11t7 13q3 8 4 17.5t1 16.5v140v23.5t11 26.5q6 8 17 14.5t22 10.5v3q-10 4 -20 11t-16 15q-8 11 -9 21.5t-1 21.5v115q0 5 -0.5 15t-2.5 15
q-1 2 -4 5.5t-11 11.5v2h128q4 -2 8 -5.5t6 -8.5q2 -4 3 -11t1 -12v-124q0 -6 0.5 -12.5t2.5 -12.5t7.5 -10t16.5 -4h27v200h129v-200h27q10 0 16 4t8 10t2.5 12.5t0.5 12.5v124q0 5 1 12t3 11q2 5 6 8.5t8 5.5h128v-2q-8 -8 -11 -11.5t-4 -5.5q-2 -5 -2.5 -15t-0.5 -15
v-115q0 -11 -1 -21.5t-9 -21.5q-6 -8 -16 -15t-20 -11v-3q11 -4 22 -10.5t17 -14.5q11 -14 11 -26.5v-23.5v-123h52v-188h-94v110h-74q-4 10 -8 23q-2 5 -3 14t-1 15v131q0 3 -0.5 13t-4.5 15q-5 8 -13 9.5t-16 1.5h-24v-222h-129v222z" />
    <glyph glyph-name="uni0498" unicode="&#x498;" horiz-adv-x="396" 
d="M371 158q0 -32 -5 -62t-26 -56q-17 -20 -42 -32.5t-54 -15.5v-122h-94v123q-28 4 -52.5 17.5t-40.5 33.5t-26.5 52.5t-10.5 63.5v60h138v-63q0 -16 1 -29.5t7 -24.5t13 -13t16 -2t17.5 2t14.5 14q5 9 5.5 20t0.5 25v92q0 15 -2 32t-12 28t-30 16.5t-39 5.5h-33v92h53
q11 0 24 3t22 16q5 8 7.5 19.5t2.5 23.5v83q0 8 -2 20t-4 17q-5 10 -13 12.5t-16 2.5q-6 0 -15 -2.5t-14 -12.5q-2 -5 -4 -17t-2 -20v-54h-134v59q0 26 9.5 57.5t41.5 55.5q23 17 58 24.5t64 7.5t64 -7.5t56 -24.5q17 -14 33 -42t16 -71v-89q0 -29 -9.5 -46.5t-18.5 -26.5
q-11 -11 -25.5 -18t-29.5 -11v-3q14 -3 30.5 -11t27.5 -21q17 -19 24.5 -50t7.5 -58v-73z" />
    <glyph glyph-name="uni0499" unicode="&#x499;" horiz-adv-x="349" 
d="M15 378q0 28 5.5 54t28.5 49q13 14 29 22t32.5 12.5t32 5.5t27.5 1q26 0 60 -6.5t63 -34.5q19 -18 25.5 -37t6.5 -42v-35q0 -17 -2.5 -34t-13.5 -31q-8 -11 -22.5 -19t-31.5 -10q12 -3 26 -10t24 -16q17 -17 20.5 -35.5t3.5 -35.5v-47q0 -22 -5.5 -46.5t-17.5 -41.5
q-13 -17 -33 -28.5t-40 -16.5v-146h-108v146q-20 4 -39.5 13t-33.5 23q-13 13 -20.5 28t-11 29.5t-4.5 26.5t-1 19v39h128v-55q0 -14 2.5 -21t5.5 -10q5 -5 11 -6.5t10 -1.5q9 0 14.5 2.5t7.5 4.5t4.5 8.5t2.5 20.5v72q0 5 -1 12.5t-4 12.5q-5 7 -11.5 8.5t-11.5 1.5h-50v90
h44q8 0 14 1.5t11 9.5q3 5 4 12t1 14v51q0 5 -1 11t-4 11q-2 3 -7 6t-15 3q-13 0 -19 -8q-4 -5 -6 -14.5t-2 -15.5v-33h-128v17z" />
    <glyph glyph-name="uni049A" unicode="&#x49a;" horiz-adv-x="445" 
d="M30 0v700h139v-283h42q11 0 16.5 6t8 14t2.5 17.5v16.5v180q0 8 1 16.5t3 14.5q4 11 14 18h134v-3q-2 -2 -7 -8.5t-7 -11.5q-1 -2 -2.5 -11t-1.5 -32v-157q0 -13 -1 -29t-9 -30q-7 -11 -22 -22.5t-39 -13.5v-4q22 -2 41 -12t28 -24q11 -16 11 -34v-33v-177h54v-246h-117
v148h-63q-5 16 -8 32q-2 7 -3 19t-1 20v195q0 20 -2 28t-3 10q-5 10 -13 12.5t-16 2.5h-40v-319h-139z" />
    <glyph glyph-name="uni049B" unicode="&#x49b;" horiz-adv-x="402" 
d="M229 0q-4 10 -8 23q-2 5 -3 14t-1 15v131q0 3 -0.5 13t-4.5 15q-5 8 -13 9.5t-16 1.5h-24v-222h-129v512h129v-200h27q10 0 16 4t8 10t2.5 12.5t0.5 12.5v124q0 5 1 12t3 11q2 5 6 8.5t8 5.5h128v-2q-8 -8 -11 -11.5t-4 -5.5q-2 -5 -2.5 -15t-0.5 -15v-115
q0 -11 -1 -21.5t-9 -21.5q-6 -8 -16 -15t-20 -11v-3q11 -4 22 -10.5t17 -14.5q11 -14 11 -26.5v-23.5v-123h52v-188h-94v110h-74z" />
    <glyph glyph-name="uni049C" unicode="&#x49c;" horiz-adv-x="555" 
d="M35 0v700h138v-283h50v214h99v-214h36q10 0 16 7t8 16t2.5 18t0.5 13v180q0 8 1 16.5t3 14.5q4 11 14 18h134v-4q-5 -4 -9 -9.5t-6 -11.5t-2.5 -19.5t-0.5 -21.5v-157q0 -13 -1 -29t-9 -30q-7 -11 -22 -22.5t-39 -13.5v-4q22 -2 41 -12t28 -24q11 -16 11 -34v-33v-191
q0 -9 1 -22.5t4 -24.5q7 -21 17 -33v-4h-148q-5 16 -8 32q-2 7 -3 19t-1 20v195q0 20 -2 28t-3 10q-5 10 -13 12.5t-16 2.5h-34v-208h-99v208h-50v-319h-138z" />
    <glyph glyph-name="uni049D" unicode="&#x49d;" horiz-adv-x="473" 
d="M30 0v512h116v-197h44v158h71v-161h26q10 0 16 4t8 10t2.5 12.5t0.5 12.5v124q0 5 1 12t3 11q2 5 6 8.5t8 5.5h128v-2q-8 -8 -11 -11.5t-4 -5.5q-2 -5 -2.5 -15t-0.5 -15v-115q0 -11 -1 -21.5t-9 -21.5q-6 -8 -16 -15t-20 -11v-3q11 -4 22 -10.5t17 -14.5
q11 -14 11 -26.5v-23.5v-140q0 -7 1 -16.5t4 -17.5q2 -7 7 -13t10 -11v-3h-138q-4 10 -8 23q-2 5 -3 14t-1 15v131q0 3 -0.5 13t-4.5 15q-5 8 -13 9.5t-16 1.5h-23v-152h-71v151h-44v-221h-116z" />
    <glyph glyph-name="uni04A0" unicode="&#x4a0;" horiz-adv-x="489" 
d="M336 0q-5 16 -8 32q-2 7 -3 19t-1 20v195q0 20 -2 28t-3 10q-5 10 -13 12.5t-16 2.5h-41v-319h-138v602h-106v98h244v-283h43q11 0 16.5 6t8 14t2.5 17.5v16.5v180q0 8 1 16.5t3 14.5q4 11 14 18h134v-4q-5 -4 -9 -9.5t-6 -11.5t-2.5 -19.5t-0.5 -21.5v-157q0 -13 -1 -29
t-9 -30q-7 -11 -22 -22.5t-39 -13.5v-4q22 -2 41 -12t28 -24q11 -16 11 -34v-33v-191q0 -9 1 -22.5t4 -24.5q7 -21 17 -33v-4h-148z" />
    <glyph glyph-name="uni04A1" unicode="&#x4a1;" horiz-adv-x="440" 
d="M297 0q-4 10 -8 23q-2 5 -3 14t-1 15v131q0 3 -0.5 13t-4.5 15q-5 8 -13 9.5t-16 1.5h-24v-222h-128v418h-94v94h222v-200h27q10 0 16 4t8 10t2.5 12.5t0.5 12.5v124q0 5 1 12t3 11q2 5 6 8.5t8 5.5h128v-2q-8 -8 -11 -11.5t-4 -5.5q-2 -5 -2.5 -15t-0.5 -15v-115
q0 -11 -1 -21.5t-9 -21.5q-6 -8 -16 -15t-20 -11v-3q11 -4 22 -10.5t17 -14.5q11 -14 11 -26.5v-23.5v-140q0 -7 1 -16.5t4 -17.5q2 -7 7 -13t10 -11v-3h-138z" />
    <glyph glyph-name="uni04A2" unicode="&#x4a2;" horiz-adv-x="426" 
d="M173 336v-336h-138v700h138v-269h72v269h138v-602h40v-228h-94v130h-84v336h-72z" />
    <glyph glyph-name="uni04A3" unicode="&#x4a3;" horiz-adv-x="400" 
d="M390 90v-240h-108v150h-70v234h-54v-234h-128v512h128v-188h54v188h128v-422h50z" />
    <glyph glyph-name="uni04A4" unicode="&#x4a4;" horiz-adv-x="560" 
d="M173 336v-336h-138v700h138v-269h72v269h311v-98h-173v-602h-138v336h-72z" />
    <glyph glyph-name="uni04A5" unicode="&#x4a5;" horiz-adv-x="462" 
d="M340 0h-128v234h-54v-234h-128v512h128v-188h54v188h246v-90h-118v-422z" />
    <glyph glyph-name="uni04AA" unicode="&#x4aa;" horiz-adv-x="405" 
d="M242 479v70q0 7 -1 17.5t-3 17.5q-5 14 -14 17.5t-18 3.5t-18 -3.5t-14 -17.5q-2 -7 -3 -17.5t-1 -17.5v-398q0 -6 1 -17t3 -18q5 -14 15 -17.5t17 -3.5t17 3.5t15 17.5q2 7 3 18t1 17v110h138v-107q0 -32 -7.5 -63.5t-38.5 -59.5q-22 -19 -45 -27t-33 -10v-124h-94v123
q-21 4 -44 13t-40 25q-29 27 -37.5 59.5t-8.5 63.5v392q0 32 8.5 64t37.5 59q17 15 47 28t81 13q29 0 64 -7.5t64 -33.5q31 -28 38.5 -59t7.5 -64v-67h-138z" />
    <glyph glyph-name="uni04AB" unicode="&#x4ab;" horiz-adv-x="351" 
d="M331 154q0 -43 -3.5 -65t-9.5 -34q-9 -20 -29 -36t-48 -22v-147h-108v144q-8 1 -19 4.5t-23 10t-24 18t-22 28.5q-16 27 -18 52.5t-2 52.5v207q0 26 3.5 51t21.5 50q12 17 27.5 27.5t32.5 16.5t34.5 8t33.5 2q54 0 84 -17t44 -37q17 -23 21 -54.5t4 -63.5v-35h-124v61
q0 18 -1.5 27t-4.5 14q-5 8 -10 9.5t-11 1.5t-11 -1.5t-10 -9.5q-3 -5 -4.5 -14t-1.5 -27v-234q0 -17 1 -28t6 -18q7 -12 22 -12t22 12q5 10 6 22t1 24v54h120v-42z" />
    <glyph glyph-name="uni04AE" unicode="&#x4ae;" horiz-adv-x="396" 
d="M129 0v308l-119 392h138l50 -218l5 28l45 190h138l-119 -392v-308h-138z" />
    <glyph glyph-name="uni04AF" unicode="&#x4af;" horiz-adv-x="352" 
d="M112 -188v308l-108 392h128l38 -200l6 -39l5 39l39 200h128l-108 -392v-308h-128z" />
    <glyph glyph-name="uni04B0" unicode="&#x4b0;" horiz-adv-x="386" 
d="M124 0v178h-109v98h109v32l-119 392h138l50 -218l5 28l45 190h138l-119 -392v-32h109v-98h-109v-178h-138z" />
    <glyph glyph-name="uni04B1" unicode="&#x4b1;" horiz-adv-x="352" 
d="M112 -188v189h-104v90h104v29l-108 392h128l38 -200l6 -39l5 39l39 200h128l-108 -392v-29h104v-90h-104v-189h-128z" />
    <glyph glyph-name="uni04B2" unicode="&#x4b2;" horiz-adv-x="434" 
d="M212 158l-7 41h-4l-7 -41l-44 -158h-145l128 377l-106 323h134l40 -145h4l40 145h134l-106 -322l94 -280h62v-228h-94v130h-79z" />
    <glyph glyph-name="uni04B3" unicode="&#x4b3;" horiz-adv-x="371" 
d="M214 512h128l-93 -236l68 -186h50v-240h-108v150h-37l-45 144l-45 -144h-128l100 276l-92 236h128l37 -117z" />
    <glyph glyph-name="uni04B6" unicode="&#x4b6;" horiz-adv-x="421" 
d="M235 304h-118q-14 0 -33.5 6.5t-37.5 29.5q-14 18 -17.5 37t-3.5 55v268h138v-253q0 -3 0.5 -13t2.5 -15q4 -12 11 -14.5t17 -2.5h41v298h138v-602h44v-228h-94v130h-88v304z" />
    <glyph glyph-name="uni04B7" unicode="&#x4b7;" horiz-adv-x="396" 
d="M381 90v-240h-108v150h-71v176h-96q-27 0 -44 8.5t-25 19.5q-12 15 -14.5 34t-2.5 33v241h128v-221q0 -17 11.5 -21t21.5 -4h21v246h128v-422h51z" />
    <glyph glyph-name="uni04B8" unicode="&#x4b8;" horiz-adv-x="531" 
d="M358 0v304h-50v-175h-92v175h-57q-47 0 -70.5 8.5t-41.5 31.5q-11 13 -17 26t-8 28t-2 33.5v42.5v226h138v-228q0 -8 0.5 -23.5t2.5 -21.5q5 -17 16.5 -21t21.5 -4h17v190h92v-190h50v298h138v-700h-138z" />
    <glyph glyph-name="uni04B9" unicode="&#x4b9;" horiz-adv-x="467" 
d="M309 0v176h-34v-100h-86v100h-83q-27 0 -44 8.5t-25 19.5q-12 15 -14.5 34t-2.5 33v241h128v-221q0 -17 11.5 -21t21.5 -4h8v147h86v-147h34v246h128v-512h-128z" />
    <glyph glyph-name="uni04BA" unicode="&#x4ba;" horiz-adv-x="419" 
d="M251 0v380q0 11 -1 20t-6 17q-6 9 -13.5 11t-13.5 2q-10 0 -20.5 -7.5t-16.5 -24.5q-4 -11 -5.5 -26.5t-1.5 -25.5v-346h-138v700h138v-233q8 9 15.5 16.5t15.5 13.5q18 14 36 21.5t42 7.5q35 0 55 -14t28 -26q10 -14 17 -37.5t7 -45.5v-403h-138z" />
    <glyph glyph-name="uni04BB" unicode="&#x4bb;" horiz-adv-x="370" 
d="M212 0v385q0 20 -1.5 28t-3.5 10q-4 7 -8.5 9t-9.5 2t-12 -3.5t-12 -14.5q-5 -9 -6 -18.5t-1 -20.5v-377h-128v700h128v-246q6 10 16 22.5t26 24.5q12 9 27 15t35 6q21 0 34.5 -7.5t20.5 -15.5q17 -17 20 -42t3 -56v-401h-128z" />
    <glyph glyph-name="uni04C0" unicode="&#x4c0;" horiz-adv-x="188" 
d="M30 0v700h128v-700h-128z" />
    <glyph glyph-name="uni04C3" unicode="&#x4c3;" horiz-adv-x="425" 
d="M35 700h138v-283h43q11 0 16.5 6t8 14t2.5 17.5v16.5v180q0 8 1 16.5t3 14.5q4 11 14 18h134v-4q-5 -4 -9 -9.5t-6 -11.5t-2.5 -19.5t-0.5 -21.5v-157q0 -13 -1 -29t-9 -30q-7 -11 -22 -22.5t-39 -13.5v-4q22 -2 41 -12t28 -24q11 -16 11 -34v-33l-1 -275q0 -26 -4 -41
t-11 -29q-11 -23 -24 -39.5t-44 -25.5q-20 -5 -50.5 -8t-62.5 2v85h17q11 0 19.5 4t14.5 18q3 8 5.5 25t2.5 27v248q0 20 -2 28t-3 10q-5 10 -13 12.5t-16 2.5h-41v-319h-138v700z" />
    <glyph glyph-name="uni04C4" unicode="&#x4c4;" horiz-adv-x="368" 
d="M30 0v512h128v-200h27q10 0 16 4t8 10t2.5 12.5t0.5 12.5v124q0 5 1 12t3 11q2 5 6 8.5t8 5.5h128v-2q-8 -8 -11 -11.5t-4 -5.5q-2 -5 -2.5 -15t-0.5 -15v-115q0 -11 -1 -21.5t-9 -21.5q-6 -8 -16 -15t-20 -11v-3q11 -4 22 -10.5t17 -14.5q11 -14 11 -26.5v-23.5v-201
q0 -18 -2 -47.5t-9 -52.5q-11 -35 -27.5 -50t-42.5 -23q-20 -6 -42 -8.5t-59 -2.5v90h17q3 0 9 2t12 9t11 21.5t5 40.5v204q0 3 -0.5 13t-4.5 15q-5 8 -13 9.5t-16 1.5h-24v-222h-128z" />
    <glyph glyph-name="uni04C7" unicode="&#x4c7;" horiz-adv-x="418" 
d="M173 336v-336h-138v700h138v-269h72v269h138l-1 -700q0 -3 -2.5 -24.5t-12.5 -45.5q-11 -27 -26 -42t-42 -23q-20 -5 -50.5 -8t-62.5 2v85h17q11 0 19.5 4t14.5 18q3 8 5.5 25t2.5 27v318h-72z" />
    <glyph glyph-name="uni04C8" unicode="&#x4c8;" horiz-adv-x="370" 
d="M158 -94h17q3 0 9 2t12 9t11 21.5t5 40.5v255h-54v-234h-128v512h128v-188h54v188h128v-512q0 -9 -1 -23t-2.5 -28.5t-3.5 -27.5t-4 -21q-11 -39 -30 -53t-40 -20q-20 -6 -42 -8.5t-59 -2.5v90z" />
    <glyph glyph-name="uni04D0" unicode="&#x4d0;" horiz-adv-x="384" 
d="M231 0l-8 89h-62l-8 -89h-143l67 700h232l65 -700h-143zM219 187l-24 406h-4l-26 -406h54zM332 857q-1 -25 -12 -52t-40 -49q-22 -17 -45 -23t-49 -6t-49 6t-45 23q-29 22 -40 49t-12 52h97q-1 -10 1 -21.5t7 -19.5t17 -15t25 -7q5 0 18 3t22 19q6 10 7.5 21.5t0.5 19.5
h97z" />
    <glyph glyph-name="uni04D1" unicode="&#x4d1;" horiz-adv-x="356" 
d="M223 0l-14 38q-5 -8 -13.5 -17.5t-17.5 -15.5q-14 -10 -29.5 -12.5t-28.5 -2.5q-20 0 -43 6.5t-40 30.5q-15 20 -18.5 44.5t-3.5 42.5v24q0 26 10 60t48 64q13 10 42 25t88 35v69q0 4 -0.5 13t-3.5 15q-4 8 -10.5 10.5t-12.5 2.5t-12.5 -2.5t-10.5 -10.5q-3 -6 -3.5 -15
t-0.5 -13v-46h-124v50q0 20 4 42t24 44q26 27 59 34t64 7q29 0 62.5 -6.5t60.5 -34.5q20 -21 26 -43.5t6 -48.5v-389h-108zM203 248q-14 -5 -27.5 -15.5t-21.5 -24.5q-8 -13 -9.5 -27.5t-1.5 -27.5v-30q0 -18 1.5 -25.5t3.5 -11.5q4 -7 10.5 -11.5t14.5 -4.5q6 0 13 3t12 12
q2 3 3.5 11.5t1.5 30.5v121zM318 700q-1 -25 -12 -52t-40 -49q-22 -17 -45 -23t-49 -6t-49 6t-45 23q-29 22 -40 49t-12 52h97q-1 -10 1 -21.5t7 -19.5t17 -15t25 -7q5 0 18 3t22 19q6 10 7.5 21.5t0.5 19.5h97z" />
    <glyph glyph-name="uni04D2" unicode="&#x4d2;" horiz-adv-x="384" 
d="M231 0l-8 89h-62l-8 -89h-143l67 700h232l65 -700h-143zM219 187l-24 406h-4l-26 -406h54zM60 860h107v-115h-107v115zM230 860h107v-115h-107v115z" />
    <glyph glyph-name="uni04D3" unicode="&#x4d3;" horiz-adv-x="356" 
d="M223 0l-14 38q-5 -8 -13.5 -17.5t-17.5 -15.5q-14 -10 -29.5 -12.5t-28.5 -2.5q-20 0 -43 6.5t-40 30.5q-15 20 -18.5 44.5t-3.5 42.5v24q0 26 10 60t48 64q13 10 42 25t88 35v69q0 4 -0.5 13t-3.5 15q-4 8 -10.5 10.5t-12.5 2.5t-12.5 -2.5t-10.5 -10.5q-3 -6 -3.5 -15
t-0.5 -13v-46h-124v50q0 20 4 42t24 44q26 27 59 34t64 7q29 0 62.5 -6.5t60.5 -34.5q20 -21 26 -43.5t6 -48.5v-389h-108zM203 248q-14 -5 -27.5 -15.5t-21.5 -24.5q-8 -13 -9.5 -27.5t-1.5 -27.5v-30q0 -18 1.5 -25.5t3.5 -11.5q4 -7 10.5 -11.5t14.5 -4.5q6 0 13 3t12 12
q2 3 3.5 11.5t1.5 30.5v121zM202 590v120h107v-120h-107zM35 590v120h107v-120h-107z" />
    <glyph glyph-name="uni04D4" unicode="&#x4d4;" horiz-adv-x="596" 
d="M262 0v89h-80l-14 -89h-138l114 700h431v-98h-175v-168h132v-98h-132v-238h191v-98h-329zM262 187v406h-4l-60 -406h64z" />
    <glyph glyph-name="uni04D5" unicode="&#x4d5;" horiz-adv-x="548" 
d="M518 117q0 -5 -0.5 -14t-3.5 -21t-9 -25t-16 -25q-25 -29 -56.5 -35.5t-59.5 -6.5q-25 0 -42 2.5t-29 7t-20.5 10.5t-17.5 12l-14 10l-20 -13q-11 -8 -21.5 -12t-15.5 -6q-28 -11 -58 -11q-34 0 -53 11.5t-30 25.5q-15 20 -18.5 44.5t-3.5 42.5v24q0 26 10 60t48 64
q13 10 42 25t88 35v69q0 4 -0.5 13t-3.5 15q-4 8 -10.5 10.5t-12.5 2.5t-12.5 -2.5t-10.5 -10.5q-3 -6 -3.5 -15t-0.5 -13v-46h-124v50q0 20 4 42t24 44q26 27 59 34t64 7q29 0 49 -3.5t43 -14.5q20 10 41 14t45 4q28 0 57 -8t49 -25q15 -12 23.5 -27t13 -30t5.5 -29.5
t1 -25.5v-143h-172v-106q0 -8 0.5 -16.5t5.5 -15.5q8 -12 24 -12q11 0 17 3.5t8 7.5q3 5 4 14.5t1 14.5v57h112v-64zM218 248q-14 -5 -27.5 -15.5t-21.5 -24.5q-8 -13 -9.5 -27.5t-1.5 -27.5v-30q0 -18 1.5 -25.5t3.5 -11.5q4 -7 10.5 -11.5t14.5 -4.5q6 0 13 3t12 12
q2 3 3.5 11.5t1.5 30.5v121zM398 391q0 5 -0.5 13.5t-4.5 13.5q-4 7 -10 8.5t-11 1.5q-9 0 -14 -3.5t-7 -6.5q-4 -5 -4.5 -14t-0.5 -14v-76h52v77z" />
    <glyph glyph-name="uni04D6" unicode="&#x4d6;" horiz-adv-x="369" 
d="M35 700h313v-98h-175v-168h132v-98h-132v-238h191v-98h-329v700zM335 859q-1 -25 -12 -52t-40 -49q-22 -17 -45 -23t-49 -6t-49 6t-45 23q-29 22 -40 49t-12 52h97q-1 -10 1 -21.5t7 -19.5t17 -15t25 -7q5 0 18 3t22 19q6 10 7.5 21.5t0.5 19.5h97z" />
    <glyph glyph-name="uni04D7" unicode="&#x4d7;" horiz-adv-x="360" 
d="M335 117q0 -31 -10.5 -52t-21.5 -33q-26 -28 -58.5 -35t-64.5 -7q-31 0 -59.5 7t-54.5 33q-26 27 -33.5 58t-7.5 60v210q0 27 5 59.5t30 59.5q20 21 51.5 33t67.5 12q38 0 68.5 -12t50.5 -33q15 -15 22.5 -30t10.5 -30t3.5 -30t0.5 -29v-130h-182v-114q0 -8 2.5 -13.5
t4.5 -7.5q5 -7 11 -8t11 -1q8 0 13 1t10 8q5 6 5.5 12t0.5 12v43h124v-43zM207 391q0 11 -1.5 17t-3.5 9q-5 8 -11.5 9.5t-11.5 1.5q-3 0 -9.5 -1.5t-11.5 -9.5q-2 -4 -3.5 -10t-1.5 -17v-82h54v83zM320 700q-1 -25 -12 -52t-40 -49q-22 -17 -45 -23t-49 -6t-49 6t-45 23
q-29 22 -40 49t-12 52h97q-1 -10 1 -21.5t7 -19.5t17 -15t25 -7q5 0 18 3t22 19q6 10 7.5 21.5t0.5 19.5h97z" />
    <glyph glyph-name="uni04D8" unicode="&#x4d8;" horiz-adv-x="412" 
d="M242 369v180q0 7 -1 17.5t-3 17.5q-5 14 -14 17.5t-18 3.5t-18 -3.5t-14 -17.5q-2 -7 -3 -17.5t-1 -17.5v-83h-138v80q0 16 1.5 32.5t6 32t13.5 30t25 28.5q29 26 64 33.5t64 7.5q51 0 81 -13t47 -28q29 -27 37.5 -59t8.5 -64v-392q0 -32 -8.5 -64t-37.5 -59
q-17 -15 -47 -28t-81 -13q-29 0 -64 7.5t-64 33.5q-16 14 -25 28.5t-13.5 30t-6 31.5t-1.5 33v215h210zM170 151q0 -6 1 -17t3 -18q5 -14 15 -17.5t17 -3.5t17 3.5t15 17.5q2 7 3 18t1 17v120h-72v-120z" />
    <glyph glyph-name="afii10846" unicode="&#x4d9;" horiz-adv-x="350" 
d="M25 395q0 4 0.5 13.5t3.5 21.5t9 25t16 25q25 29 56.5 35.5t59.5 6.5q12 0 27 -1t31 -4.5t31.5 -11.5t28.5 -21t20 -28.5t11 -30.5t5 -29.5t1 -25.5v-241q0 -45 -14 -69t-28 -36q-23 -20 -52 -27t-57 -7t-57 8t-49 25q-15 12 -23.5 27t-13 30t-5.5 29.5t-1 25.5v143h172
v106q0 8 -0.5 16.5t-5.5 15.5q-8 12 -24 12q-5 0 -12.5 -1.5t-12.5 -9.5t-5 -29v-57h-112v64zM145 121q0 -5 0.5 -13.5t4.5 -13.5q4 -7 10 -8.5t11 -1.5q9 0 14 3.5t7 6.5q4 5 4.5 14t0.5 14v76h-52v-77z" />
    <glyph glyph-name="uni04DA" unicode="&#x4da;" horiz-adv-x="412" 
d="M242 369v180q0 7 -1 17.5t-3 17.5q-5 14 -14 17.5t-18 3.5t-18 -3.5t-14 -17.5q-2 -7 -3 -17.5t-1 -17.5v-83h-138v80q0 16 1.5 32.5t6 32t13.5 30t25 28.5q29 26 64 33.5t64 7.5q51 0 81 -13t47 -28q29 -27 37.5 -59t8.5 -64v-392q0 -32 -8.5 -64t-37.5 -59
q-17 -15 -47 -28t-81 -13q-29 0 -64 7.5t-64 33.5q-16 14 -25 28.5t-13.5 30t-6 31.5t-1.5 33v215h210zM170 151q0 -6 1 -17t3 -18q5 -14 15 -17.5t17 -3.5t17 3.5t15 17.5q2 7 3 18t1 17v120h-72v-120zM65 859h107v-115h-107v115zM235 859h107v-115h-107v115z" />
    <glyph glyph-name="uni04DB" unicode="&#x4db;" horiz-adv-x="350" 
d="M25 395q0 4 0.5 13.5t3.5 21.5t9 25t16 25q25 29 56.5 35.5t59.5 6.5q12 0 27 -1t31 -4.5t31.5 -11.5t28.5 -21t20 -28.5t11 -30.5t5 -29.5t1 -25.5v-241q0 -45 -14 -69t-28 -36q-23 -20 -52 -27t-57 -7t-57 8t-49 25q-15 12 -23.5 27t-13 30t-5.5 29.5t-1 25.5v143h172
v106q0 8 -0.5 16.5t-5.5 15.5q-8 12 -24 12q-5 0 -12.5 -1.5t-12.5 -9.5t-5 -29v-57h-112v64zM145 121q0 -5 0.5 -13.5t4.5 -13.5q4 -7 10 -8.5t11 -1.5q9 0 14 3.5t7 6.5q4 5 4.5 14t0.5 14v76h-52v-77zM199 577v120h107v-120h-107zM32 577v120h107v-120h-107z" />
    <glyph glyph-name="uni04DC" unicode="&#x4dc;" horiz-adv-x="627" 
d="M244 0v319h-40q-8 0 -16 -2.5t-13 -12.5q-1 -2 -3 -10t-2 -28v-195q0 -8 -1 -20t-3 -19q-3 -16 -8 -32h-148v4q10 12 17 33q3 11 4 24.5t1 22.5v191v33t11 34q9 14 28 24t41 12v4q-24 2 -39 13.5t-22 22.5q-8 14 -9 30t-1 29v157q0 7 -0.5 21t-2.5 20t-7.5 13t-7.5 10v2
h134q10 -7 14 -18q2 -6 3 -14.5t1 -16.5v-180v-16.5t2.5 -17.5t8 -14t16.5 -6h42v283h139v-283h42q11 0 16.5 6t8 14t2.5 17.5v16.5v180q0 8 1 16.5t3 14.5q4 11 14 18h134v-3q-2 -2 -7 -8.5t-7 -11.5q-1 -2 -2.5 -11t-1.5 -32v-157q0 -13 -1 -29t-9 -30q-7 -11 -22 -22.5
t-39 -13.5v-4q22 -2 41 -12t28 -24q11 -16 11 -34v-33v-191q0 -9 1 -22.5t4 -24.5q7 -21 17 -33v-4h-148q-5 16 -8 32q-2 7 -3 19t-1 20v195q0 20 -2 28t-3 10q-5 10 -13 12.5t-16 2.5h-40v-319h-139zM173 860h107v-115h-107v115zM343 860h107v-115h-107v115z" />
    <glyph glyph-name="uni04DD" unicode="&#x4dd;" horiz-adv-x="555" 
d="M412 0q-4 10 -8 23q-2 5 -3 14t-1 15v131q0 3 -0.5 13t-4.5 15q-5 8 -13 9.5t-16 1.5h-24v-222h-129v222h-24q-8 0 -16 -1.5t-13 -9.5q-4 -5 -4.5 -15t-0.5 -13v-131q0 -6 -1 -15t-3 -14q-4 -13 -8 -23h-138v3q5 5 10 11t7 13q3 8 4 17.5t1 16.5v140v23.5t11 26.5
q6 8 17 14.5t22 10.5v3q-10 4 -20 11t-16 15q-8 11 -9 21.5t-1 21.5v115q0 5 -0.5 15t-2.5 15q-1 2 -4 5.5t-11 11.5v2h128q4 -2 8 -5.5t6 -8.5q2 -4 3 -11t1 -12v-124q0 -6 0.5 -12.5t2.5 -12.5t7.5 -10t16.5 -4h27v200h129v-200h27q10 0 16 4t8 10t2.5 12.5t0.5 12.5v124
q0 5 1 12t3 11q2 5 6 8.5t8 5.5h128v-2q-8 -8 -11 -11.5t-4 -5.5q-2 -5 -2.5 -15t-0.5 -15v-115q0 -11 -1 -21.5t-9 -21.5q-6 -8 -16 -15t-20 -11v-3q11 -4 22 -10.5t17 -14.5q11 -14 11 -26.5v-23.5v-140q0 -7 1 -16.5t4 -17.5q2 -7 7 -13t10 -11v-3h-138zM308 581v120h107
v-120h-107zM141 581v120h107v-120h-107z" />
    <glyph glyph-name="uni04DE" unicode="&#x4de;" horiz-adv-x="396" 
d="M371 158q0 -24 -4 -56.5t-27 -61.5q-14 -17 -32 -27t-37 -15t-38.5 -6.5t-37.5 -1.5q-35 0 -71.5 9t-66.5 45q-26 31 -31.5 63.5t-5.5 52.5v60h138v-63q0 -41 8 -54q9 -15 29 -15q22 0 32 16q4 8 5 18t1 27v92q0 15 -2 32t-12 28t-30 16.5t-39 5.5h-33v92h53q11 0 24 3
t22 16q5 8 7.5 19.5t2.5 23.5v83q0 8 -2 20t-5 17q-4 6 -11 10.5t-17 4.5q-11 0 -17.5 -4.5t-10.5 -11.5q-2 -3 -4.5 -12.5t-2.5 -30.5v-47h-134v59q0 26 9.5 57.5t41.5 55.5q23 17 58 24.5t64 7.5q32 0 64.5 -8t53.5 -24q32 -24 41.5 -57t9.5 -61v-84q0 -29 -9.5 -46.5
t-18.5 -26.5q-11 -11 -25.5 -18t-29.5 -11v-3q26 -6 41 -18t17 -14q14 -14 23 -40t9 -68v-73zM48 857h107v-115h-107v115zM218 857h107v-115h-107v115z" />
    <glyph glyph-name="uni04DF" unicode="&#x4df;" horiz-adv-x="349" 
d="M15 378q0 28 5.5 54t28.5 49q13 14 29 22t32.5 12.5t32 5.5t27.5 1q26 0 60 -6.5t63 -34.5q19 -18 25.5 -37t6.5 -42v-35q0 -17 -2.5 -34t-13.5 -31q-8 -11 -22.5 -19t-31.5 -10q12 -3 26 -10t24 -16q17 -17 20.5 -35.5t3.5 -35.5v-47q0 -22 -5.5 -46.5t-17.5 -41.5
q-16 -23 -48 -37t-80 -14q-41 0 -73.5 11t-52.5 31q-13 13 -20.5 28t-11 29t-4.5 26t-1 20v39h128v-55q0 -14 2.5 -21t5.5 -10q5 -5 11 -6.5t10 -1.5q9 0 14.5 2.5t7.5 4.5t4.5 8.5t2.5 20.5v72q0 5 -1 12.5t-4 12.5q-5 7 -11.5 8.5t-11.5 1.5h-50v90h44q8 0 14 1.5t11 9.5
q3 5 4 12t1 14v43q0 22 -5 30q-2 2 -6.5 5.5t-14.5 3.5q-12 0 -20 -8q-4 -5 -6 -14.5t-2 -15.5v-33h-128v17zM200 580v120h107v-120h-107zM33 580v120h107v-120h-107z" />
    <glyph glyph-name="uni04E2" unicode="&#x4e2;" horiz-adv-x="418" 
d="M245 0v328l4 51l-76 -272v-107h-138v700h138v-322l-4 -57l76 270v109h138v-700h-138zM82 837h256v-78h-256v78z" />
    <glyph glyph-name="uni04E3" unicode="&#x4e3;" horiz-adv-x="370" 
d="M212 0v163l3 57l-57 -101v-119h-128v512h128v-152l-3 -48l57 94v106h128v-512h-128zM54 680h256v-78h-256v78z" />
    <glyph glyph-name="uni04E4" unicode="&#x4e4;" horiz-adv-x="418" 
d="M245 0v328l4 51l-76 -272v-107h-138v700h138v-322l-4 -57l76 270v109h138v-700h-138zM71 861h107v-115h-107v115zM241 861h107v-115h-107v115z" />
    <glyph glyph-name="uni04E5" unicode="&#x4e5;" horiz-adv-x="370" 
d="M212 0v163l3 57l-57 -101v-119h-128v512h128v-152l-3 -48l57 94v106h128v-512h-128zM215 575v120h107v-120h-107zM48 575v120h107v-120h-107z" />
    <glyph glyph-name="uni04E6" unicode="&#x4e6;" horiz-adv-x="412" 
d="M380 154q0 -33 -7.5 -64t-38.5 -59q-29 -26 -64 -33.5t-64 -7.5q-51 0 -81 13t-47 28q-29 27 -37.5 59t-8.5 64v392q0 32 8.5 64t37.5 59q17 15 47 28t81 13q29 0 64 -7.5t64 -33.5q31 -28 38.5 -59t7.5 -64v-392zM242 549q0 7 -1 17.5t-3 17.5q-5 14 -14 17.5t-18 3.5
t-18 -3.5t-14 -17.5q-2 -7 -3 -17.5t-1 -17.5v-398q0 -6 1 -17t3 -18q5 -14 15 -17.5t17 -3.5t17 3.5t15 17.5q2 7 3 18t1 17v398zM69 860h107v-115h-107v115zM239 860h107v-115h-107v115z" />
    <glyph glyph-name="uni04E7" unicode="&#x4e7;" horiz-adv-x="360" 
d="M153 122v-13t5 -14q7 -11 22 -11t22 11q5 7 5 14v13v268v13t-5 14q-7 11 -22 11t-22 -11q-5 -7 -5 -14v-13v-268zM335 137q0 -24 -5.5 -52.5t-28.5 -52.5q-15 -16 -44 -29t-77 -13t-77 13t-44 29q-23 24 -28.5 52.5t-5.5 52.5v238q0 24 5.5 52.5t28.5 52.5q15 16 44 29
t77 13t77 -13t44 -29q23 -24 28.5 -52.5t5.5 -52.5v-238zM208 580v120h107v-120h-107zM41 580v120h107v-120h-107z" />
    <glyph glyph-name="uni04E8" unicode="&#x4e8;" horiz-adv-x="412" 
d="M380 154q0 -33 -7.5 -64t-38.5 -59q-29 -26 -64 -33.5t-64 -7.5q-51 0 -81 13t-47 28q-29 27 -37.5 59t-8.5 64v392q0 32 8.5 64t37.5 59q17 15 47 28t81 13q29 0 64 -7.5t64 -33.5q31 -28 38.5 -59t7.5 -64v-392zM170 321v-170q0 -6 1 -17t3 -18q5 -14 15 -17.5t17 -3.5
t17 3.5t15 17.5q2 7 3 18t1 17v170h-72zM242 419v130q0 7 -1 17.5t-3 17.5q-5 14 -14 17.5t-18 3.5t-18 -3.5t-14 -17.5q-2 -7 -3 -17.5t-1 -17.5v-130h72z" />
    <glyph glyph-name="uni04E9" unicode="&#x4e9;" horiz-adv-x="360" 
d="M153 232v-110v-13t5 -14q7 -11 22 -11t22 11q5 7 5 14v13v110h-54zM207 312v78v13t-5 14q-7 11 -22 11t-22 -11q-5 -7 -5 -14v-13v-78h54zM335 137q0 -24 -5.5 -52.5t-28.5 -52.5q-15 -16 -44 -29t-77 -13t-77 13t-44 29q-23 24 -28.5 52.5t-5.5 52.5v238q0 24 5.5 52.5
t28.5 52.5q15 16 44 29t77 13t77 -13t44 -29q23 -24 28.5 -52.5t5.5 -52.5v-238z" />
    <glyph glyph-name="uni04EA" unicode="&#x4ea;" horiz-adv-x="412" 
d="M380 154q0 -33 -7.5 -64t-38.5 -59q-29 -26 -64 -33.5t-64 -7.5q-51 0 -81 13t-47 28q-29 27 -37.5 59t-8.5 64v392q0 32 8.5 64t37.5 59q17 15 47 28t81 13q29 0 64 -7.5t64 -33.5q31 -28 38.5 -59t7.5 -64v-392zM170 321v-170q0 -6 1 -17t3 -18q5 -14 15 -17.5t17 -3.5
t17 3.5t15 17.5q2 7 3 18t1 17v170h-72zM242 419v130q0 7 -1 17.5t-3 17.5q-5 14 -14 17.5t-18 3.5t-18 -3.5t-14 -17.5q-2 -7 -3 -17.5t-1 -17.5v-130h72zM73 860h107v-115h-107v115zM243 860h107v-115h-107v115z" />
    <glyph glyph-name="uni04EB" unicode="&#x4eb;" horiz-adv-x="360" 
d="M153 232v-110v-13t5 -14q7 -11 22 -11t22 11q5 7 5 14v13v110h-54zM207 312v78v13t-5 14q-7 11 -22 11t-22 -11q-5 -7 -5 -14v-13v-78h54zM335 137q0 -24 -5.5 -52.5t-28.5 -52.5q-15 -16 -44 -29t-77 -13t-77 13t-44 29q-23 24 -28.5 52.5t-5.5 52.5v238q0 24 5.5 52.5
t28.5 52.5q15 16 44 29t77 13t77 -13t44 -29q23 -24 28.5 -52.5t5.5 -52.5v-238zM209 578v120h107v-120h-107zM42 578v120h107v-120h-107z" />
    <glyph glyph-name="uni04EE" unicode="&#x4ee;" horiz-adv-x="395" 
d="M29 98h23q14 0 28.5 3t24.5 11t17.5 22.5t10.5 29.5l13 67l-141 469h133l65 -224l55 224h132l-139 -569q-8 -33 -16.5 -60.5t-38.5 -48.5q-24 -17 -49.5 -19.5t-55.5 -2.5h-62v98zM70 837h256v-78h-256v78z" />
    <glyph glyph-name="uni04EF" unicode="&#x4ef;" horiz-adv-x="348" 
d="M19 -58h52q12 0 26 3.5t23 20.5q7 13 6 28t-4 27l-118 491h128l44 -270h4l36 270h128l-103 -538q-5 -26 -13.5 -46.5t-29.5 -40.5q-26 -26 -51 -30.5t-56 -4.5h-72v90zM41 677h256v-78h-256v78z" />
    <glyph glyph-name="uni04F0" unicode="&#x4f0;" horiz-adv-x="395" 
d="M29 98h23q14 0 28.5 3t24.5 11t17.5 22.5t10.5 29.5l13 67l-141 469h133l65 -224l55 224h132l-139 -569q-8 -33 -16.5 -60.5t-38.5 -48.5q-24 -17 -49.5 -19.5t-55.5 -2.5h-62v98zM60 860h107v-115h-107v115zM230 860h107v-115h-107v115z" />
    <glyph glyph-name="uni04F1" unicode="&#x4f1;" horiz-adv-x="348" 
d="M19 -58h52q12 0 26 3.5t23 20.5q7 13 6 28t-4 27l-118 491h128l44 -270h4l36 270h128l-103 -538q-5 -26 -13.5 -46.5t-29.5 -40.5q-26 -26 -51 -30.5t-56 -4.5h-72v90zM202 579v120h107v-120h-107zM35 579v120h107v-120h-107z" />
    <glyph glyph-name="uni04F2" unicode="&#x4f2;" horiz-adv-x="395" 
d="M29 98h23q14 0 28.5 3t24.5 11t17.5 22.5t10.5 29.5l13 67l-141 469h133l65 -224l55 224h132l-139 -569q-8 -33 -16.5 -60.5t-38.5 -48.5q-24 -17 -49.5 -19.5t-55.5 -2.5h-62v98zM77 761l91 114l60 -55l-110 -95zM232 761l91 114l60 -55l-110 -95z" />
    <glyph glyph-name="uni04F3" unicode="&#x4f3;" horiz-adv-x="348" 
d="M19 -58h52q12 0 26 3.5t23 20.5q7 13 6 28t-4 27l-118 491h128l44 -270h4l36 270h128l-103 -538q-5 -26 -13.5 -46.5t-29.5 -40.5q-26 -26 -51 -30.5t-56 -4.5h-72v90zM57 586l91 114l60 -55l-110 -95zM212 586l91 114l60 -55l-110 -95z" />
    <glyph glyph-name="uni04F4" unicode="&#x4f4;" horiz-adv-x="408" 
d="M235 0v304h-118q-14 0 -33.5 6.5t-37.5 29.5q-14 18 -17.5 37t-3.5 55v268h138v-253q0 -3 0.5 -13t2.5 -15q4 -12 11 -14.5t17 -2.5h41v298h138v-700h-138zM64 855h107v-115h-107v115zM234 855h107v-115h-107v115z" />
    <glyph glyph-name="uni04F5" unicode="&#x4f5;" horiz-adv-x="360" 
d="M202 0v176h-96q-27 0 -44 8.5t-25 19.5q-12 15 -14.5 34t-2.5 33v241h128v-221q0 -17 11.5 -21t21.5 -4h21v246h128v-512h-128zM205 580v120h107v-120h-107zM38 580v120h107v-120h-107z" />
    <glyph glyph-name="uni04F8" unicode="&#x4f8;" horiz-adv-x="597" 
d="M173 409h72q10 0 25 -0.5t32 -5.5t33.5 -16t30.5 -32q12 -19 14.5 -39.5t2.5 -41.5v-146q0 -21 -3.5 -42t-17.5 -41q-11 -16 -33 -30.5t-51 -14.5h-243v700h138v-291zM208 98q8 0 18 3.5t15 17.5q3 8 3.5 22.5t0.5 22.5v81q0 30 -8 45q-3 5 -11.5 13t-25.5 8h-27v-213h35
zM424 700h138v-700h-138v700zM158 860h107v-115h-107v115zM328 860h107v-115h-107v115z" />
    <glyph glyph-name="uni04F9" unicode="&#x4f9;" horiz-adv-x="534" 
d="M376 0v512h128v-512h-128zM30 512h128v-163h71q17 0 42 -4.5t46 -24.5q23 -21 26 -47t3 -55v-109q0 -20 -2.5 -34t-7.5 -24t-12 -16.5t-15 -12.5q-27 -19 -48.5 -20.5t-42.5 -1.5h-188v512zM182 90q12 0 19 4t10 9q2 3 4.5 11t2.5 29v62q0 20 -1.5 28t-3.5 10
q-5 10 -13 13t-16 3h-26v-169h24zM294 581v120h107v-120h-107zM127 581v120h107v-120h-107z" />
    <glyph glyph-name="endash" unicode="&#x2013;" horiz-adv-x="478" 
d="M10 298h458v-83h-458v83z" />
    <glyph glyph-name="emdash" unicode="&#x2014;" horiz-adv-x="714" 
d="M10 298h694v-83h-694v83z" />
    <glyph glyph-name="quoteleft" unicode="&#x2018;" horiz-adv-x="216" 
d="M200 700l-88 -132h66v-148h-148v148l87 132h83z" />
    <glyph glyph-name="quoteright" unicode="&#x2019;" horiz-adv-x="216" 
d="M16 420l88 132h-66v148h148v-148l-87 -132h-83z" />
    <glyph glyph-name="quotesinglbase" unicode="&#x201a;" horiz-adv-x="216" 
d="M16 -132l88 132h-66v148h148v-148l-87 -132h-83z" />
    <glyph glyph-name="quotedblleft" unicode="&#x201c;" horiz-adv-x="410" 
d="M394 700l-88 -132h66v-148h-148v148l87 132h83zM200 700l-88 -132h66v-148h-148v148l87 132h83z" />
    <glyph glyph-name="quotedblright" unicode="&#x201d;" horiz-adv-x="410" 
d="M16 420l88 132h-66v148h148v-148l-87 -132h-83zM210 420l88 132h-66v148h148v-148l-87 -132h-83z" />
    <glyph glyph-name="quotedblbase" unicode="&#x201e;" horiz-adv-x="410" 
d="M16 -132l88 132h-66v148h148v-148l-87 -132h-83zM210 -132l88 132h-66v148h148v-148l-87 -132h-83z" />
    <glyph glyph-name="dagger" unicode="&#x2020;" horiz-adv-x="416" 
d="M155 -165v580h-140v94h140v191h107v-191h139v-94h-139v-580h-107z" />
    <glyph glyph-name="daggerdbl" unicode="&#x2021;" horiz-adv-x="416" 
d="M155 -165v205h-140v94h140v281h-140v94h140v191h107v-191h139v-94h-139v-281h139v-94h-139v-205h-107z" />
    <glyph glyph-name="bullet" unicode="&#x2022;" horiz-adv-x="286" 
d="M30 397q0 24 9 44.5t24 35.5t35.5 24t44.5 9t44.5 -9t35.5 -24t24 -35.5t9 -44.5t-9 -44.5t-24 -35.5t-35.5 -24t-44.5 -9t-44.5 9t-35.5 24t-24 35.5t-9 44.5z" />
    <glyph glyph-name="ellipsis" unicode="&#x2026;" horiz-adv-x="594" 
d="M30 148h138v-148h-138v148zM228 148h138v-148h-138v148zM426 148h138v-148h-138v148z" />
    <glyph glyph-name="perthousand" unicode="&#x2030;" horiz-adv-x="1020" 
d="M281 496q0 -25 -2.5 -50t-24.5 -49q-16 -18 -42.5 -28.5t-61.5 -10.5q-36 0 -62 11t-41 28q-22 24 -24.5 49t-2.5 50v66q0 25 2.5 50t24.5 49q15 17 41 28t62 11q35 0 61.5 -10.5t42.5 -28.5q22 -24 24.5 -49t2.5 -50v-66zM121 471q0 -7 0.5 -14.5t4.5 -13.5
q3 -5 9.5 -8.5t14.5 -3.5q7 0 14 3t11 9t4.5 13.5t0.5 14.5v116q0 7 -0.5 14.5t-4.5 13.5t-11 9t-14 3q-8 0 -14.5 -3.5t-9.5 -8.5q-4 -6 -4.5 -13.5t-0.5 -14.5v-116zM156 0l302 700h89l-301 -700h-90zM682 139q0 -24 -2.5 -50t-23.5 -49q-18 -20 -46.5 -29.5t-57.5 -9.5
q-35 0 -61.5 10.5t-42.5 28.5q-22 24 -24.5 49t-2.5 50v66q0 25 2.5 50t24.5 49q16 18 42.5 28.5t61.5 10.5q29 0 57.5 -9.5t46.5 -29.5q21 -23 23.5 -49t2.5 -50v-66zM522 114q0 -7 0.5 -14.5t4.5 -13.5q7 -12 25 -12q15 0 24 12q5 8 5.5 14.5t0.5 13.5v116q0 7 -0.5 13.5
t-5.5 14.5q-9 12 -24 12q-18 0 -25 -12q-4 -6 -4.5 -13.5t-0.5 -14.5v-116zM1000 139q0 -25 -2.5 -50t-24.5 -49q-15 -17 -41 -28t-62 -11q-35 0 -61.5 10.5t-42.5 28.5q-22 24 -24.5 49t-2.5 50v66q0 25 2.5 50t24.5 49q16 18 42.5 28.5t61.5 10.5q36 0 62 -11t41 -28
q22 -24 24.5 -49t2.5 -50v-66zM840 114q0 -7 0.5 -14.5t4.5 -13.5t11 -9t14 -3q8 0 14.5 3.5t9.5 8.5q4 6 4.5 13.5t0.5 14.5v116q0 7 -0.5 14.5t-4.5 13.5q-3 5 -9.5 8.5t-14.5 3.5q-7 0 -14 -3t-11 -9t-4.5 -13.5t-0.5 -14.5v-116z" />
    <glyph glyph-name="guilsinglleft" unicode="&#x2039;" horiz-adv-x="288" 
d="M165 0l-155 256l155 256h113l-130 -256l130 -256h-113z" />
    <glyph glyph-name="guilsinglright" unicode="&#x203a;" horiz-adv-x="288" 
d="M140 256l-130 256h113l155 -256l-155 -256h-113z" />
    <glyph glyph-name="fraction" unicode="&#x2044;" horiz-adv-x="401" 
d="M5 0l301 700h90l-302 -700h-89z" />
    <glyph glyph-name="Euro" unicode="&#x20ac;" horiz-adv-x="492" 
d="M329 525v24q0 7 -1 17.5t-3 17.5q-5 14 -14 17.5t-18 3.5t-18 -3.5t-14 -17.5q-2 -7 -3 -17.5t-1 -17.5v-92h182l-46 -76h-136v-71h101l-43 -76h-58v-83q0 -6 1 -17t3 -18q5 -14 15 -17.5t17 -3.5t17 3.5t15 17.5q2 7 3 18t1 17v35h138v-32q0 -33 -7.5 -64t-38.5 -59
q-29 -26 -64 -33.5t-64 -7.5q-51 0 -81 13t-47 28q-29 27 -37.5 59t-8.5 64v80h-114l47 76h67v71h-114l47 76h67v89q0 32 8.5 64t37.5 59q17 15 47 28t81 13q29 0 64 -7.5t64 -33.5q31 -28 38.5 -59t7.5 -64v-21h-138z" />
    <glyph glyph-name="afii61352" unicode="&#x2116;" horiz-adv-x="745" 
d="M283 0l-112 385l6 -90v-147q0 -25 -4 -52t-19 -48q-12 -17 -26.5 -26.5t-29.5 -14t-29 -6t-23 -1.5h-41v105h9q7 0 12.5 3t9.5 7q9 9 11 20.5t2 21.5v543h130l112 -407l-6 85v194q0 23 4.5 49.5t23.5 46.5q16 17 41.5 24.5t51.5 7.5h52v-105h-11q-12 0 -19 -5.5t-10 -14
t-4 -17.5t-1 -15v-543h-130zM459 88h261v-88h-261v88zM720 288q0 -23 -3.5 -47t-23.5 -48q-23 -28 -52.5 -35.5t-51.5 -7.5q-8 0 -20.5 1t-27 5.5t-29.5 13t-27 23.5q-19 23 -22.5 48t-3.5 47v66q0 22 3.5 47t22.5 48q12 15 27 23.5t29.5 13t27 5.5t20.5 1q22 0 51.5 -7.5
t52.5 -35.5q20 -24 23.5 -48t3.5 -47v-66zM566 263q0 -20 4 -28q6 -12 19 -12q11 0 15 5t5 7q2 4 2.5 13t0.5 15v116q0 6 -0.5 15t-2.5 13q-1 2 -5 7t-15 5q-13 0 -19 -12q-4 -8 -4 -28v-116z" />
    <glyph glyph-name="uni2117" unicode="&#x2117;" horiz-adv-x="614" 
d="M198 0q-15 0 -33 2t-36 8.5t-35.5 18t-31.5 30.5q-22 29 -26 59t-4 53v358q0 23 4 53t26 59q14 19 31.5 30.5t35.5 18t36 8.5t33 2h218q15 0 33 -2t36 -8.5t35.5 -18t31.5 -30.5q22 -29 26 -59t4 -53v-358q0 -23 -4 -53t-26 -59q-14 -19 -31.5 -30.5t-35.5 -18t-36 -8.5
t-33 -2h-218zM112 166q0 -15 2 -32.5t13 -32.5q5 -8 20.5 -19.5t46.5 -11.5h226q31 0 46.5 11.5t20.5 19.5q11 15 13 32.5t2 32.5v368q0 15 -2 32.5t-13 32.5q-5 8 -20.5 19.5t-46.5 11.5h-226q-31 0 -46.5 -11.5t-20.5 -19.5q-11 -15 -13 -32.5t-2 -32.5v-368zM186 109v482
h140q17 0 42 -7.5t39 -21.5q17 -17 20.5 -38.5t3.5 -38.5v-72q0 -14 -3.5 -38.5t-20.5 -41.5q-9 -9 -20.5 -14t-23 -7.5t-20 -3t-11.5 -0.5q-13 -1 -31 0t-31 3v-202h-84zM314 379q8 0 16 2t13 12q3 6 4 16.5t1 18.5v55q0 8 -1.5 15.5t-7.5 14.5q-7 7 -15.5 8.5t-15.5 1.5
h-38v-144h44z" />
    <glyph glyph-name="trademark" unicode="&#x2122;" horiz-adv-x="442" 
d="M57 450v204h-53v46h161v-46h-52v-204h-56zM358 450v194h-2l-37 -194h-44l-36 194h-2v-194h-55v250h91l25 -152l23 152h91v-250h-54z" />
    <glyph glyph-name="partialdiff" unicode="&#x2202;" horiz-adv-x="374" 
d="M160 122v-13t5 -14q7 -11 22 -11t22 11q5 7 5 14v13v268v13t-5 14q-7 11 -22 11t-22 -11q-5 -7 -5 -14v-13v-268zM342 137q0 -24 -5.5 -52.5t-28.5 -52.5q-15 -16 -44 -29t-77 -13t-77 13t-44 29q-23 24 -28.5 52.5t-5.5 52.5v238q0 24 5.5 52.5t28.5 52.5q21 23 56 32.5
t65 9.5q28 0 45 -10.5t29 -26.5q1 18 -3 39.5t-12 37.5q-10 19 -24 29.5t-29.5 15.5t-31 6.5t-28.5 1.5h-71v85h85q15 0 38 -2t47.5 -11.5t48 -29t40.5 -53.5q14 -30 17.5 -62.5t3.5 -56.5v-348z" />
    <glyph glyph-name="product" unicode="&#x220f;" horiz-adv-x="418" 
d="M245 0v602h-72v-602h-138v700h348v-700h-138z" />
    <glyph glyph-name="summation" unicode="&#x2211;" horiz-adv-x="344" 
d="M161 391l-151 309h313v-98h-150l107 -211l-118 -293h177v-98h-329z" />
    <glyph glyph-name="minus" unicode="&#x2212;" horiz-adv-x="572" 
d="M40 391h492v-76h-492v76z" />
    <glyph glyph-name="uni2215" unicode="&#x2215;" horiz-adv-x="470" 
d="M5 -160l370 860h90l-370 -860h-90z" />
    <glyph glyph-name="radical" unicode="&#x221a;" horiz-adv-x="613" 
d="M608 699v-59h-150l-170 -641l-65 1l-97 350l-121 1v66h174l73 -292l155 574h201z" />
    <glyph glyph-name="infinity" unicode="&#x221e;" horiz-adv-x="782" 
d="M196 177q-23 0 -53 3.5t-56 23.5q-18 14 -32.5 40t-14.5 70t14.5 70t32.5 40q26 20 56 23.5t53 3.5h77q41 0 69 -13.5t49 -44.5q21 31 49 44.5t69 13.5h77q23 0 53 -3.5t56 -23.5q18 -14 32.5 -40t14.5 -70t-14.5 -70t-32.5 -40q-26 -20 -56 -23.5t-53 -3.5h-77
q-41 0 -69 13.5t-49 42.5q-25 -35 -54.5 -45.5t-63.5 -10.5h-77zM189 364q-9 0 -19 -1.5t-19 -6.5q-21 -13 -21 -42q0 -10 3.5 -22t17.5 -20q9 -5 19.5 -6.5t18.5 -1.5h93q17 0 28 4.5t18 9.5q10 8 13 17.5t3 18.5t-3 18.5t-13 17.5q-7 5 -18 9.5t-28 4.5h-93zM501 364
q-11 0 -25.5 -4t-24.5 -13q-8 -7 -11 -15t-3 -18t3 -19t14 -17q11 -9 23 -11.5t23 -2.5h93q9 0 19 1.5t19 6.5q14 8 17.5 18t3.5 24t-3.5 24t-17.5 18q-9 5 -19 6.5t-19 1.5h-92z" />
    <glyph glyph-name="integral" unicode="&#x222b;" horiz-adv-x="331" 
d="M225 91q0 -49 -6 -88.5t-31 -74.5q-17 -24 -39 -38.5t-43 -21.5t-39 -9t-28 -2h-29v76h23q22 0 37 6t25 26q8 14 9.5 36.5t1.5 66.5v397q0 45 7.5 87.5t30.5 74.5q16 22 37 35.5t43.5 21t45.5 10.5t42 3h9v-76h-14q-3 0 -12.5 -1t-20.5 -5.5t-22 -13t-17 -24.5
q-4 -9 -7 -30t-3 -70v-386z" />
    <glyph glyph-name="approxequal" unicode="&#x2248;" horiz-adv-x="572" 
d="M40 426q19 15 39.5 26.5t40.5 18.5q17 6 32.5 8.5t30.5 2.5q23 0 40.5 -5t32.5 -10l69 -26q18 -7 35.5 -12.5t35.5 -5.5q17 0 33.5 4.5t33.5 11.5q18 8 35 15.5t34 16.5v-76q-14 -7 -32.5 -15t-34.5 -14t-35 -10.5t-39 -4.5q-26 0 -47.5 6.5t-41.5 14.5l-80 29
q-11 4 -24 6.5t-27 2.5q-17 0 -32 -4t-29 -10q-37 -16 -70 -46v76zM40 266q19 15 39.5 26.5t40.5 18.5q17 6 32.5 8.5t30.5 2.5q23 0 40.5 -5t32.5 -10l69 -26q18 -7 35.5 -12.5t35.5 -5.5q17 0 33.5 4.5t33.5 11.5q18 8 35 15.5t34 16.5v-76q-14 -7 -32.5 -15t-34.5 -14
t-35 -10.5t-39 -4.5q-26 0 -47.5 6.5t-41.5 14.5l-80 29q-11 4 -24 6.5t-27 2.5q-17 0 -32 -4t-29 -10q-37 -16 -70 -46v76z" />
    <glyph glyph-name="notequal" unicode="&#x2260;" horiz-adv-x="572" 
d="M143 101l57 133h-160v76h193l31 71h-224v76h257l57 135h63l-58 -135h173v-76h-206l-31 -71h237v-76h-270l-57 -133h-62z" />
    <glyph glyph-name="lessequal" unicode="&#x2264;" horiz-adv-x="420" 
d="M380 202l-340 179v60l340 179v-76l-257 -133l257 -133v-76zM380 32l-340 179v76l340 -179v-76z" />
    <glyph glyph-name="greaterequal" unicode="&#x2265;" horiz-adv-x="420" 
d="M40 278l257 133l-257 133v76l340 -179v-60l-340 -179v76zM40 108l340 179v-76l-340 -179v76z" />
    <glyph glyph-name="lozenge" unicode="&#x25ca;" horiz-adv-x="400" 
d="M200 641l170 -287l-170 -287l-170 287zM200 512l-87 -158l87 -158l87 158z" />
    <glyph glyph-name="uniF400" unicode="&#xf400;" horiz-adv-x="2" 
d="M-252 593l148 148l68 -80l-181 -115z" />
    <glyph glyph-name="uniF401" unicode="&#xf401;" horiz-adv-x="2" 
d="M-318 778l244 109l37 -98l-263 -59z" />
    <glyph glyph-name="uniF406" unicode="&#xf406;" 
d="M316 857q-1 -25 -12 -52t-40 -49q-22 -17 -45 -23t-49 -6t-49 6t-45 23q-29 22 -40 49t-12 52h97q-1 -10 1 -21.5t7 -19.5t17 -15t25 -7q5 0 18 3t22 19q6 10 7.5 21.5t0.5 19.5h97z" />
    <glyph glyph-name="uniF407" unicode="&#xf407;" 
d="M82 -134q9 -2 18 -3.5t18 -3.5q8 -1 18 -2t18 -1t13 2t10 10q5 9 5 19q0 7 -1 12.5t-6 11.5q-8 10 -15.5 11.5t-16.5 1.5h-39v76h64v-32q23 2 42.5 -7t30.5 -21q2 -2 10 -16t8 -40q0 -20 -7 -34t-15 -23q-17 -17 -35.5 -22t-37.5 -5q-15 0 -27 1t-23 2q-9 1 -15.5 2
t-16.5 3v58z" />
    <glyph glyph-name="uniF408" unicode="&#xf408;" 
d="M28 790l142 89l141 -89v-60l-141 58l-142 -58v60z" />
    <glyph glyph-name="uniF409" unicode="&#xf409;" horiz-adv-x="167" 
d="M137 -138l-51 -86h-56l36 91h-35v90h106v-95z" />
    <glyph glyph-name="uniF40A" unicode="&#xf40a;" horiz-adv-x="179" 
d="M149 581l-65 -108h-54l45 117h-42v110h116v-119z" />
    <glyph glyph-name="uniF40B" unicode="&#xf40b;" 
d="M101 746v122h139v-122h-139z" />
    <glyph glyph-name="uniF40C" unicode="&#xf40c;" 
d="M117 807q0 -23 15 -38t38 -15t38 15t15 38t-15 38t-38 15t-38 -15t-15 -38zM63 807q0 22 8.5 42t22.5 34t33.5 22.5t42.5 8.5q22 0 42 -8.5t34 -22.5t22.5 -34t8.5 -42q0 -23 -8.5 -42.5t-22.5 -33.5t-34 -22.5t-42 -8.5q-23 0 -42.5 8.5t-33.5 22.5t-22.5 33.5
t-8.5 42.5z" />
    </font>
</defs>
</svg>
